<svg width="257" height="246" viewBox="0 0 257 246" fill="none" xmlns="http://www.w3.org/2000/svg">
<g filter="url(#filter0_d_313_2113)">
<path d="M48.8093 197.58C48.8093 198.446 48.5721 199.197 48.0975 199.832C47.6419 200.447 46.9776 200.928 46.1044 201.275C47.2054 201.64 48.0311 202.179 48.5815 202.891C49.132 203.603 49.4073 204.459 49.4073 205.459C49.4073 207.325 48.7239 208.711 47.3572 209.615C46.0095 210.519 44.0544 210.971 41.4918 210.971C41.1501 210.971 40.761 210.962 40.3244 210.943C39.9068 210.923 39.4702 210.885 39.0147 210.827C38.5781 210.789 38.132 210.721 37.6764 210.625C37.2399 210.548 36.8412 210.442 36.4806 210.308C35.4935 209.942 35 209.288 35 208.345V194.608C35 194.223 35.0949 193.925 35.2847 193.713C35.4935 193.502 35.7877 193.338 36.1674 193.223C36.7938 193.011 37.572 192.857 38.5022 192.761C39.4323 192.645 40.3909 192.588 41.3779 192.588C43.7507 192.588 45.5824 193.001 46.8732 193.829C48.1639 194.637 48.8093 195.887 48.8093 197.58ZM44.8516 205.257C44.8516 203.891 43.9879 203.208 42.2606 203.208H39.3279V207.249C39.6316 207.325 40.0112 207.383 40.4668 207.422C40.9223 207.46 41.3589 207.479 41.7765 207.479C42.6877 207.479 43.428 207.306 43.9974 206.96C44.5669 206.594 44.8516 206.027 44.8516 205.257ZM39.3279 200.005H41.9758C42.7161 200.005 43.2951 199.832 43.7127 199.485C44.1303 199.139 44.3391 198.629 44.3391 197.956C44.3391 197.34 44.0923 196.869 43.5988 196.541C43.1242 196.195 42.4029 196.022 41.4349 196.022C41.0742 196.022 40.6946 196.041 40.2959 196.08C39.8973 196.099 39.5746 196.128 39.3279 196.166V200.005Z" fill="white"/>
<path d="M58.3829 207.739C58.8005 207.739 59.2086 207.701 59.6072 207.624C60.0248 207.528 60.338 207.412 60.5468 207.277V204.622L58.212 204.824C57.6046 204.882 57.1111 205.026 56.7314 205.257C56.3708 205.469 56.1905 205.796 56.1905 206.238C56.1905 206.7 56.3613 207.066 56.703 207.335C57.0446 207.604 57.6046 207.739 58.3829 207.739ZM58.212 196.224C59.1991 196.224 60.0912 196.33 60.8885 196.541C61.7047 196.734 62.3975 197.042 62.967 197.465C63.5365 197.888 63.973 198.427 64.2767 199.081C64.5994 199.735 64.7608 200.505 64.7608 201.39V207.912C64.7608 208.413 64.6279 208.817 64.3622 209.124C64.1154 209.413 63.8117 209.663 63.451 209.875C62.8626 210.24 62.1413 210.519 61.2871 210.712C60.4329 210.904 59.4648 211 58.3829 211C56.4277 211 54.8712 210.625 53.7133 209.875C52.5554 209.105 51.9765 207.941 51.9765 206.383C51.9765 205.055 52.3656 204.045 53.1439 203.352C53.9221 202.66 55.118 202.227 56.7314 202.054L60.5183 201.65V201.332C60.5183 200.717 60.2716 200.264 59.778 199.976C59.2845 199.687 58.5727 199.543 57.6426 199.543C56.9213 199.543 56.2094 199.629 55.5071 199.803C54.8238 199.976 54.2069 200.178 53.6564 200.409C53.4286 200.255 53.2293 200.024 53.0584 199.716C52.9066 199.389 52.8307 199.043 52.8307 198.677C52.8307 197.831 53.2673 197.224 54.1404 196.859C54.6909 196.647 55.3268 196.493 56.0481 196.397C56.7884 196.282 57.5097 196.224 58.212 196.224Z" fill="white"/>
<path d="M72.8515 210.51C72.6617 210.567 72.396 210.616 72.0543 210.654C71.7126 210.712 71.333 210.741 70.9154 210.741C70.0612 210.741 69.4443 210.606 69.0646 210.337C68.685 210.048 68.4952 209.5 68.4952 208.692V199.889C68.4952 199.351 68.628 198.889 68.8938 198.504C69.1595 198.119 69.5297 197.782 70.0042 197.494C70.6306 197.109 71.3804 196.811 72.2536 196.599C73.1457 196.368 74.0759 196.253 75.0439 196.253C77.018 196.253 78.0051 196.926 78.0051 198.273C78.0051 198.6 77.9576 198.898 77.8627 199.168C77.7678 199.437 77.6634 199.668 77.5495 199.86C77.113 199.764 76.5815 199.716 75.9551 199.716C75.4046 199.716 74.8541 199.783 74.3036 199.918C73.7532 200.053 73.2691 200.236 72.8515 200.466V210.51Z" fill="white"/>
<path d="M84.71 210.51C84.5202 210.567 84.2544 210.616 83.9128 210.654C83.5711 210.712 83.1915 210.741 82.7739 210.741C81.9197 210.741 81.3028 210.606 80.9231 210.337C80.5435 210.048 80.3537 209.5 80.3537 208.692V199.889C80.3537 199.351 80.4865 198.889 80.7523 198.504C81.018 198.119 81.3882 197.782 81.8627 197.494C82.4891 197.109 83.2389 196.811 84.1121 196.599C85.0042 196.368 85.9343 196.253 86.9024 196.253C88.8765 196.253 89.8636 196.926 89.8636 198.273C89.8636 198.6 89.8161 198.898 89.7212 199.168C89.6263 199.437 89.5219 199.668 89.408 199.86C88.9714 199.764 88.4399 199.716 87.8135 199.716C87.2631 199.716 86.7126 199.783 86.1621 199.918C85.6116 200.053 85.1276 200.236 84.71 200.466V210.51Z" fill="white"/>
<path d="M95.6912 205.43C95.9569 206.238 96.422 206.816 97.0864 207.162C97.7507 207.489 98.5195 207.653 99.3927 207.653C100.19 207.653 100.94 207.547 101.642 207.335C102.344 207.104 102.914 206.854 103.35 206.585C103.635 206.777 103.872 207.027 104.062 207.335C104.252 207.643 104.347 207.98 104.347 208.345C104.347 208.788 104.214 209.173 103.948 209.5C103.683 209.827 103.312 210.106 102.838 210.337C102.382 210.548 101.832 210.702 101.186 210.798C100.56 210.914 99.8672 210.971 99.1079 210.971C97.988 210.971 96.9535 210.818 96.0044 210.51C95.0553 210.183 94.2391 209.711 93.5557 209.096C92.8724 208.461 92.3314 207.672 91.9328 206.729C91.5531 205.786 91.3633 204.68 91.3633 203.41C91.3633 202.179 91.5531 201.111 91.9328 200.207C92.3314 199.302 92.8534 198.552 93.4988 197.956C94.1631 197.359 94.9129 196.926 95.7481 196.657C96.6023 196.368 97.4755 196.224 98.3676 196.224C99.3357 196.224 100.218 196.378 101.016 196.686C101.832 196.974 102.525 197.388 103.094 197.927C103.683 198.465 104.138 199.11 104.461 199.86C104.784 200.611 104.945 201.428 104.945 202.313C104.945 202.929 104.784 203.391 104.461 203.699C104.138 204.007 103.683 204.209 103.094 204.305L95.6912 205.43ZM98.3961 199.485C97.5799 199.485 96.8965 199.745 96.3461 200.264C95.8146 200.765 95.5014 201.496 95.4065 202.458L100.845 201.563C100.807 201.063 100.589 200.591 100.19 200.149C99.7913 199.706 99.1933 199.485 98.3961 199.485Z" fill="white"/>
<path d="M116.874 201.679C116.874 201.005 116.675 200.505 116.276 200.178C115.878 199.851 115.346 199.687 114.682 199.687C114.226 199.687 113.808 199.745 113.429 199.86C113.049 199.976 112.698 200.12 112.375 200.293V210.51C112.186 210.567 111.92 210.616 111.578 210.654C111.236 210.712 110.857 210.741 110.439 210.741C109.585 210.741 108.968 210.606 108.588 210.337C108.209 210.048 108.019 209.5 108.019 208.692V199.774C108.019 199.274 108.123 198.87 108.332 198.562C108.541 198.254 108.835 197.965 109.215 197.696C109.822 197.253 110.601 196.897 111.55 196.628C112.518 196.359 113.581 196.224 114.739 196.224C116.808 196.224 118.402 196.686 119.522 197.609C120.661 198.533 121.23 199.851 121.23 201.563V210.51C121.022 210.567 120.746 210.616 120.405 210.654C120.063 210.712 119.683 210.741 119.266 210.741C118.412 210.741 117.795 210.606 117.415 210.337C117.054 210.048 116.874 209.5 116.874 208.692V201.679Z" fill="white"/>
<path d="M139.605 197.321C139.814 197.224 140.108 197.128 140.488 197.032C140.886 196.917 141.304 196.859 141.741 196.859C142.462 196.859 143.06 196.965 143.534 197.176C144.009 197.388 144.303 197.705 144.417 198.129C144.645 198.975 144.863 199.764 145.072 200.495C145.281 201.207 145.48 201.9 145.67 202.573C145.86 203.247 146.04 203.91 146.211 204.565C146.401 205.219 146.581 205.902 146.752 206.614H146.894C147.084 205.421 147.255 204.276 147.407 203.179C147.559 202.063 147.701 200.976 147.834 199.918C147.986 198.841 148.128 197.773 148.261 196.715C148.394 195.656 148.527 194.569 148.66 193.453C149.267 193.088 149.941 192.905 150.681 192.905C151.308 192.905 151.848 193.049 152.304 193.338C152.76 193.607 152.987 194.069 152.987 194.723C152.987 195.127 152.94 195.724 152.845 196.513C152.769 197.282 152.655 198.158 152.503 199.139C152.352 200.101 152.171 201.111 151.962 202.169C151.773 203.227 151.564 204.257 151.336 205.257C151.127 206.238 150.909 207.143 150.681 207.97C150.453 208.778 150.235 209.423 150.026 209.904C149.76 210.135 149.343 210.337 148.773 210.51C148.204 210.664 147.616 210.741 147.008 210.741C146.211 210.741 145.528 210.635 144.958 210.423C144.408 210.192 144.066 209.875 143.933 209.471C143.667 208.663 143.354 207.653 142.993 206.44C142.652 205.209 142.291 203.891 141.911 202.487C141.76 203.179 141.598 203.872 141.427 204.565C141.257 205.257 141.086 205.931 140.915 206.585C140.744 207.239 140.573 207.855 140.402 208.432C140.251 208.99 140.108 209.49 139.975 209.933C139.71 210.144 139.32 210.337 138.808 210.51C138.314 210.664 137.754 210.741 137.128 210.741C136.369 210.741 135.676 210.625 135.05 210.394C134.442 210.163 134.043 209.856 133.854 209.471C133.683 209.105 133.493 208.576 133.284 207.883C133.094 207.191 132.886 206.402 132.658 205.517C132.449 204.613 132.231 203.651 132.003 202.631C131.794 201.592 131.585 200.563 131.377 199.543C131.187 198.504 131.016 197.494 130.864 196.513C130.712 195.531 130.589 194.637 130.494 193.829C130.741 193.617 131.073 193.415 131.49 193.223C131.908 193.011 132.373 192.905 132.886 192.905C133.531 192.905 134.053 193.059 134.452 193.367C134.869 193.655 135.135 194.136 135.249 194.81C135.553 196.618 135.799 198.158 135.989 199.427C136.198 200.697 136.369 201.784 136.502 202.689C136.653 203.593 136.777 204.353 136.872 204.969C136.986 205.584 137.09 206.133 137.185 206.614H137.327C137.517 205.825 137.698 205.094 137.868 204.42C138.039 203.747 138.21 203.064 138.381 202.371C138.571 201.659 138.76 200.909 138.95 200.12C139.159 199.312 139.377 198.379 139.605 197.321Z" fill="white"/>
<path d="M169.207 207.653C169.207 208.557 168.818 209.249 168.04 209.73C167.432 210.115 166.683 210.414 165.79 210.625C164.898 210.856 163.911 210.971 162.829 210.971C161.804 210.971 160.874 210.856 160.039 210.625C159.204 210.414 158.482 210.067 157.875 209.586C157.287 209.105 156.821 208.499 156.48 207.768C156.157 207.037 155.996 206.152 155.996 205.113V196.715C156.205 196.657 156.48 196.599 156.821 196.541C157.163 196.484 157.543 196.455 157.96 196.455C158.815 196.455 159.422 196.599 159.783 196.888C160.162 197.176 160.352 197.725 160.352 198.533V205.084C160.352 205.95 160.57 206.575 161.007 206.96C161.444 207.325 162.06 207.508 162.858 207.508C163.351 207.508 163.759 207.47 164.082 207.393C164.424 207.297 164.68 207.2 164.851 207.104V196.715C165.041 196.657 165.306 196.599 165.648 196.541C165.99 196.484 166.369 196.455 166.787 196.455C167.641 196.455 168.258 196.599 168.638 196.888C169.017 197.176 169.207 197.725 169.207 198.533V207.653Z" fill="white"/>
<path d="M177.184 197.667H182.025C182.12 197.859 182.215 198.1 182.31 198.389C182.423 198.677 182.48 198.995 182.48 199.341C182.48 199.957 182.338 200.399 182.053 200.668C181.788 200.938 181.436 201.072 181 201.072H177.384V210.51C177.194 210.567 176.928 210.616 176.586 210.654C176.245 210.712 175.865 210.741 175.448 210.741C174.593 210.741 173.976 210.606 173.597 210.337C173.217 210.048 173.027 209.5 173.027 208.692V196.426C173.027 195.483 173.179 194.666 173.483 193.973C173.806 193.28 174.242 192.722 174.793 192.299C175.343 191.857 175.989 191.529 176.729 191.318C177.469 191.106 178.266 191 179.121 191C180.468 191 181.465 191.183 182.11 191.549C182.775 191.895 183.107 192.472 183.107 193.28C183.107 193.646 183.031 193.973 182.879 194.262C182.746 194.531 182.585 194.743 182.395 194.896C182.034 194.781 181.645 194.685 181.228 194.608C180.829 194.531 180.373 194.492 179.861 194.492C178.988 194.492 178.323 194.656 177.868 194.983C177.412 195.291 177.184 195.82 177.184 196.57V197.667ZM188.83 197.667H193.67C193.765 197.859 193.86 198.1 193.955 198.389C194.069 198.677 194.126 198.995 194.126 199.341C194.126 199.957 193.983 200.399 193.699 200.668C193.433 200.938 193.082 201.072 192.645 201.072H189.029V210.51C188.839 210.567 188.574 210.616 188.232 210.654C187.89 210.712 187.511 210.741 187.093 210.741C186.239 210.741 185.622 210.606 185.242 210.337C184.863 210.048 184.673 209.5 184.673 208.692V196.426C184.673 195.483 184.825 194.666 185.128 193.973C185.451 193.28 185.888 192.722 186.438 192.299C186.989 191.857 187.634 191.529 188.374 191.318C189.115 191.106 189.912 191 190.766 191C192.114 191 193.11 191.183 193.756 191.549C194.42 191.895 194.752 192.472 194.752 193.28C194.752 193.646 194.676 193.973 194.524 194.262C194.391 194.531 194.23 194.743 194.04 194.896C193.68 194.781 193.291 194.685 192.873 194.608C192.474 194.531 192.019 194.492 191.506 194.492C190.633 194.492 189.969 194.656 189.513 194.983C189.058 195.291 188.83 195.82 188.83 196.57V197.667Z" fill="white"/>
<path d="M200.959 205.43C201.225 206.238 201.69 206.816 202.355 207.162C203.019 207.489 203.788 207.653 204.661 207.653C205.458 207.653 206.208 207.547 206.91 207.335C207.613 207.104 208.182 206.854 208.619 206.585C208.903 206.777 209.141 207.027 209.33 207.335C209.52 207.643 209.615 207.98 209.615 208.345C209.615 208.788 209.482 209.173 209.217 209.5C208.951 209.827 208.581 210.106 208.106 210.337C207.651 210.548 207.1 210.702 206.455 210.798C205.828 210.914 205.135 210.971 204.376 210.971C203.256 210.971 202.222 210.818 201.273 210.51C200.324 210.183 199.507 209.711 198.824 209.096C198.141 208.461 197.6 207.672 197.201 206.729C196.821 205.786 196.632 204.68 196.632 203.41C196.632 202.179 196.821 201.111 197.201 200.207C197.6 199.302 198.122 198.552 198.767 197.956C199.431 197.359 200.181 196.926 201.016 196.657C201.871 196.368 202.744 196.224 203.636 196.224C204.604 196.224 205.487 196.378 206.284 196.686C207.1 196.974 207.793 197.388 208.362 197.927C208.951 198.465 209.406 199.11 209.729 199.86C210.052 200.611 210.213 201.428 210.213 202.313C210.213 202.929 210.052 203.391 209.729 203.699C209.406 204.007 208.951 204.209 208.362 204.305L200.959 205.43ZM203.664 199.485C202.848 199.485 202.165 199.745 201.614 200.264C201.083 200.765 200.77 201.496 200.675 202.458L206.113 201.563C206.075 201.063 205.857 200.591 205.458 200.149C205.06 199.706 204.462 199.485 203.664 199.485Z" fill="white"/>
<path d="M217.644 205.95C217.644 206.489 217.814 206.883 218.156 207.133C218.498 207.364 218.972 207.479 219.58 207.479C219.865 207.479 220.168 207.451 220.491 207.393C220.814 207.316 221.089 207.229 221.317 207.133C221.487 207.325 221.63 207.547 221.744 207.797C221.858 208.047 221.915 208.336 221.915 208.663C221.915 209.336 221.649 209.894 221.117 210.337C220.605 210.76 219.703 210.971 218.412 210.971C216.818 210.971 215.575 210.606 214.682 209.875C213.79 209.124 213.344 207.912 213.344 206.238V193.28C213.553 193.223 213.828 193.165 214.17 193.107C214.512 193.03 214.882 192.992 215.28 192.992C216.116 192.992 216.714 193.146 217.074 193.453C217.454 193.742 217.644 194.281 217.644 195.07V196.946H221.573C221.668 197.138 221.763 197.388 221.858 197.696C221.953 197.984 222 198.292 222 198.619C222 199.235 221.858 199.678 221.573 199.947C221.307 200.216 220.956 200.351 220.519 200.351H217.644V205.95Z" fill="white"/>
<path d="M120.117 47.8345C121.642 46.8135 123.475 46.4779 125.172 45.852C124.041 46.9226 122.857 47.9492 121.89 49.1769C121.466 49.8481 121.097 50.5604 120.667 51.233C120.148 52.0147 120.073 52.9734 119.736 53.8315C119.325 55.005 119.343 56.287 119.789 57.4481C118.006 58.0613 116.096 58.2014 114.341 58.8981C115.082 57.9621 115.484 56.8293 116.058 55.7942C116.32 55.2616 116.521 54.7011 116.657 54.1232C115.832 54.7534 115.505 55.7899 114.763 56.4923C113.995 57.2895 113.452 58.2666 112.963 59.2493C112.65 59.8342 112.363 60.4841 111.795 60.8665C111.425 61.1044 111.032 61.3054 110.657 61.5363C110.025 60.8481 109.557 60.0168 108.828 59.4221C108.32 58.9364 107.626 58.7537 106.98 58.5371C107.514 57.9706 108.074 57.417 108.594 56.8378C109.242 56.0689 110.086 55.4996 110.728 54.725C111.495 53.7805 112.625 53.2382 113.444 52.3446C113.823 51.953 114.263 51.6255 114.747 51.3746C115.313 51.0688 115.737 50.5774 116.253 50.2007C116.661 49.8963 117.088 49.6173 117.508 49.3256C118.327 48.7479 119.276 48.3854 120.117 47.8345Z" fill="#FDFDFD"/>
<path d="M96.6757 58.0546C97.2002 57.9342 97.7488 57.9781 98.2846 57.9809C98.5433 58.0064 98.8586 57.9809 99.0438 58.2047C99.2502 58.6706 98.9109 59.1194 98.6833 59.5032C97.4293 61.4248 96.2798 63.4087 95.0201 65.3274C94.3882 66.3087 93.9174 67.3892 93.1822 68.3011C92.7326 68.8265 92.5502 69.6719 91.808 69.8687C91.1944 70.1307 90.5186 70.0811 89.8711 70.0103C90.2853 69.0686 90.848 68.2048 91.3457 67.3085C93.1059 64.2172 94.8533 61.1104 96.6757 58.0546Z" fill="#FDFDFD"/>
<path d="M125.411 58.7239C126.467 58.6276 127.523 58.5356 128.584 58.4917C128.099 59.4275 127.527 60.3159 126.877 61.1454C126.363 61.767 126.214 62.5982 125.718 63.2312C125.244 63.8551 124.803 64.5036 124.397 65.174C123.884 65.95 123.532 66.8223 122.964 67.5629C122.328 68.3772 121.902 69.3245 121.346 70.1911C120.893 71.0408 120.232 71.7743 119.838 72.6607C119.555 73.288 119.131 73.8304 118.78 74.4166C118.3 75.2054 117.844 76.0097 117.426 76.8324C116.511 76.1938 115.845 75.2932 115.274 74.3501C115.809 73.1771 116.473 72.0676 117.253 71.0422C117.811 69.9381 118.467 68.8864 119.213 67.9C119.726 67.284 119.92 66.4839 120.406 65.8467C120.859 65.2849 121.243 64.6707 121.55 64.0171C122.058 62.8107 122.875 61.7727 123.584 60.6837C123.911 60.1343 124.023 59.4957 124.273 58.9151C124.615 58.6942 125.039 58.7721 125.411 58.7239Z" fill="#FDFDFD"/>
<path d="M83.7254 62.0822C84.2287 61.183 85.159 60.6661 85.945 60.0416C85.2101 61.2732 84.389 62.451 83.4878 63.5662C83.4737 63.0649 83.4497 62.5268 83.7254 62.0822Z" fill="#FDFDFD"/>
<path d="M110.568 65.1552L110.709 65.0745C111.477 66.2867 111.745 67.7353 111.784 69.1499C111.991 70.6934 112.26 72.2468 112.82 73.7054C113.165 74.4389 113.346 75.263 113.859 75.9073C114.411 76.6242 115.005 77.3071 115.639 77.9521C116.172 78.452 116.873 78.6998 117.477 79.0934C118.235 79.5961 119.131 79.8185 119.909 80.2872C119.506 80.712 119.041 81.1269 118.451 81.2671C117.603 81.5588 116.688 81.5276 115.804 81.6409C117.255 82.4679 119.031 82.3943 120.563 81.8448C121.27 81.6452 121.704 81.008 122.155 80.4769C123.49 80.7601 124.857 80.8069 126.214 80.8663C127.309 81.008 128.413 80.9457 129.513 80.957C132.209 80.9754 134.926 80.9315 137.583 80.4104C139.833 80.079 142.1 79.5211 144.066 78.3359C144.903 79.596 145.608 80.9383 146.173 82.3419C146.719 83.7834 146.679 85.3467 146.73 86.8619C146.75 88.3271 146.703 89.7903 146.589 91.2517C146.473 92.9212 145.859 94.4973 145.515 96.1243C145.233 97.4356 144.936 98.7412 144.68 100.057C144.529 100.793 144.227 101.486 144.006 102.201C143.427 104.104 142.686 105.952 142.107 107.855C141.776 107.507 141.444 107.16 141.128 106.799C140.648 106.239 140.016 105.836 139.546 105.265C138.854 104.415 137.85 103.91 137.067 103.151C137.677 102.208 137.773 101.055 137.99 99.9803C138.263 98.6024 138.244 97.1935 138.202 95.7972C138.041 93.9479 137.607 92.0277 136.435 90.5451C135.728 89.8371 135.108 88.9379 134.108 88.6391C132.46 88.0273 130.631 88.3049 129.018 88.8911C127.962 89.3981 126.972 90.0325 125.974 90.6428C125.334 90.9403 124.71 91.2711 124.105 91.634C123.026 92.3421 121.889 92.9538 120.911 93.7992C119.691 94.8471 118.223 95.5268 116.981 96.5463C116.058 97.2544 115.001 97.7585 114.012 98.3745C112.643 99.2241 111.085 99.6829 109.636 100.368C107.535 101.194 105.341 101.892 103.063 101.943C100.094 101.99 97.1027 102.049 94.1564 101.589C92.5645 101.255 91.0644 100.598 89.5714 99.9703C88.808 99.6616 88.005 99.3331 87.4748 98.6704C86.7325 97.7429 85.7782 96.9173 85.429 95.742C85.0925 94.0427 85.6566 92.3279 86.1953 90.7292C86.4179 90.322 86.723 89.9661 87.0912 89.6841C87.4593 89.4022 87.8823 89.2006 88.333 89.0922C90.0931 88.5569 91.9537 88.9195 93.7506 88.6405C94.5141 88.5569 95.2478 88.3162 95.9957 88.152C96.8059 87.9834 97.4166 87.3929 98.0514 86.9058C99.0821 86.1015 99.6603 84.8979 100.297 83.7905C101.055 82.5421 101.411 81.0899 101.316 79.6315C101.323 79.2682 101.251 78.9076 101.105 78.5751C100.958 78.2426 100.741 77.9463 100.468 77.7071C99.9926 77.4154 99.4058 77.4437 98.8898 77.2682C97.8309 76.8915 96.8511 76.3307 95.8374 75.8521C94.0914 75.1823 92.4287 74.2859 90.6063 73.8201C88.3697 73.2381 86.1034 72.6872 83.7876 72.5598C84.7773 72.0741 85.8673 71.8418 86.9446 71.6308C87.9187 71.4694 88.8561 71.1409 89.8344 71.0035C91.8265 70.7019 93.8397 70.4484 95.8586 70.5277C96.842 70.5233 97.8199 70.6733 98.7569 70.9724C99.8399 71.3405 100.994 71.5147 102.019 72.0443C102.67 72.3608 103.294 72.7327 103.882 73.1559C104.62 73.6629 105.437 74.1812 105.805 75.0365C106.052 75.576 106.331 76.1004 106.64 76.6069C107.268 77.7539 107.432 79.0665 107.771 80.3098C107.904 79.3328 107.838 78.3444 107.797 77.363C107.736 75.947 107.029 74.657 106.127 73.6062C105.108 72.1519 103.524 71.2485 101.938 70.5391C101.325 70.3033 100.697 70.1079 100.059 69.9542C102.084 69.8664 104.121 70.0718 106.138 69.7687C106.963 69.6356 107.9 69.5931 108.515 68.9488C109.478 67.8514 109.933 66.441 110.568 65.1552ZM105.388 87.4383C104.963 87.5884 104.527 87.8121 104.313 88.2284C104.049 88.666 104.101 89.1984 104.114 89.687C104.141 90.6782 105.103 91.4627 106.052 91.4599C107.053 91.3536 108.053 90.4757 107.961 89.4037C107.954 88.7722 107.839 87.9877 107.213 87.6733C106.66 87.4071 105.99 87.2315 105.388 87.4383ZM98.0641 92.8816C97.8068 93.3064 97.9411 93.8332 97.9977 94.2976C97.8916 94.823 98.2677 95.463 98.8389 95.48C99.3049 95.5098 99.7729 95.4841 100.233 95.4036C100.827 95.2082 101.487 94.8371 101.659 94.1914C101.849 93.4537 101.712 92.587 101.155 92.0376C100.798 91.6986 100.327 91.5065 99.8356 91.4995C99.0255 91.5774 98.4402 92.2146 98.0627 92.8816H98.0641ZM106.123 92.9949C105.392 93.2129 104.76 93.8445 104.737 94.6346C104.777 96.1767 106.717 97.4498 108.064 96.5081C108.902 95.8001 109.102 94.4137 108.417 93.5429C107.88 92.8646 106.896 92.6777 106.117 92.9949H106.123ZM97.2017 96.2192C96.3153 96.2659 95.2874 96.797 95.1362 97.7528C95.0768 98.3192 95.0542 98.9876 95.4755 99.4308C95.7122 99.6638 95.9962 99.8429 96.3082 99.9561C96.6203 100.069 96.953 100.114 97.2837 100.086C97.9906 99.9095 98.6862 99.4181 98.894 98.6832C99.1471 98.0601 98.8248 97.3846 98.4247 96.906C98.1164 96.5463 97.6994 96.1824 97.1961 96.2192H97.2017ZM102.045 99.5965C102.119 100.525 102.823 101.437 103.79 101.512C104.585 101.432 105.313 101.056 106.095 100.905C106.079 100.389 106.157 99.8613 106.021 99.3572C105.914 99.0311 105.742 98.7301 105.516 98.4721C105.29 98.2142 105.014 98.0047 104.705 97.8562C103.55 97.4356 102.167 98.3872 102.04 99.5965H102.045ZM106.625 100.871C107.058 100.796 107.486 100.692 107.906 100.562C107.468 100.628 107.038 100.733 106.619 100.875L106.625 100.871Z" fill="#FDFDFD"/>
<path d="M79.7792 82.4539C80.0026 81.4626 80.4366 80.5478 80.759 79.592C81.005 80.6739 81.005 81.7968 80.9117 82.8957C80.5992 84.4732 79.8626 85.926 79.1755 87.3591C78.8928 86.8606 78.1859 86.3041 78.5902 85.6952C79.1642 84.687 79.5149 83.5768 79.7792 82.4539Z" fill="#FDFDFD"/>
<path d="M87.7151 82.6935C87.2725 81.7716 87.954 80.8526 88.299 80.0284C88.668 81.0197 89.0525 82.0109 89.6081 82.9144C90.4564 84.1463 91.8914 84.6972 93.0154 85.6119C92.6693 85.8406 92.2718 85.9791 91.8587 86.015C91.4457 86.0508 91.0303 85.9829 90.6501 85.8173C89.3409 85.1687 88.3513 83.9948 87.7151 82.6935Z" fill="#FDFDFD"/>
<path d="M75.9028 87.8121C76.2264 87.3065 76.5925 86.8295 76.9971 86.3862C77.0451 86.7982 77.0183 87.2655 77.3039 87.6026C77.7535 88.1846 78.4844 88.4069 79.0838 88.7892C79.6833 89.1715 80.311 89.5879 81.0108 89.8031C82.1942 90.2109 83.5557 90.1996 84.5453 91.0691C84.404 91.7558 84.2216 92.4313 84.0986 93.1209C83.9402 94.6488 84.1452 96.198 84.0123 97.7217C83.6603 98.2456 83.2871 98.9537 82.5985 99.0386C81.951 98.7951 81.4887 98.24 81.0236 97.7528C80.5358 97.2388 80.2446 96.5818 80.0424 95.912C79.9265 95.558 79.7992 95.153 79.4444 94.9717C78.6456 94.4973 77.629 94.5894 76.8048 94.9491C76.2911 95.156 75.7492 95.2844 75.1973 95.33C75.0045 94.0731 74.9603 92.7979 75.0658 91.5307C75.162 90.7759 75.3146 90.0254 75.3118 89.265C75.3019 88.7156 75.6342 88.2582 75.9028 87.8121ZM77.5357 89.1276C77.3541 89.2175 77.2037 89.3602 77.1043 89.5371C77.0049 89.7139 76.9611 89.9167 76.9787 90.1189C77.0364 90.7989 77.1413 91.4741 77.2926 92.1396C77.3802 92.6126 77.9189 92.7528 78.3331 92.7443C78.8435 92.7287 79.3935 92.6989 79.8487 92.4497C80.164 92.0589 80.3421 91.5052 80.1979 91.0096C80.0565 90.4177 79.6239 89.949 79.1814 89.5553C78.7247 89.197 78.1012 88.8742 77.5357 89.1276Z" fill="#FDFDFD"/>
<path d="M143.536 109.541C144.708 109.117 145.959 109.117 147.189 109.131C148.951 109.071 150.693 109.52 152.207 110.424C152.603 110.671 153.102 110.864 153.293 111.328C153.878 112.682 153.717 114.258 153.088 115.568C154.19 115.993 155.402 116.68 155.707 117.923C155.871 119.001 155.823 120.175 155.283 121.147C154.838 122.027 153.878 122.479 153.437 123.365C154.014 124.014 154.95 124.431 155.152 125.347C155.087 127.099 153.994 129.002 152.183 129.382C149.119 130.129 145.866 129.794 142.896 128.805C142.23 128.604 141.582 128.08 141.547 127.337C141.497 126.637 142.091 126.138 142.64 125.823C143.231 125.506 143.868 125.265 144.391 124.832C145.022 124.307 145.999 124.057 146.171 123.133C145.214 123.122 144.258 123.197 143.314 123.358C142.585 123.475 141.793 123.345 141.224 122.844C140.198 122.04 139.862 120.72 139.573 119.506C140.346 118.457 141.552 117.888 142.669 117.283C143.365 116.879 144.174 116.785 144.947 116.623C144.725 116.367 144.538 116.057 144.229 115.894C143.279 115.752 142.282 115.656 141.461 115.108C140.392 114.51 139.73 113.438 139.198 112.371C139.644 111.845 139.961 111.16 140.612 110.863C141.596 110.431 142.466 109.748 143.536 109.541Z" fill="#FDFDFD"/>
<path d="M100.139 113.646C100.329 113.434 100.532 113.236 100.725 113.028C100.648 114.068 100.117 114.99 99.7478 115.945C99.5891 116.401 99.2927 116.797 98.8995 117.078C98.153 117.62 97.4603 118.246 96.6657 118.716C96.0126 118.836 95.3396 118.826 94.6765 118.857C95.3699 118.67 96.05 118.436 96.7124 118.158C97.5691 117.804 98.2039 117.096 98.8105 116.42C99.5202 115.649 99.834 114.628 100.139 113.646Z" fill="#FDFDFD"/>
<path d="M82.0756 116.655C83.266 115.417 85.0092 114.933 86.6747 114.824C87.9174 114.764 89.2012 114.853 90.3647 115.326C91.7559 116.041 92.0782 117.937 91.5099 119.291C91.2794 119.792 90.6616 119.638 90.2375 119.574C89.0258 119.303 87.7421 119.24 86.5432 119.604C85.89 119.834 85.3641 120.312 84.858 120.761C85.5111 120.973 86.2039 120.927 86.8656 120.787C88.0926 120.506 89.3751 120.596 90.5513 121.044C91.4138 121.444 92.2804 122.125 92.4783 123.107C92.6961 123.909 92.4317 124.856 91.7531 125.359C91.1661 125.837 90.4749 126.17 89.7356 126.33C89.187 126.472 88.572 126.455 88.0885 126.778C87.6262 127.288 87.9061 128.037 87.9683 128.643C88.1128 128.299 88.3473 128.001 88.6469 127.78C89.3892 127.548 90.1809 127.55 90.9288 127.333C91.6357 127.191 92.3879 126.876 93.0976 127.142C94.0166 127.487 94.469 128.416 94.8408 129.256C94.4167 129.592 94.0208 129.964 93.5952 130.311C93.1032 130.706 92.812 131.39 92.1518 131.544C91.3332 131.727 90.4835 131.697 89.6507 131.775C88.3783 131.845 86.9645 131.917 85.8816 131.139C85.4563 130.857 85.097 130.486 84.8286 130.051C84.5601 129.616 84.3888 129.129 84.3264 128.622C84.2373 128.385 84.3151 128 84.0153 127.914C83.365 127.772 82.644 127.952 82.036 127.63C81.6934 127.385 81.389 127.09 81.1326 126.755C80.9516 126.267 81.3277 125.822 81.5426 125.413C81.1948 125.144 80.7975 124.846 80.7283 124.385C80.5317 123.75 80.8612 123.119 81.2768 122.659C81.6529 122.252 81.9074 121.758 82.1675 121.275C81.7306 120.6 81.2146 119.94 80.9983 119.151C81.0753 118.223 81.4537 117.346 82.0756 116.655Z" fill="#FDFDFD"/>
<path d="M112.194 154.951C113.002 155.364 114.054 155.364 114.659 156.114C115.307 156.839 115.634 157.774 116.162 158.579C116.507 159.161 117.011 159.667 117.186 160.335C117.5 161.591 117.46 162.896 117.433 164.178C117.405 164.476 117.44 164.831 117.199 165.055C116.837 165.1 116.428 165.078 116.151 164.81C115.796 164.482 115.615 164.02 115.393 163.601C115.252 164.103 115.072 164.675 114.545 164.895C113.01 165.641 111.392 166.402 109.648 166.393C108.958 166.393 108.259 166.421 107.578 166.301C107.313 166.084 107.322 165.698 107.265 165.389C107.172 163.88 107.159 162.314 107.699 160.876C107.944 160.185 108.531 159.712 109.051 159.231C109.148 159.127 109.334 159.031 109.192 158.881C108.679 158.724 108.091 158.671 107.605 158.938C107.277 159.221 107.056 159.619 106.799 159.97C106.393 160.522 106.334 161.223 106.233 161.88C106.013 163.227 106.059 164.6 106.151 165.958C105.14 165.763 104.079 165.59 103.192 165.037C102.768 164.402 102.588 163.567 102.837 162.829C103.314 160.896 104.511 159.249 105.747 157.731C105.917 157.519 105.682 157.268 105.639 157.053C105.191 157.265 104.758 157.509 104.343 157.781C103.958 157.01 104.534 156.256 104.896 155.604C106.482 155.301 108.147 154.919 109.748 155.335C110.555 155.565 111.394 155.665 112.232 155.63C112.222 155.402 112.208 155.171 112.194 154.951Z" fill="#FDFDFD"/>
<path d="M168.074 155.903C169.663 155.293 171.354 154.99 173.056 155.011C174.231 155.027 175.407 154.946 176.579 155.034C177.512 155.105 178.284 155.69 178.983 156.255C179.722 156.844 180.037 157.767 180.496 158.563C180.884 159.218 181.082 159.96 181.333 160.675C181.727 161.749 181.431 162.964 180.852 163.911C180.299 164.724 179.297 164.993 178.395 165.179C178.561 164.24 178.52 163.277 178.448 162.332C178.348 160.7 177.917 158.98 176.77 157.76C176.585 157.569 176.397 157.359 176.141 157.273C175.764 157.196 175.457 157.492 175.151 157.651C175.56 158.217 176.027 158.743 176.282 159.4C176.565 160.142 177.023 160.824 177.16 161.62C177.412 162.934 177.573 164.356 177.052 165.627C176.991 165.884 176.702 165.928 176.495 166.01C175.765 166.224 175.014 166.352 174.276 166.522C174.448 165.298 174.376 164.051 174.063 162.855C173.817 162.015 173.714 161.102 173.172 160.385C172.731 159.792 172.427 159.038 171.75 158.67C171.542 158.515 171.307 158.696 171.094 158.721C171.446 159.987 172.273 161.042 172.663 162.294C173.084 163.405 173.301 164.582 173.304 165.77C172.271 165.79 171.174 165.895 170.24 165.365C169.187 164.83 167.978 164.701 166.963 164.067C166.136 163.551 165.2 163.11 164.631 162.286C164.291 161.813 164.252 161.208 164.281 160.646C164.609 159.884 164.896 159.098 165.296 158.37C165.976 157.328 166.868 156.33 168.074 155.903Z" fill="#FDFDFD"/>
<path d="M100.892 163.165C100.618 161.214 101.06 159.229 102.136 157.579C102.218 158.787 102.236 159.999 102.192 161.209C102.143 161.918 101.952 162.617 101.895 163.334C101.878 163.957 102.021 164.57 102.086 165.187C101.459 164.678 101.035 163.961 100.892 163.165Z" fill="#FDFDFD"/>
<path d="M145.658 35.7431C146.62 35.358 147.674 34.8539 148.724 35.2093C149.642 35.5336 150.616 35.8437 151.324 36.546C152.007 37.213 152.915 37.5727 153.598 38.2354C154.648 39.1403 155.738 40.0111 156.951 40.6894C157.658 41.0916 158.224 41.7288 158.981 42.0559C160.1 42.4581 161.05 43.1973 162.092 43.7552C162.854 44.3499 163.836 44.5 164.636 45.0155C165.383 45.453 166.176 45.8042 166.899 46.2743C167.499 46.6779 168.237 46.787 168.855 47.1608C170.352 48.1308 171.944 49.0116 173.16 50.3469C173.504 50.7307 173.801 51.1965 173.835 51.7191C173.976 52.9935 173.507 54.2227 172.971 55.3484C172.097 56.9259 171.274 58.56 170.033 59.8911C169.274 60.653 168.785 61.6385 167.974 62.3551C167.095 63.0829 166.539 64.1379 165.571 64.7624C164.877 65.1872 164.48 65.932 163.855 66.439C163.037 67.1385 162.148 67.7785 161.498 68.648C161.301 68.8491 161.468 69.1096 161.525 69.332C161.864 70.217 161.993 71.1728 162.061 72.1088C162.09 72.5325 162.032 72.9576 161.889 73.3576C161.747 73.7575 161.523 74.1235 161.232 74.4326C160.585 75.101 159.953 75.8132 159.161 76.3145C158.096 76.8794 157.062 77.5 156.062 78.1738C155.761 78.3565 155.804 78.7615 155.742 79.0645C155.614 80.5273 155.211 81.9462 155.007 83.3991C154.744 84.5064 154.555 85.6308 154.3 86.7409C153.852 88.3099 153.641 89.9426 153.056 91.4734C152.563 93.3143 151.671 95.0135 151.061 96.8119C150.805 97.4916 150.327 98.228 150.637 98.9686C150.849 99.518 151.074 100.063 151.297 100.61C151.491 101.135 152.027 101.377 152.406 101.743C153.089 102.421 153.395 103.364 154.013 104.095C154.56 104.756 154.821 105.606 155.395 106.249C155.864 106.847 156.558 107.19 157.191 107.582C158.499 108.51 159.779 109.5 160.826 110.726C161.75 111.815 162.694 112.939 163.19 114.299C163.5 115.068 163.942 115.79 164.112 116.61C164.245 117.257 164.348 117.91 164.44 118.564C164.699 120.277 164.317 122.049 163.531 123.578C163.286 124.113 162.824 124.5 162.454 124.938C161.928 125.537 161.181 125.868 160.5 126.238C159.707 126.677 158.82 126.895 157.996 127.259C157.321 127.55 156.621 127.78 155.905 127.944C155.809 128.444 155.684 128.938 155.53 129.424C156.379 128.869 157.401 128.735 158.3 128.291C159.981 127.673 161.518 126.723 163.227 126.179C165.054 125.69 166.949 125.505 168.835 125.631C169.401 125.675 169.945 125.864 170.484 126.039L170.439 126.247C168.884 127.082 167.515 128.221 166.145 129.33C165.503 129.824 165.107 130.554 164.506 131.09C163.976 131.57 163.658 132.223 163.216 132.778C162.614 133.526 162.146 134.372 161.833 135.279C162.148 135.857 162.657 136.294 163.057 136.811C163.829 137.776 164.479 138.833 164.991 139.958C165.334 140.684 165.416 141.494 165.669 142.255C165.988 143.21 165.99 144.229 166.17 145.213C166.371 146.25 166.48 147.303 166.497 148.359C167.184 148.764 167.843 149.209 168.554 149.58C169.114 149.891 169.615 150.299 170.034 150.783C170.627 151.435 171.59 151.654 172.05 152.436C172.475 153.06 173.04 153.845 173.904 153.764C175.37 153.756 176.91 153.655 178.287 154.247C179.719 155.016 180.96 156.251 181.529 157.797C182.048 158.934 182.451 160.12 182.732 161.337C182.839 162.43 182.466 163.511 182.025 164.495C181.666 165.316 180.815 165.687 180.07 166.073C178.732 166.769 177.235 167.04 175.784 167.395C174.143 167.581 172.468 167.738 170.825 167.476C169.634 167.334 168.493 166.956 167.316 166.748C165.49 166.23 163.749 165.452 161.909 164.974C161.147 164.754 160.282 164.56 159.772 163.9C159.24 162.889 159.159 161.718 158.751 160.662C158.154 159.277 157.886 157.719 156.991 156.475C156.562 155.898 156.177 155.29 155.84 154.655C155.4 153.776 154.644 153.123 154.002 152.399C153.353 151.678 152.644 151.015 151.881 150.417C151.341 149.992 150.884 149.425 150.204 149.223C149.349 148.94 148.649 148.301 147.76 148.133C147.155 148.004 146.543 147.818 145.922 147.886C144.838 147.985 143.739 148.185 142.774 148.715C141.992 149.146 141.135 149.462 140.442 150.041C139.948 150.451 139.422 150.82 138.867 151.143C137.784 151.744 136.739 152.408 135.695 153.068C135.051 153.492 134.281 153.604 133.599 153.944C133.034 154.227 132.42 154.414 131.828 154.641C130.717 155.104 129.522 155.302 128.351 155.551C128.158 155.601 127.94 155.638 127.801 155.798C127.198 156.435 126.796 157.231 126.225 157.895C125.792 158.415 125.6 159.074 125.289 159.665C124.483 161.012 124.314 162.607 123.97 164.109C123.609 164.444 123.069 164.485 122.623 164.661C120.926 165.271 119.107 165.51 117.434 166.218C116.76 166.502 116.02 166.39 115.313 166.254C114.69 166.112 114.162 166.557 113.631 166.803C112.572 167.397 111.333 167.463 110.154 167.608C108.673 167.657 107.137 167.632 105.739 167.075C104.153 166.621 102.465 166.459 100.97 165.71C100.255 165.265 99.9722 164.392 99.8082 163.609C99.5579 162.487 99.5141 161.3 99.828 160.186C100.051 159.413 100.224 158.607 100.647 157.91C101.031 157.263 101.451 156.636 101.888 156.029C102.205 155.57 102.736 155.369 103.206 155.098C105.781 153.531 109.152 153.556 111.83 154.872C111.078 154.396 110.324 153.913 109.467 153.647C108.242 153.086 107.073 152.411 105.974 151.63C105.394 151.213 104.71 150.948 104.192 150.446C103.37 149.659 102.414 149.03 101.595 148.233C100.659 147.283 99.6894 146.357 98.8751 145.293C98.4509 144.727 97.8642 144.302 97.5574 143.651C97.0923 142.61 96.285 141.779 95.7803 140.762C95.1271 139.782 94.8302 138.638 94.2689 137.606C93.8448 136.576 93.4207 135.541 93.0502 134.49C91.9192 134.731 90.815 135.118 89.6571 135.096C88.3847 135.085 87.0543 135.222 85.8399 134.752C85.133 134.495 84.2974 134.241 83.9143 133.529C83.5267 132.808 83.183 132.065 82.885 131.303C82.5881 130.559 82.5174 129.754 82.386 128.971C81.7356 128.769 81.0216 128.632 80.4957 128.17C79.9783 127.656 79.9669 126.88 79.8637 126.206C79.8001 125.443 79.5273 124.707 79.5485 123.941C79.6477 122.996 80.0302 122.103 80.6456 121.379C80.2483 120.794 79.8581 120.158 79.8355 119.429C79.786 118.466 79.8553 117.403 80.4971 116.628C80.9736 116.031 81.4514 115.416 82.0523 114.942C82.9289 114.447 83.9256 114.234 84.8643 113.888C85.4044 112.724 85.4949 111.403 85.9134 110.194C86.1778 108.925 86.5564 107.684 87.0444 106.484C87.2466 106.018 87.4049 105.536 87.5647 105.056C85.7847 105.481 83.8634 105.499 82.1442 104.824C81.4642 104.471 80.7615 104.158 80.1041 103.768C78.6903 102.697 77.2058 101.644 76.2727 100.096C75.4103 98.9629 74.8928 97.6063 74.6242 96.2129C74.1421 94.7048 74.1421 93.0948 74.1987 91.5215C74.2594 90.7158 74.4814 89.9341 74.6482 89.1482C75.0102 87.3074 76.6488 86.2 77.8519 84.9156C77.2864 84.4908 76.7548 84.0193 76.1455 83.6554C75.7088 83.4057 75.344 83.0471 75.0865 82.6146C74.4913 81.5355 73.9781 80.3475 74.0007 79.0815C74.094 77.3822 74.6694 75.5938 76.0338 74.4935C77.555 73.321 79.4142 72.63 81.3072 72.3694C82.0141 72.2703 82.8186 72.317 83.3657 71.786C83.6485 71.3994 83.6273 70.8854 83.5792 70.4308C83.3728 68.7316 83.1551 67.0394 83.1862 65.333C83.2357 64.4607 82.4058 63.9 82.2573 63.0857C82.5019 61.7561 83.3148 60.5878 84.378 59.775C85.01 59.3502 85.6504 58.8772 86.4068 58.7285C87.0826 58.5869 87.7683 58.5062 88.4427 58.3519C89.749 58.0687 91.095 58.0772 92.4112 57.8534C94.1205 57.6198 95.8481 57.5801 97.5687 57.4767C98.0155 57.4881 98.2756 57.0519 98.4283 56.6923C99.3077 54.4889 99.4774 52.1071 99.9694 49.8159C100.203 48.8247 100.15 47.7938 100.28 46.7855C100.369 45.2647 100.577 43.7552 100.757 42.2428C100.829 41.7104 100.973 41.0732 101.491 40.8013C102.076 40.4756 102.763 40.6597 103.378 40.8013C104.57 41.1329 105.714 41.6154 106.784 42.2372C107.424 42.6124 108.169 42.7696 108.782 43.1987C109.457 43.6631 110.18 44.0483 110.871 44.4944C111.403 44.8314 112.015 45.0225 112.525 45.3964C113.14 45.8127 113.665 46.3777 114.363 46.6708C114.915 46.9073 115.523 46.7799 116.098 46.7445C117.065 46.6807 117.968 46.3041 118.91 46.1072C120.706 45.6385 122.545 45.3737 124.359 44.9744C125.921 44.6522 127.503 44.4412 129.095 44.3428C130.147 44.391 131.195 44.5114 132.244 44.6034C134.193 44.8385 136.031 45.5578 137.87 46.2064C138.305 44.9843 139.047 43.9095 139.676 42.7838C140.273 41.9016 140.63 40.8749 141.337 40.0664C142.12 39.1516 142.696 38.0471 143.668 37.3065C144.32 36.7726 144.843 36.0433 145.658 35.7431ZM147.377 43.2879C147.045 44.0285 146.953 44.8455 146.821 45.6414C146.663 46.828 146.346 47.9878 146.22 49.1815C146.068 50.6471 145.931 52.1141 145.854 53.5854C145.854 53.9224 145.816 54.3005 146.045 54.5767C146.732 55.4886 147.774 56.0564 148.436 56.9925C149.376 58.3235 150.548 59.5938 150.907 61.2321C151.088 61.8892 150.605 62.4315 150.296 62.9569C150.947 62.8041 151.579 62.5834 152.184 62.2984C152.625 60.4575 152.489 58.5629 152.529 56.6908C152.556 55.3088 152.353 53.9409 152.206 52.5715C152.085 51.4132 151.714 50.3058 151.419 49.1843C151.167 48.3517 151.075 47.4681 150.694 46.6779C150.199 45.6527 149.72 44.6204 149.22 43.598C149.01 43.2199 148.752 42.7484 148.272 42.7087C147.882 42.6577 147.518 42.9381 147.377 43.2879ZM120.116 47.8334C119.275 48.3814 118.326 48.7439 117.508 49.3274C117.083 49.6191 116.659 49.8938 116.252 50.2025C115.737 50.5791 115.312 51.0705 114.746 51.3764C114.263 51.6264 113.823 51.9529 113.443 52.3435C112.624 53.2371 111.495 53.7794 110.727 54.7239C110.085 55.4985 109.241 56.0678 108.594 56.8367C108.073 57.4201 107.513 57.9695 106.979 58.536C107.625 58.7526 108.319 58.9353 108.827 59.421C109.556 60.0157 110.024 60.847 110.656 61.5352C111.031 61.3043 111.424 61.1033 111.794 60.8654C112.36 60.483 112.65 59.8331 112.962 59.2482C113.451 58.2655 113.994 57.2884 114.762 56.4912C115.504 55.7831 115.831 54.7523 116.656 54.1221C116.52 54.7 116.319 55.2605 116.057 55.7931C115.483 56.8282 115.081 57.961 114.341 58.8971C116.095 58.2004 118.005 58.0602 119.788 57.447C119.342 56.2859 119.324 55.0039 119.736 53.8304C120.072 52.9723 120.147 52.0136 120.666 51.2319C121.09 50.5593 121.459 49.847 121.889 49.1758C122.856 47.9481 124.041 46.9215 125.172 45.8509C123.474 46.4797 121.646 46.8153 120.116 47.8334ZM104.988 49.5327C104.363 50.8576 104.075 52.3172 104.151 53.7808C104.708 53.703 105.282 53.6874 105.817 53.4835C106.333 53.2229 106.692 52.733 106.972 52.2416C107.173 51.9485 106.972 51.6086 106.881 51.3141C106.508 50.4135 106.329 49.4024 105.626 48.6774C105.383 48.937 105.171 49.2241 104.994 49.5327H104.988ZM160.525 51.0903C160.104 51.15 159.721 51.3688 159.455 51.7021C158.771 52.6154 158.24 53.6846 158.183 54.8457C158.13 55.8766 158.003 57.008 158.506 57.9525C159.183 58.8248 160.162 59.6107 161.314 59.6362C162.495 59.7127 163.78 59.4578 164.668 58.6266C165.188 58.1579 165.755 57.7345 166.2 57.1893C167.128 56.0692 167.638 54.6574 167.866 53.2342C167.926 52.6919 167.791 51.9598 167.194 51.7842C166.197 51.3962 165.112 51.3976 164.074 51.1965C162.912 50.9742 161.701 50.8199 160.525 51.0903ZM96.6752 58.0545C94.8528 61.1103 93.1054 64.2172 91.3452 67.3127C90.8475 68.209 90.2848 69.0728 89.8706 70.0145C90.5181 70.0825 91.1939 70.132 91.8075 69.8729C92.5498 69.6761 92.7321 68.8307 93.1817 68.3053C93.9169 67.392 94.3877 66.3115 95.0197 65.3316C96.2751 63.4129 97.4231 61.429 98.6828 59.5074C98.9104 59.1236 99.2483 58.6747 99.0433 58.2088C98.8581 57.9865 98.5428 58.0106 98.2841 57.9851C97.7525 57.978 97.1997 57.9341 96.6752 58.0545ZM93.3075 58.3873C93.0319 58.5912 92.8905 58.9183 92.7265 59.21C91.2835 62.0553 89.8254 64.8922 88.3522 67.7205C87.8468 68.5429 87.4724 69.4392 87.2424 70.377C87.7513 70.3274 88.3282 70.4223 88.7806 70.1448C89.0223 69.703 89.1637 69.2144 89.4139 68.7769C91.4281 65.2311 93.4414 61.6843 95.4537 58.1366C94.7355 58.0842 93.9636 58.0375 93.3075 58.3873ZM125.411 58.7229C125.037 58.771 124.613 58.6931 124.28 58.9098C124.029 59.4904 123.918 60.129 123.591 60.6784C122.884 61.7674 122.064 62.8025 121.557 64.0118C121.25 64.6654 120.866 65.2796 120.413 65.8414C119.928 66.4744 119.733 67.2787 119.22 67.8947C118.475 68.8813 117.82 69.9329 117.263 71.0369C116.482 72.0624 115.819 73.1719 115.284 74.3448C115.849 75.2879 116.521 76.1857 117.435 76.8271C117.86 76.0044 118.309 75.2001 118.79 74.4114C119.142 73.8251 119.567 73.2785 119.847 72.6554C120.242 71.769 120.902 71.0397 121.356 70.1858C121.912 69.3192 122.337 68.3719 122.973 67.5576C123.539 66.817 123.894 65.9448 124.407 65.1688C124.813 64.4983 125.253 63.8498 125.727 63.2259C126.224 62.593 126.372 61.7617 126.887 61.1401C127.533 60.3116 128.101 59.4246 128.583 58.4906C127.523 58.5345 126.467 58.6266 125.411 58.7229ZM121.559 59.193C121.33 59.901 121.028 60.5878 120.534 61.1486C119.857 61.9345 119.536 62.9441 118.92 63.7697C118.441 64.4087 118.028 65.0947 117.687 65.8173C117.171 66.8992 116.317 67.7672 115.771 68.8278C115.258 69.8828 114.629 70.8755 114.017 71.8752C114.239 72.351 114.392 72.8891 114.787 73.2558C115.613 72.0692 116.126 70.6786 117.076 69.5741C117.623 68.9539 117.885 68.1481 118.378 67.4897C119.01 66.6061 119.77 65.7904 120.202 64.7836C120.549 63.9127 121.253 63.2514 121.616 62.389C122.07 61.1514 122.951 60.146 123.554 58.9834C122.883 59.033 122.223 59.1321 121.559 59.193ZM83.7248 62.0818C83.4421 62.5264 83.4774 63.0645 83.4873 63.5658C84.3885 62.4506 85.2096 61.2727 85.9445 60.0412C85.1584 60.66 84.2281 61.1826 83.7248 62.0818ZM150.411 66.4319C149.845 67.1045 149.164 67.7148 148.873 68.5673C148.533 69.5288 147.883 70.3614 147.682 71.3711C147.303 72.9443 146.881 74.5303 146.048 75.9336C145.624 76.905 144.775 77.5734 144.069 78.3409C142.102 79.5261 139.836 80.0841 137.585 80.4154C134.928 80.9365 132.212 80.9818 129.515 80.962C128.415 80.9507 127.311 81.0087 126.217 80.8714C124.859 80.8119 123.492 80.7581 122.158 80.482C121.707 81.013 121.274 81.6502 120.566 81.8499C119.033 82.3993 117.257 82.4729 115.807 81.646C116.69 81.5327 117.599 81.5638 118.453 81.2721C119.043 81.1305 119.508 80.7227 119.911 80.2922C119.133 79.8235 118.237 79.6012 117.479 79.0985C116.874 78.7048 116.173 78.457 115.641 77.9572C115.007 77.3121 114.413 76.6293 113.861 75.9124C113.348 75.2681 113.167 74.4439 112.822 73.7104C112.257 72.2519 111.994 70.6985 111.786 69.155C111.748 67.7389 111.479 66.2917 110.711 65.0795L110.57 65.1603C109.935 66.446 109.48 67.8508 108.523 68.9525C107.908 69.5968 106.968 69.6392 106.146 69.7724C104.133 70.0754 102.096 69.8701 100.067 69.9579C100.705 70.1115 101.333 70.3069 101.946 70.5427C103.532 71.2507 105.116 72.1556 106.135 73.6099C107.037 74.6606 107.744 75.9563 107.805 77.3667C107.846 78.348 107.912 79.3364 107.779 80.3135C107.437 79.0702 107.273 77.7575 106.648 76.6105C106.338 76.1022 106.059 75.5759 105.811 75.0344C105.439 74.1848 104.626 73.6608 103.888 73.1539C103.3 72.7326 102.677 72.3626 102.025 72.048C101 71.5183 99.8464 71.3399 98.7634 70.976C97.8264 70.6769 96.8485 70.5269 95.8651 70.5314C93.8462 70.4521 91.833 70.7055 89.8409 71.0072C88.8626 71.1488 87.9252 71.473 86.9511 71.6345C85.8738 71.8455 84.7866 72.0777 83.7941 72.5634C86.1099 72.6866 88.3762 73.2417 90.6128 73.8237C92.4338 74.2896 94.0964 75.1859 95.8439 75.8557C96.8576 76.3329 97.8374 76.8937 98.8963 77.2718C99.4123 77.4474 99.9991 77.4134 100.474 77.7108C100.747 77.9499 100.965 78.2462 101.111 78.5787C101.258 78.9112 101.33 79.2718 101.322 79.6352C101.414 81.0917 101.057 82.5413 100.297 83.787C99.6612 84.8972 99.0829 86.1009 98.0523 86.9024C97.4175 87.3895 96.8067 87.98 95.9966 88.1485C95.2487 88.3128 94.5149 88.5535 93.7515 88.637C91.9545 88.9202 90.094 88.5535 88.3338 89.0888C87.8832 89.1971 87.4602 89.3987 87.092 89.6807C86.7239 89.9626 86.4187 90.3186 86.1961 90.7257C85.6575 92.3244 85.0934 94.0365 85.4299 95.7385C85.3125 96.9082 85.2701 98.1458 85.7352 99.2532C86.1594 100.133 86.7164 101.008 87.5633 101.536C88.5727 102.2 89.6161 102.81 90.6736 103.385C91.4427 103.862 92.3518 103.97 93.1959 104.252C94.4683 104.704 95.81 104.844 97.1319 105.042C100.101 105.437 103.109 105.052 105.965 104.219C106.747 103.974 107.587 103.936 108.345 103.61C109.128 103.269 109.907 102.915 110.683 102.557C112.071 101.942 113.552 101.483 114.783 100.563C115.677 99.8748 116.745 99.4514 117.595 98.7052C118.472 97.9292 119.453 97.2721 120.243 96.4013C121.571 95.182 122.814 93.875 124.069 92.5779C124.719 91.9478 125.438 91.3771 125.972 90.6379C126.97 90.0276 127.96 89.3932 129.016 88.8863C130.626 88.3 132.456 88.0225 134.106 88.6342C135.106 88.933 135.73 89.8308 136.433 90.5402C137.605 92.0228 138.039 93.9387 138.2 95.7924C138.242 97.1886 138.261 98.5976 137.988 99.9754C137.771 101.05 137.675 102.203 137.065 103.146C137.848 103.905 138.852 104.405 139.544 105.26C140.014 105.827 140.646 106.234 141.126 106.794C141.442 107.155 141.774 107.502 142.105 107.85C142.684 105.947 143.425 104.099 144.004 102.196C144.225 101.481 144.527 100.788 144.678 100.052C145.243 99.1215 145.414 98.0283 145.762 97.0102C146.383 94.7671 146.823 92.4788 147.327 90.2131C147.985 86.6531 148.83 83.1328 149.411 79.5615C149.835 77.5125 150.118 75.4366 150.564 73.3932C150.72 72.1556 151.088 70.9548 151.174 69.7115C151.307 68.0872 151.939 66.5452 151.983 64.9096C151.41 65.364 150.884 65.8739 150.411 66.4319ZM78.4938 74.2768C77.5677 74.6408 76.9471 75.4564 76.2317 76.1177C75.7009 76.5824 75.3597 77.2267 75.2731 77.9274C75.1728 78.787 75.0738 79.7286 75.4357 80.5386C76.0012 80.5061 76.5441 80.3276 77.0984 80.2257C76.7774 79.8886 76.2501 79.6012 76.2769 79.073C76.2502 78.4238 76.3625 77.7764 76.6064 77.1743C76.8502 76.5723 77.22 76.0295 77.6907 75.5824C78.703 74.7016 79.9528 74.1664 81.1927 73.7076C80.2709 73.7697 79.3624 73.9614 78.4938 74.2768ZM79.7789 82.4531C79.5131 83.5761 79.1639 84.6862 78.5899 85.6945C78.1841 86.3034 78.8925 86.8599 79.1752 87.3583C79.8623 85.9253 80.5989 84.4724 80.9114 82.8949C81.0047 81.7961 81.0047 80.6731 80.7587 79.5913C80.4363 80.5443 80.0023 81.4647 79.7789 82.4531ZM99.5834 79.621C99.4157 79.9764 99.3524 80.3723 99.401 80.7624C99.4873 81.6757 99.6555 82.5763 99.7912 83.4826C100.215 82.5353 100.596 81.5313 100.603 80.482C100.517 80.009 100.156 79.3137 99.5905 79.6154L99.5834 79.621ZM87.7146 82.6939C88.3479 83.9952 89.3376 85.1691 90.6496 85.8177C91.0298 85.9833 91.4452 86.0512 91.8582 86.0154C92.2713 85.9795 92.6688 85.841 93.0149 85.6123C91.8909 84.6976 90.4503 84.1467 89.6076 82.9148C89.052 82.0127 88.6675 81.0187 88.2985 80.0288C87.9563 80.8586 87.2749 81.772 87.7146 82.6939ZM75.9023 87.8115C75.6337 88.2575 75.3014 88.7149 75.3057 89.2601C75.3057 90.0248 75.1558 90.7753 75.0597 91.5258C74.9542 92.793 74.9983 94.0682 75.1911 95.3251C75.4258 96.5655 76.1002 97.6431 76.6304 98.7703C77.0687 99.6044 77.736 100.287 78.4245 100.917C79.0706 101.498 79.6856 102.111 80.3416 102.68C81.098 103.326 82.0876 103.567 83.0137 103.857C84.7626 104.396 86.6641 104.272 88.3861 103.707C87.7824 103.166 87.1462 102.664 86.5199 102.149C85.7178 101.485 85.0445 100.679 84.5335 99.7715C84.1772 99.147 84.0769 98.4248 84.0076 97.721C84.1405 96.1973 83.9355 94.6482 84.0938 93.1203C84.2168 92.4306 84.4049 91.7552 84.5406 91.0684C83.5509 90.1989 82.1937 90.2103 81.0061 89.8024C80.3063 89.5872 79.6898 89.1808 79.0791 88.7886C78.4683 88.3963 77.7487 88.1839 77.2991 87.6019C77.0164 87.2649 77.0404 86.7976 76.9923 86.3855C76.5892 86.829 76.2246 87.306 75.9023 87.8115ZM133.187 96.3644C133.166 96.878 133.148 97.3925 133.133 97.9079C133.122 98.8581 132.881 99.787 132.825 100.74C133.262 101 133.716 101.231 134.185 101.43C134.93 101.713 135.586 102.176 136.293 102.537C136.956 100.598 137.015 98.5197 136.898 96.4933C136.867 95.8901 136.615 95.3364 136.342 94.8068C135.36 95.4511 134.35 96.0982 133.187 96.3644ZM119.027 99.1442C118.153 99.6714 117.307 100.244 116.492 100.86C115.114 101.785 113.604 102.493 112.145 103.285C110.434 104.211 108.446 104.375 106.686 105.175C105.551 105.661 104.361 106.009 103.143 106.212C103.007 106.561 102.895 106.919 102.805 107.284C102.759 107.774 103.026 108.258 102.886 108.748C102.579 109.902 102.292 111.069 102.231 112.268C101.937 113.346 101.939 114.498 101.448 115.525C101.102 116.547 100.297 117.291 99.6696 118.136C99.2299 118.737 98.5457 119.065 97.9137 119.411C98.3463 119.986 98.762 120.647 98.6772 121.405C98.6856 122.193 97.9024 122.716 97.8996 123.502C97.8769 124.312 97.9688 125.122 97.942 125.933C97.9055 126.876 97.9757 127.821 98.1512 128.748C98.4594 130.198 98.6376 131.689 99.2158 133.069C99.6767 134.078 99.8817 135.203 100.518 136.132C101.018 137.133 101.701 138.039 102.11 139.087C102.346 139.697 102.899 140.088 103.278 140.602C103.722 141.192 104.059 141.876 104.626 142.362C105.526 143.164 106.273 144.132 107.263 144.829C108.031 145.376 108.654 146.118 109.51 146.528C111.151 147.432 112.73 148.543 114.582 148.972C116.343 149.554 118.185 149.934 120.045 149.924C122.109 149.911 124.229 150.036 126.225 149.406C127.045 149.122 127.878 148.877 128.696 148.594C129.969 148.019 131.172 147.32 132.412 146.677C133.392 146.187 134.138 145.356 135.078 144.803C135.809 144.379 136.29 143.658 136.899 143.09C137.374 142.665 137.793 142.181 138.145 141.648C138.698 140.783 139.454 140.037 139.799 139.05C140.322 137.584 140.902 136.119 141.088 134.563C141.208 133.615 141.483 132.64 141.286 131.688C140.914 131.252 140.328 131.062 139.978 130.6C139.656 130.162 139.358 129.706 139.085 129.235C138.538 128.339 138.582 127.222 138.771 126.228C138.879 125.602 139.28 125.054 139.324 124.418C139.023 123.993 138.583 123.67 138.295 123.228C137.923 122.695 137.788 122.036 137.76 121.397C137.731 120.704 137.76 119.974 138.083 119.344C138.405 118.714 138.944 118.231 139.427 117.723C138.92 117.287 138.382 116.842 138.092 116.223C137.696 115.363 137.542 114.41 137.65 113.469C137.694 113.017 137.825 112.571 137.791 112.115C137.61 111.63 137.155 111.329 136.787 110.994C136.113 110.443 135.6 109.719 134.901 109.198C134.074 108.504 133.196 107.872 132.275 107.308C131.285 106.648 130.287 105.994 129.164 105.599C127.195 104.749 125.173 103.935 123.021 103.741C121.699 103.741 120.38 103.619 119.063 103.69C117.021 103.782 114.95 103.752 112.949 104.221C111.98 104.514 110.986 104.746 110.054 105.151L109.965 104.684C111.633 104.243 113.371 103.926 114.898 103.082C115.581 102.764 116.354 102.792 117.081 102.649C118.165 102.435 119.272 102.516 120.368 102.553C121.241 102.66 122.122 102.567 122.997 102.65C124.722 102.774 126.383 103.276 128.016 103.814C129.515 104.267 130.818 105.164 132.22 105.838C133.237 106.326 133.992 107.199 134.972 107.747C135.77 108.197 136.253 109.008 136.951 109.578C137.54 110.053 137.955 110.692 138.307 111.353C138.777 110.981 139.255 110.618 139.711 110.228C140.277 109.75 140.953 109.44 141.618 109.134C141.274 108.686 140.885 108.274 140.458 107.904C139.844 107.386 139.437 106.668 138.794 106.182C137.893 105.533 137.131 104.712 136.201 104.099C134.894 103.21 133.666 102.152 132.159 101.614C131.538 101.38 130.991 100.996 130.389 100.724C129.194 100.198 127.941 99.8281 126.704 99.4217C125.616 99.0351 124.442 99.0252 123.311 98.8553C122.389 98.7604 121.435 98.5253 120.522 98.7746C120.016 98.8525 119.481 98.8822 119.027 99.1442ZM89.3843 104.051C89.0647 104.68 88.7773 105.324 88.5218 105.984C88.2631 106.713 88.0214 107.448 87.7386 108.169C86.9794 109.919 86.5623 111.791 86.1834 113.652C87.0769 113.687 87.9761 113.618 88.8696 113.73C89.8862 113.857 90.8221 114.313 91.6859 114.843C92.1287 115.097 92.4867 115.476 92.7152 115.933C93.07 116.641 93.0121 117.461 93.2892 118.189C93.5804 118.655 94.17 118.844 94.6945 118.861C95.3576 118.827 96.0305 118.837 96.6837 118.72C97.4783 118.25 98.171 117.624 98.9175 117.081C99.3106 116.801 99.6071 116.405 99.7658 115.948C100.135 114.994 100.666 114.072 100.743 113.031C100.98 112.607 100.931 112.094 100.975 111.624C101.059 111.434 101.144 111.246 101.232 111.057C101.594 109.5 101.959 107.929 101.896 106.324C100.6 106.241 99.3006 106.375 98.0028 106.275C97.0739 106.205 96.1493 106.072 95.2204 105.992C94.9857 105.937 94.751 105.885 94.5135 105.832L94.5489 105.768C92.701 105.584 91.1232 104.558 89.3843 104.051ZM143.533 109.538C142.462 109.745 141.593 110.427 140.617 110.865C139.959 111.162 139.642 111.848 139.204 112.373C138.89 112.823 138.606 113.327 138.63 113.897C138.563 114.724 139.047 115.436 139.462 116.104C139.707 116.474 139.971 116.89 140.415 117.037C141.211 116.937 141.773 116.295 142.484 115.99C143.041 115.78 143.651 115.848 144.233 115.896C144.542 116.055 144.729 116.369 144.951 116.625C144.177 116.787 143.369 116.882 142.673 117.285C141.558 117.89 140.35 118.459 139.577 119.508C138.76 120.246 138.604 121.557 139.178 122.482C139.602 123.169 140.111 123.885 140.906 124.156C141.693 124.437 142.537 124.523 143.364 124.405C144.416 124.237 145.095 123.23 146.175 123.131C146.003 124.051 145.026 124.3 144.395 124.83C143.872 125.263 143.234 125.504 142.643 125.821C141.867 125.715 141.102 125.532 140.362 125.275C140.134 125.791 139.919 126.328 139.902 126.902C139.86 127.656 139.823 128.506 140.316 129.135C140.81 129.764 141.467 130.268 142.116 130.741C142.765 131.214 143.575 131.279 144.31 131.524C145.836 132.002 147.429 132.318 149.034 132.232C150.258 132.232 151.376 131.685 152.493 131.256C153.384 130.937 153.907 130.099 154.473 129.395C155.375 128.285 155.585 126.695 155.161 125.348C154.959 124.436 154.03 124.019 153.446 123.366C153.887 122.479 154.847 122.028 155.293 121.148C155.833 120.175 155.881 119.001 155.717 117.924C155.411 116.681 154.2 116.001 153.097 115.569C153.725 114.259 153.887 112.683 153.302 111.329C153.111 110.865 152.612 110.672 152.216 110.424C150.703 109.518 148.961 109.068 147.199 109.126C145.963 109.117 144.708 109.115 143.536 109.541L143.533 109.538ZM82.0749 116.654C81.4538 117.345 81.0759 118.222 80.999 119.149C81.2153 119.932 81.7314 120.592 82.1682 121.273C81.9081 121.756 81.6536 122.25 81.2775 122.656C80.8619 123.117 80.5325 123.748 80.729 124.383C80.7983 124.851 81.1955 125.142 81.5433 125.411C81.3284 125.82 80.9524 126.26 81.1333 126.753C81.3897 127.088 81.6942 127.383 82.0367 127.628C82.6447 127.95 83.3657 127.77 84.0161 127.911C84.3158 127.998 84.238 128.383 84.3271 128.619L83.64 129.044C83.575 130.426 84.0557 131.766 84.8276 132.894C85.1697 133.363 85.7692 133.526 86.3008 133.7C88.3663 134.289 90.5733 134.044 92.6091 133.445C93.3754 133.219 94.0017 132.661 94.457 132.019C95.0098 131.204 94.7864 130.178 94.8415 129.252C94.4697 128.411 94.0173 127.484 93.0983 127.138C92.3914 126.872 91.635 127.189 90.9295 127.329C90.1816 127.546 89.3899 127.545 88.6477 127.777C88.348 127.998 88.1135 128.296 87.969 128.639C87.9068 128.033 87.6269 127.284 88.0892 126.774C88.5727 126.451 89.1877 126.466 89.7363 126.327C90.4756 126.166 91.1668 125.833 91.7538 125.355C92.4324 124.853 92.6968 123.905 92.4791 123.104C92.2811 122.121 91.4145 121.44 90.5521 121.041C89.3761 120.591 88.0936 120.501 86.8663 120.78C86.2046 120.922 85.5119 120.967 84.8587 120.755C85.3648 120.299 85.8908 119.827 86.5439 119.598C87.7428 119.234 89.0266 119.296 90.2382 119.568C90.6623 119.636 91.2816 119.79 91.5106 119.285C92.0761 117.937 91.7566 116.041 90.3654 115.32C89.2019 114.847 87.9181 114.753 86.6754 114.817C85.0086 114.936 83.2653 115.42 82.0749 116.654ZM92.9216 119.687C92.6812 120.064 92.5526 120.565 92.7703 120.983C93.07 121.589 93.5253 122.137 93.6186 122.823C93.8335 123.802 93.5069 124.786 93.0898 125.656C93.8971 126.09 94.915 126.429 95.2699 127.366C95.6728 128.38 96.2044 129.443 96.0136 130.566C95.8029 131.781 95.2501 133.019 94.1756 133.706C94.6959 134.909 94.932 136.211 95.3971 137.434C95.8679 138.355 96.3274 139.291 96.9212 140.142C97.3595 140.78 97.5475 141.558 97.9886 142.191C99.0815 143.591 100.058 145.099 101.372 146.313C101.993 146.871 102.503 147.546 103.153 148.067C104.238 148.917 105.292 149.798 106.392 150.625C107.05 151.095 107.846 151.312 108.528 151.741C109.792 152.507 111.121 153.201 112.576 153.514C114.751 154.275 117.034 154.654 119.321 154.859C120.597 154.89 121.872 154.89 123.149 154.859C124.973 154.719 126.775 154.372 128.521 153.825C129.439 153.531 130.406 153.358 131.267 152.906C132.371 152.354 133.445 151.745 134.575 151.244C135.514 150.819 136.164 149.969 137.08 149.517C137.969 149.093 138.659 148.363 139.404 147.732C140.069 147.123 140.804 146.588 141.384 145.891C142.224 144.89 143.039 143.867 143.879 142.865C144.521 142.099 144.869 141.14 145.451 140.334C146.362 139.06 146.83 137.538 147.459 136.115C147.812 135.295 148.096 134.448 148.307 133.581C147.025 133.298 145.717 133.156 144.449 132.804C144.102 134.053 143.9 135.384 143.151 136.474C142.598 137.315 142.248 138.27 141.678 139.101C141.104 140.019 140.311 140.773 139.74 141.694C139.249 142.508 138.392 142.998 137.883 143.795C137.597 144.215 137.218 144.564 136.776 144.813C136.086 145.238 135.652 145.962 134.965 146.391C133.804 147.172 132.603 147.909 131.412 148.657C130.848 148.988 130.24 149.238 129.605 149.397C128.703 149.659 127.883 150.132 126.997 150.432C125.79 150.765 124.547 150.952 123.296 150.989C119.566 151.261 115.646 151.023 112.251 149.314C111.464 148.994 110.652 148.717 109.945 148.235C109.063 147.725 108.323 147.011 107.441 146.504C106.487 145.976 105.886 145.017 104.99 144.41C104.093 143.802 103.62 142.776 102.803 142.079C102.227 141.571 101.973 140.83 101.546 140.215C100.717 139.153 99.9665 138.012 99.4943 136.743C99.0815 135.874 98.6093 135.03 98.3096 134.111C97.5659 132.424 97.3199 130.581 97.0584 128.772C96.8958 126.842 96.6653 124.895 96.917 122.966C96.9891 122.355 97.4217 121.865 97.5376 121.267C97.5604 121.03 97.5122 120.79 97.3992 120.58C97.2862 120.37 97.1134 120.198 96.9028 120.086C96.2044 119.661 95.359 119.821 94.5856 119.79C94.03 119.779 93.4772 119.615 92.9216 119.691V119.687ZM141.873 132.164C141.78 133.683 141.672 135.201 141.396 136.695C142.009 135.845 142.347 134.843 142.916 133.968C143.172 133.542 143.385 133.091 143.551 132.623C143.003 132.433 142.442 132.281 141.873 132.168V132.164ZM112.193 154.951C112.207 155.175 112.221 155.401 112.235 155.628C111.397 155.663 110.559 155.563 109.751 155.333C108.148 154.917 106.486 155.299 104.899 155.602C104.325 155.724 103.787 155.976 103.326 156.339C102.887 156.697 102.36 157.03 102.138 157.575C101.061 159.225 100.617 161.211 100.891 163.164C101.037 163.957 101.462 164.671 102.089 165.178C102.024 164.56 101.881 163.947 101.898 163.324C101.954 162.616 102.145 161.918 102.195 161.2C102.854 160.022 103.572 158.878 104.346 157.773C104.761 157.501 105.195 157.258 105.643 157.045C105.685 157.26 105.926 157.511 105.75 157.724C104.515 159.243 103.317 160.89 102.841 162.821C102.592 163.559 102.77 164.395 103.196 165.029C104.082 165.583 105.144 165.755 106.155 165.951C106.063 164.593 106.013 163.219 106.237 161.873C106.334 161.216 106.394 160.515 106.802 159.962C107.06 159.611 107.28 159.22 107.608 158.93C108.094 158.664 108.683 158.716 109.196 158.873C109.337 159.023 109.151 159.12 109.054 159.223C108.534 159.705 107.947 160.178 107.703 160.869C107.163 162.306 107.175 163.872 107.269 165.382C107.325 165.69 107.317 166.077 107.581 166.293C108.263 166.414 108.961 166.383 109.651 166.386C111.396 166.394 113.013 165.634 114.548 164.887C115.076 164.668 115.255 164.096 115.397 163.593C115.619 164.018 115.8 164.474 116.155 164.802C116.437 165.07 116.84 165.086 117.202 165.047C117.444 164.824 117.409 164.468 117.437 164.171C117.464 162.888 117.503 161.584 117.189 160.328C117.013 159.659 116.511 159.154 116.166 158.572C115.637 157.766 115.318 156.831 114.663 156.106C114.054 155.363 113.002 155.363 112.193 154.951ZM168.073 155.902C166.867 156.327 165.975 157.327 165.29 158.369C164.89 159.097 164.603 159.883 164.275 160.645C164.133 161.384 163.955 162.133 164.003 162.894C164.036 163.408 164.068 163.922 164.078 164.438C165.068 164.944 166.154 165.146 167.188 165.492C168.093 165.76 169.042 165.86 169.941 166.159C170.802 166.461 171.72 166.568 172.627 166.472C173.01 166.461 173.111 166.033 173.286 165.764C173.283 164.576 173.066 163.398 172.646 162.287C172.255 161.036 171.428 159.981 171.076 158.715C171.29 158.689 171.525 158.508 171.732 158.664C172.41 159.032 172.714 159.785 173.155 160.379C173.696 161.095 173.799 162.008 174.045 162.848C174.358 164.045 174.431 165.291 174.259 166.516C174.997 166.346 175.748 166.217 176.477 166.003C176.685 165.921 176.973 165.877 177.034 165.621C177.556 164.346 177.395 162.93 177.143 161.613C177.002 160.818 176.553 160.135 176.265 159.393C176.015 158.736 175.548 158.204 175.134 157.644C175.445 157.486 175.752 157.19 176.124 157.266C176.38 157.353 176.568 157.562 176.753 157.753C177.899 158.974 178.331 160.693 178.431 162.326C178.503 163.27 178.544 164.233 178.377 165.172C179.285 164.986 180.282 164.717 180.834 163.905C181.414 162.957 181.71 161.742 181.315 160.669C181.065 159.961 180.867 159.212 180.478 158.556C180.02 157.76 179.705 156.837 178.965 156.248C178.258 155.682 177.489 155.098 176.562 155.027C175.39 154.94 174.214 155.027 173.039 155.005C171.342 154.988 169.657 155.292 168.073 155.902Z" fill="#12131A"/>
<path d="M105.388 87.4388C105.992 87.2321 106.66 87.4077 107.213 87.6739C107.839 87.9911 107.954 88.7727 107.961 89.4043C108.053 90.4763 107.053 91.3542 106.052 91.4604C105.101 91.4604 104.141 90.6745 104.114 89.6875C104.101 89.199 104.049 88.6665 104.313 88.229C104.525 87.8127 104.964 87.5889 105.388 87.4388Z" fill="#010023"/>
<path d="M77.5358 89.1269C78.1013 88.8735 78.7291 89.1963 79.1815 89.5518C79.624 89.9454 80.0524 90.4141 80.198 91.0061C80.3394 91.5017 80.1641 92.0553 79.8488 92.4462C79.3935 92.6954 78.8436 92.7294 78.3332 92.7407C77.9189 92.7492 77.3803 92.609 77.2926 92.1361C77.1384 91.4699 77.0307 90.7937 76.9703 90.1125C76.9547 89.9103 77.0003 89.7081 77.1012 89.5323C77.202 89.3565 77.3535 89.2152 77.5358 89.1269Z" fill="#010023"/>
<path d="M98.0629 92.8807C98.4404 92.2137 99.0299 91.5765 99.8344 91.5C100.326 91.5071 100.797 91.6992 101.153 92.0381C101.71 92.5876 101.848 93.4542 101.658 94.192C101.486 94.8433 100.825 95.2087 100.232 95.4041C99.6944 95.3857 98.9592 95.5315 98.6397 94.9793C98.3315 94.3888 98.3824 93.6977 98.3315 93.0534C98.2184 93.4698 98.101 93.8833 97.9964 94.3024C97.9399 93.8323 97.8056 93.3097 98.0629 92.8807Z" fill="#010023"/>
<path d="M106.117 92.9939C106.896 92.6767 107.88 92.8693 108.412 93.5419C109.096 94.4128 108.897 95.8076 108.058 96.5071C106.712 97.4488 104.771 96.1758 104.732 94.6337C104.754 93.8379 105.388 93.212 106.117 92.9939Z" fill="#010023"/>
<path d="M76.7991 94.949C77.6233 94.5893 78.637 94.4973 79.4386 94.9716C79.7935 95.1529 79.9207 95.5579 80.0367 95.9119C79.9985 96.4245 79.9589 97.0334 79.5065 97.3676C78.8364 97.8576 77.8778 98.1323 77.103 97.7046C76.6082 97.4058 76.1798 96.8408 76.2774 96.2348C76.3665 95.776 76.6011 95.3639 76.7991 94.949Z" fill="#010023"/>
<path d="M97.1963 96.2197C97.6996 96.1828 98.1167 96.5425 98.4249 96.9008C98.825 97.3794 99.1473 98.0549 98.8943 98.6779C98.6864 99.4129 97.9965 99.9042 97.2839 100.081C96.9527 100.11 96.6192 100.067 96.3061 99.9547C95.9931 99.8425 95.7079 99.664 95.47 99.4313C95.0459 98.988 95.0713 98.3197 95.1307 97.7532C95.282 96.7974 96.3098 96.2636 97.1963 96.2197Z" fill="#010023"/>
<path d="M102.04 99.596C102.167 98.3924 103.547 97.4351 104.699 97.8557C105.008 98.0042 105.284 98.2137 105.51 98.4716C105.736 98.7296 105.908 99.0306 106.015 99.3567C106.157 99.8608 106.073 100.389 106.089 100.904C105.307 101.056 104.579 101.431 103.784 101.512C102.817 101.437 102.113 100.525 102.04 99.596Z" fill="#010023"/>
<path d="M80.1075 98.3871C80.7649 98.0628 81.5015 98.4791 81.8041 99.0951C82.1282 99.761 82.179 100.528 81.9455 101.23C81.898 101.399 81.8081 101.553 81.6843 101.677C81.5606 101.801 81.4071 101.891 81.2386 101.939C80.4327 102.13 79.5957 101.743 79.0415 101.167C78.6428 100.759 78.7149 100.134 78.7729 99.6176C78.8676 98.9337 79.5378 98.5881 80.1075 98.3871Z" fill="#010023"/>
<path d="M112.433 110.27C114.04 110.304 115.645 110.236 117.251 110.231C117.286 111.601 117.251 112.971 117.265 114.338C118.236 114.387 119.208 114.375 120.177 114.303C120.358 112.947 120.224 111.577 120.397 110.221C121.601 110.165 122.8 110.209 124.012 110.207C124.55 110.231 125.172 110.241 125.584 110.645C125.674 112.034 125.572 113.43 125.596 114.822C126.822 115.105 128.235 115.13 129.189 116.064C129.822 116.697 130.56 117.252 131.038 118.021C131.783 119.599 132.254 121.381 131.913 123.127C131.648 124.208 131.168 125.3 130.208 125.935C131.419 126.557 132.124 127.776 132.714 128.957C133.073 129.636 133.165 130.412 133.153 131.171C133.129 132.206 133.271 133.286 132.87 134.272C132.571 135.001 132.48 135.829 131.98 136.464C131.438 137.179 130.941 137.978 130.142 138.434C129.508 138.778 128.854 139.084 128.184 139.351C127.371 139.685 126.487 139.743 125.619 139.851C125.578 141.426 125.645 143.003 125.581 144.579C123.76 144.571 121.939 144.579 120.118 144.551C120.087 142.985 120.142 141.419 120.074 139.854C119.14 139.854 118.207 139.854 117.273 139.854C117.273 141.412 117.288 142.969 117.273 144.527C115.527 144.637 113.779 144.551 112.031 144.576C112.066 142.989 111.897 141.406 111.946 139.817C110.438 139.847 108.93 139.847 107.422 139.817C107.377 138.15 107.39 136.482 107.411 134.816C108.87 134.791 110.327 134.816 111.787 134.816C111.774 129.677 111.774 124.538 111.787 119.399C110.402 119.321 109.017 119.371 107.633 119.358C107.428 118.694 107.183 118.011 107.286 117.306C107.448 116.237 107.409 115.155 107.438 114.079C109.1 114.111 110.766 114.107 112.426 114.001C112.498 112.759 112.433 111.514 112.433 110.27ZM117.333 119.399C117.281 121.059 117.323 122.718 117.31 124.379C117.324 127.858 117.241 131.338 117.319 134.817C118.793 134.817 120.266 134.833 121.741 134.831C123.028 134.831 124.333 134.973 125.608 134.749C126.443 134.429 127.009 133.606 127.258 132.767C127.481 131.748 127.357 130.593 126.692 129.756C126.158 129.178 125.329 128.981 124.571 128.993C122.848 128.993 121.125 129.013 119.403 128.98C119.394 127.422 119.403 125.855 119.393 124.291C120.93 124.303 122.466 124.291 124.003 124.308C124.766 124.339 125.518 124.119 126.144 123.681C126.426 123.484 126.5 123.126 126.559 122.809C126.73 121.853 126.559 120.79 125.917 120.039C125.26 119.423 124.289 119.376 123.436 119.364C121.403 119.395 119.367 119.345 117.333 119.399Z" fill="#12131A"/>
<path d="M147.378 43.2885C147.519 42.9387 147.884 42.6584 148.277 42.7093C148.758 42.7504 149.015 43.2205 149.226 43.5986C149.725 44.621 150.204 45.6533 150.699 46.6785C151.08 47.4687 151.172 48.3523 151.424 49.185C151.719 50.3051 152.09 51.4138 152.211 52.5722C152.353 53.9415 152.561 55.3094 152.534 56.6915C152.494 58.5635 152.63 60.4624 152.189 62.299C151.583 62.5848 150.949 62.806 150.297 62.9589C150.605 62.4336 151.089 61.8912 150.908 61.2342C150.549 59.5958 149.377 58.3256 148.437 56.9945C147.775 56.0585 146.733 55.4907 146.046 54.5787C145.817 54.2955 145.854 53.9202 145.855 53.5875C145.931 52.1162 146.069 50.6492 146.221 49.1835C146.347 47.9926 146.664 46.8329 146.822 45.6434C146.954 44.8476 147.044 44.0291 147.378 43.2885Z" fill="#FB9B20"/>
<path d="M104.995 49.5338C105.173 49.2229 105.387 48.934 105.632 48.6729C106.339 49.3979 106.515 50.4089 106.888 51.3095C106.973 51.6041 107.179 51.9439 106.978 52.2371C106.696 52.7284 106.339 53.2184 105.823 53.4789C105.293 53.6829 104.715 53.6984 104.158 53.7763C104.082 52.3146 104.37 50.857 104.995 49.5338Z" fill="#FB9B20"/>
<path d="M160.526 51.0914C161.698 50.8209 162.908 50.9753 164.074 51.1976C165.112 51.3987 166.195 51.3973 167.195 51.7853C167.791 51.9637 167.927 52.693 167.866 53.2353C167.638 54.6585 167.128 56.0674 166.201 57.1904C165.755 57.7355 165.188 58.1589 164.668 58.6277C163.78 59.4589 162.495 59.7138 161.315 59.6373C160.162 59.6118 159.184 58.8259 158.507 57.9536C158.003 57.0091 158.131 55.8777 158.183 54.8468C158.241 53.687 158.771 52.6165 159.455 51.7031C159.721 51.3699 160.104 51.151 160.526 51.0914Z" fill="#FB9B20"/>
<path d="M150.412 66.4325C150.884 65.8745 151.411 65.3646 151.984 64.9103C151.94 66.5458 151.308 68.0879 151.175 69.7121C151.089 70.9597 150.721 72.1605 150.564 73.3939C150.113 75.4372 149.838 77.5132 149.412 79.5622C148.831 83.1349 147.986 86.6538 147.328 90.2138C146.824 92.4794 146.384 94.7706 145.763 97.0108C145.415 98.029 145.247 99.1222 144.679 100.053C144.935 98.737 145.237 97.4314 145.514 96.1201C145.858 94.4931 146.471 92.917 146.587 91.2475C146.703 89.7861 146.75 88.3229 146.729 86.8577C146.678 85.3425 146.717 83.7792 146.172 82.3377C145.607 80.9341 144.901 79.5918 144.065 78.3316C144.772 77.5698 145.613 76.9014 146.045 75.9243C146.877 74.521 147.3 72.9351 147.679 71.3618C147.885 70.3522 148.527 69.521 148.869 68.558C149.165 67.7155 149.85 67.1052 150.412 66.4325Z" fill="#FB9B20"/>
<path d="M120.524 98.7779C121.437 98.5286 122.392 98.7637 123.313 98.8586C122.475 98.7014 121.73 99.1588 121.224 99.7875C120.448 100.743 119.276 101.33 118.687 102.441C118.297 102.428 117.907 102.421 117.517 102.41C117.715 101.977 117.894 101.524 118.215 101.164C118.95 100.338 119.547 99.3514 120.524 98.7779Z" fill="#FB9B20"/>
<path d="M93.308 58.388C93.964 58.0382 94.7359 58.085 95.4542 58.1374C93.4419 61.685 91.4277 65.2318 89.4116 68.7776C89.1613 69.2152 89.02 69.7037 88.7782 70.1455C88.3258 70.4287 87.749 70.3282 87.24 70.3777C87.47 69.4399 87.8444 68.5436 88.3498 67.7212C89.8268 64.8891 91.2849 62.0523 92.7241 59.2107C92.8909 58.919 93.0323 58.5962 93.308 58.388Z" fill="#BDBDBE"/>
<path d="M121.56 59.1934C122.223 59.1325 122.883 59.0334 123.548 58.981C122.944 60.1435 122.063 61.1489 121.609 62.3866C121.247 63.2489 120.543 63.9102 120.196 64.7811C119.763 65.7936 119.004 66.6036 118.372 67.4872C117.878 68.1457 117.617 68.9514 117.07 69.5716C116.12 70.6762 115.606 72.0667 114.781 73.2534C114.385 72.8866 114.232 72.3485 114.01 71.8727C114.622 70.873 115.252 69.8803 115.765 68.8254C116.311 67.7647 117.164 66.8967 117.68 65.8148C118.023 65.093 118.438 64.4079 118.919 63.7701C119.535 62.9445 119.856 61.9292 120.534 61.1489C121.028 60.5882 121.331 59.8971 121.56 59.1934Z" fill="#BDBDBE"/>
<path d="M78.4945 74.2773C79.3618 73.9632 80.2689 73.7726 81.1892 73.7109C79.9479 74.1754 78.6995 74.7022 77.6872 75.5858C77.2164 76.0328 76.8467 76.5756 76.6028 77.1777C76.359 77.7798 76.2466 78.4272 76.2734 79.0764C76.2522 79.6045 76.7739 79.892 77.0948 80.229C76.5406 80.331 75.9963 80.5122 75.4322 80.542C75.0688 79.7292 75.1678 78.7875 75.2738 77.9279C75.3616 77.2237 75.7066 76.577 76.2423 76.1126C76.9478 75.4569 77.5684 74.6413 78.4945 74.2773Z" fill="#BDBDBE"/>
<path d="M99.5909 79.616C100.165 79.3144 100.524 80.0097 100.61 80.477C100.61 81.5263 100.221 82.5303 99.7987 83.4776C99.6573 82.5713 99.4947 81.6707 99.4085 80.7574C99.3599 80.3673 99.4231 79.9714 99.5909 79.616Z" fill="#BDBDBE"/>
<path d="M124.106 91.6396C124.712 91.2767 125.335 90.9458 125.975 90.6484C125.441 91.3876 124.723 91.9582 124.072 92.5884C122.817 93.8812 121.574 95.1882 120.247 96.4117C119.456 97.2826 118.475 97.9396 117.599 98.7156C116.75 99.4619 115.68 99.8853 114.786 100.574C113.556 101.494 112.076 101.953 110.686 102.567C109.91 102.926 109.131 103.275 108.348 103.621C107.59 103.951 106.75 103.985 105.969 104.23C103.113 105.062 100.099 105.448 97.1352 105.052C95.8133 104.854 94.4659 104.714 93.1992 104.262C92.3509 103.979 91.4461 103.873 90.677 103.396C89.6138 102.818 88.5704 102.21 87.5666 101.546C86.7183 101.018 86.167 100.143 85.7386 99.2637C85.2734 98.1591 85.3144 96.9187 85.4332 95.749C85.7852 96.9243 86.7367 97.7499 87.479 98.6774C88.0091 99.3401 88.8122 99.6686 89.577 99.9703C91.07 100.6 92.57 101.255 94.162 101.589C97.1069 102.049 100.1 101.99 103.069 101.943C105.347 101.892 107.541 101.194 109.642 100.368C111.091 99.6828 112.649 99.2283 114.017 98.3744C115.007 97.7584 116.067 97.2599 116.986 96.5462C118.225 95.5338 119.692 94.847 120.914 93.8118C121.891 92.9594 123.028 92.342 124.106 91.6396Z" fill="#BDBDBE"/>
<path d="M97.9963 94.2984C98.1009 93.8735 98.2182 93.4657 98.3313 93.0494C98.3822 93.6937 98.3313 94.3847 98.6395 94.9752C98.9576 95.5317 99.6942 95.3859 100.231 95.4C99.7715 95.4806 99.3035 95.5063 98.8375 95.4765C98.2663 95.4638 97.8945 94.8237 97.9963 94.2984Z" fill="#BDBDBE"/>
<path d="M75.1919 95.33C75.7438 95.2845 76.2857 95.156 76.7994 94.9491C76.6015 95.364 76.3668 95.776 76.2833 96.2348C76.1858 96.8409 76.6142 97.4059 77.109 97.7047C77.8781 98.1295 78.8367 97.8576 79.5125 97.3677C79.9649 97.0335 80.0045 96.4246 80.0426 95.912C80.2448 96.5818 80.5361 97.2388 81.0238 97.7529C81.489 98.24 81.9513 98.7951 82.5988 99.0386C83.2887 98.9537 83.662 98.2456 84.0126 97.7217C84.0819 98.4297 84.1822 99.1477 84.5385 99.7721C85.0496 100.683 85.7239 101.491 86.5277 102.157C87.154 102.669 87.7903 103.171 88.3939 103.714C86.6691 104.281 84.7676 104.404 83.0215 103.865C82.0955 103.574 81.1058 103.334 80.3494 102.688C79.6934 102.121 79.077 101.505 78.4323 100.925C77.7438 100.295 77.0765 99.6121 76.6382 98.7781C76.101 97.6481 75.4266 96.5704 75.1919 95.33ZM80.1077 98.3872C79.5422 98.5912 78.8678 98.9367 78.7787 99.6065C78.7207 100.123 78.6486 100.748 79.0473 101.156C79.6015 101.732 80.4385 102.119 81.2444 101.927C81.4129 101.88 81.5664 101.79 81.6901 101.666C81.8139 101.542 81.9038 101.388 81.9513 101.219C82.1848 100.516 82.134 99.7498 81.8099 99.0839C81.5017 98.4765 80.7651 98.0601 80.1077 98.3872Z" fill="#BDBDBE"/>
<path d="M93.7167 108.1L94.6187 108.359C94.0202 110.137 93.3604 111.893 92.6394 113.628C92.72 111.74 93.1526 109.894 93.7167 108.1Z" fill="#BDBDBE"/>
<path d="M100.483 111.067C100.647 111.128 100.811 111.189 100.977 111.253C100.977 111.345 100.963 111.529 100.957 111.621C100.913 112.091 100.957 112.602 100.725 113.028C100.533 113.236 100.329 113.435 100.14 113.647C100.254 112.788 100.363 111.927 100.483 111.067Z" fill="#BDBDBE"/>
<path d="M138.626 113.9C138.602 113.334 138.886 112.827 139.2 112.376C139.73 113.444 140.392 114.516 141.462 115.114C142.284 115.662 143.281 115.758 144.231 115.9C143.65 115.851 143.039 115.783 142.482 115.993C141.775 116.299 141.209 116.94 140.413 117.041C139.969 116.899 139.706 116.474 139.46 116.108C139.043 115.439 138.56 114.727 138.626 113.9Z" fill="#BDBDBE"/>
<path d="M139.178 122.491C138.604 121.561 138.753 120.249 139.576 119.517C139.859 120.725 140.201 122.051 141.228 122.855C141.793 123.356 142.588 123.487 143.317 123.369C144.261 123.209 145.217 123.133 146.175 123.144C145.094 123.244 144.416 124.251 143.364 124.418C142.535 124.533 141.69 124.444 140.902 124.159C140.108 123.894 139.593 123.178 139.178 122.491Z" fill="#BDBDBE"/>
<path d="M139.899 126.906C139.916 126.339 140.131 125.795 140.358 125.278C141.099 125.536 141.863 125.719 142.64 125.825C142.091 126.139 141.498 126.639 141.547 127.339C141.582 128.082 142.23 128.606 142.896 128.807C145.865 129.799 149.117 130.131 152.183 129.384C153.994 129.004 155.087 127.101 155.152 125.349C155.576 126.696 155.366 128.286 154.464 129.396C153.898 130.104 153.381 130.938 152.484 131.257C151.367 131.682 150.249 132.234 149.025 132.233C147.42 132.322 145.827 132.006 144.301 131.525C143.566 131.28 142.746 131.217 142.107 130.742C141.468 130.266 140.811 129.767 140.307 129.136C139.804 128.504 139.856 127.66 139.899 126.906Z" fill="#BDBDBE"/>
<path d="M83.6404 129.042L84.3275 128.617C84.3899 129.124 84.5612 129.612 84.8297 130.047C85.0981 130.481 85.4574 130.853 85.8827 131.135C86.9727 131.91 88.3823 131.843 89.6519 131.771C90.4846 131.693 91.3343 131.723 92.1529 131.54C92.8131 131.386 93.1044 130.702 93.5964 130.307C94.0205 129.967 94.4149 129.587 94.8419 129.252C94.7868 130.175 95.0102 131.203 94.4574 132.019C94.0007 132.656 93.3702 133.222 92.6081 133.446C90.5722 134.045 88.3667 134.296 86.2997 133.701C85.7696 133.527 85.1758 133.364 84.828 132.892C84.056 131.764 83.5754 130.424 83.6404 129.042Z" fill="#BDBDBE"/>
<path d="M103.326 156.338C103.787 155.975 104.326 155.724 104.9 155.602C104.538 156.253 103.962 157.008 104.347 157.779C103.573 158.884 102.854 160.028 102.195 161.205C102.238 159.996 102.218 158.785 102.136 157.577C102.361 157.029 102.888 156.697 103.326 156.338Z" fill="#BDBDBE"/>
<path d="M164.004 162.894C163.956 162.134 164.128 161.384 164.275 160.645C164.247 161.212 164.285 161.812 164.626 162.285C165.191 163.109 166.13 163.551 166.957 164.067C167.965 164.701 169.181 164.83 170.234 165.365C171.169 165.895 172.266 165.79 173.298 165.77C173.123 166.033 173.015 166.461 172.639 166.478C171.732 166.574 170.814 166.467 169.953 166.165C169.054 165.866 168.105 165.766 167.2 165.498C166.158 165.151 165.067 164.95 164.09 164.445C164.069 163.922 164.036 163.408 164.004 162.894Z" fill="#BDBDBE"/>
<path d="M133.187 96.3655C134.351 96.0992 135.359 95.4521 136.343 94.8078C136.612 95.3374 136.867 95.8911 136.899 96.4943C137.016 98.5207 136.957 100.601 136.293 102.538C135.587 102.177 134.931 101.714 134.186 101.431C133.717 101.232 133.263 101.001 132.825 100.741C132.882 99.7937 133.122 98.8648 133.134 97.909C133.148 97.3935 133.166 96.879 133.187 96.3655Z" fill="#EF5969"/>
<path d="M93.7168 108.099C93.8182 107.298 94.0849 106.526 94.5 105.834C94.7333 105.886 94.968 105.939 95.2069 105.994C95.033 106.788 94.8365 107.577 94.623 108.363L93.7168 108.099Z" fill="#EF5969"/>
<path d="M88.5223 105.987C90.3419 106.467 91.9041 107.592 93.7166 108.099C93.1511 109.893 92.7269 111.74 92.6449 113.622C93.3613 111.888 94.021 110.131 94.6243 108.353C96.9542 108.88 99.089 110.001 101.22 111.043C101.132 111.23 101.047 111.418 100.962 111.61C100.962 111.518 100.978 111.326 100.982 111.241C100.817 111.178 100.653 111.117 100.489 111.056C100.369 111.916 100.26 112.776 100.145 113.636C99.8398 114.617 99.5259 115.638 98.8232 116.417C98.2167 117.093 97.5819 117.801 96.7252 118.155C96.0628 118.433 95.3827 118.667 94.6893 118.854C94.1648 118.837 93.5752 118.647 93.284 118.182C93.0012 117.454 93.0648 116.624 92.71 115.926C92.4815 115.469 92.1235 115.089 91.6807 114.835C90.8169 114.306 89.881 113.844 88.8644 113.722C87.9752 113.611 87.076 113.68 86.1782 113.645C86.5642 111.784 86.9813 109.912 87.7334 108.162C88.0218 107.449 88.2636 106.716 88.5223 105.987Z" fill="#EF5969"/>
<path d="M119.028 99.1456C119.482 98.8837 120.018 98.8539 120.524 98.7789C119.547 99.3524 118.95 100.337 118.215 101.165C117.894 101.525 117.714 101.978 117.517 102.411C117.907 102.422 118.297 102.429 118.687 102.442C119.246 102.466 119.804 102.502 120.361 102.551C119.265 102.514 118.158 102.434 117.074 102.648C116.347 102.789 115.574 102.762 114.891 103.081C113.364 103.93 111.627 104.242 109.958 104.682L110.047 105.15C108.61 105.839 107.367 106.884 106.253 108.017C105.071 109.558 104.132 111.495 102.232 112.265C102.293 111.066 102.58 109.899 102.887 108.745C103.028 108.255 102.759 107.771 102.806 107.281C102.895 106.917 103.008 106.558 103.144 106.209C104.362 106.006 105.551 105.658 106.687 105.172C108.447 104.372 110.435 104.208 112.145 103.282C113.605 102.492 115.114 101.785 116.493 100.858C117.307 100.243 118.154 99.6715 119.028 99.1456Z" fill="#FD780B"/>
<path d="M141.873 132.169C142.443 132.285 143.003 132.44 143.552 132.633C143.385 133.101 143.172 133.552 142.917 133.978C142.351 134.853 142.009 135.856 141.397 136.706C141.673 135.205 141.78 133.688 141.873 132.169Z" fill="#FD780B"/>
<path d="M121.222 99.7878C121.728 99.159 122.473 98.7016 123.312 98.8588C124.443 99.0231 125.611 99.033 126.705 99.4253C127.942 99.8317 129.195 100.201 130.389 100.728C130.992 101 131.539 101.384 132.159 101.617C133.666 102.155 134.895 103.213 136.201 104.102C137.132 104.716 137.898 105.537 138.794 106.186C139.438 106.671 139.845 107.389 140.458 107.907C140.885 108.278 141.274 108.69 141.619 109.138C140.953 109.444 140.276 109.754 139.712 110.231C139.255 110.622 138.777 110.985 138.308 111.357C137.956 110.696 137.54 110.057 136.952 109.581C136.245 109.015 135.767 108.201 134.973 107.75C133.993 107.202 133.238 106.334 132.22 105.841C130.819 105.167 129.516 104.271 128.017 103.818C126.384 103.28 124.723 102.777 122.998 102.654C122.123 102.57 121.242 102.664 120.368 102.556C119.811 102.507 119.253 102.471 118.694 102.447C119.275 101.33 120.447 100.744 121.222 99.7878Z" fill="#FED519"/>
<path d="M112.943 104.219C114.944 103.75 117.015 103.78 119.056 103.688C120.378 103.617 121.697 103.738 123.015 103.739C125.167 103.933 127.189 104.754 129.158 105.597C130.289 105.992 131.279 106.646 132.268 107.306C133.189 107.875 134.067 108.511 134.894 109.209C135.592 109.733 136.105 110.454 136.78 111.005C137.147 111.341 137.603 111.641 137.784 112.126C137.819 112.582 137.687 113.028 137.642 113.48C137.538 114.421 137.694 115.372 138.093 116.23C138.383 116.849 138.92 117.294 139.428 117.73C138.944 118.238 138.413 118.721 138.083 119.351C137.754 119.981 137.731 120.711 137.761 121.404C137.789 122.043 137.924 122.702 138.295 123.235C138.578 123.677 139.024 123.993 139.325 124.425C139.281 125.061 138.879 125.609 138.772 126.235C138.582 127.226 138.539 128.346 139.086 129.242C139.359 129.713 139.657 130.169 139.979 130.607C140.328 131.069 140.915 131.259 141.287 131.695C141.484 132.647 141.209 133.622 141.089 134.57C140.902 136.127 140.323 137.591 139.8 139.057C139.455 140.048 138.698 140.79 138.146 141.655C137.794 142.188 137.375 142.672 136.9 143.097C136.291 143.663 135.81 144.383 135.079 144.81C134.139 145.363 133.392 146.194 132.413 146.684C131.173 147.32 129.967 148.026 128.697 148.601C127.879 148.884 127.046 149.131 126.226 149.413C124.23 150.043 122.11 149.918 120.046 149.931C118.186 149.941 116.343 149.561 114.583 148.979C112.731 148.554 111.152 147.439 109.51 146.535C108.662 146.117 108.032 145.375 107.264 144.836C106.274 144.139 105.526 143.171 104.627 142.369C104.062 141.879 103.722 141.199 103.278 140.609C102.9 140.095 102.347 139.704 102.111 139.094C101.702 138.046 101.019 137.14 100.519 136.139C99.8825 135.21 99.6775 134.085 99.2166 133.076C98.6384 131.696 98.4602 130.205 98.152 128.755C97.9765 127.828 97.9063 126.883 97.9428 125.94C97.9696 125.129 97.8777 124.319 97.9003 123.509C97.9003 122.723 98.6864 122.2 98.6779 121.412C98.767 120.654 98.3471 119.995 97.9145 119.418C98.5465 119.065 99.2307 118.737 99.6704 118.143C100.298 117.294 101.103 116.554 101.449 115.532C101.94 114.51 101.938 113.357 102.232 112.275C104.131 111.498 105.071 109.561 106.253 108.027C107.367 106.884 108.61 105.839 110.053 105.15C110.979 104.745 111.973 104.512 112.943 104.219ZM112.433 110.27C112.433 111.515 112.498 112.759 112.433 114.004C110.773 114.11 109.108 114.115 107.445 114.082C107.417 115.158 107.455 116.24 107.294 117.309C107.19 118.017 107.435 118.697 107.64 119.361C109.024 119.374 110.41 119.324 111.794 119.402C111.777 124.541 111.777 129.68 111.794 134.819C110.335 134.819 108.877 134.8 107.418 134.819C107.397 136.485 107.384 138.154 107.429 139.82C108.937 139.85 110.445 139.85 111.954 139.82C111.904 141.409 112.074 142.992 112.038 144.58C113.786 144.554 115.535 144.64 117.281 144.53C117.292 142.972 117.281 141.415 117.281 139.857C118.214 139.857 119.147 139.857 120.081 139.857C120.149 141.415 120.094 142.988 120.125 144.554C121.946 144.59 123.767 144.574 125.588 144.582C125.652 143.006 125.588 141.429 125.626 139.854C126.49 139.747 127.378 139.689 128.191 139.354C128.861 139.088 129.515 138.781 130.149 138.437C130.948 137.981 131.446 137.182 131.987 136.467C132.488 135.833 132.578 135.004 132.878 134.275C133.281 133.284 133.139 132.209 133.16 131.174C133.172 130.415 133.08 129.639 132.721 128.961C132.131 127.787 131.426 126.56 130.216 125.939C131.176 125.303 131.655 124.211 131.921 123.131C132.261 121.385 131.791 119.602 131.045 118.024C130.568 117.255 129.83 116.7 129.196 116.067C128.242 115.133 126.829 115.113 125.604 114.825C125.58 113.433 125.681 112.037 125.591 110.648C125.18 110.245 124.558 110.235 124.019 110.211C122.813 110.211 121.608 110.168 120.404 110.225C120.231 111.58 120.366 112.951 120.185 114.306C119.216 114.378 118.243 114.39 117.272 114.341C117.257 112.97 117.293 111.6 117.258 110.235C115.645 110.236 114.04 110.304 112.433 110.27Z" fill="#FED519"/>
<path d="M117.333 119.399C119.367 119.342 121.403 119.399 123.438 119.368C124.286 119.38 125.261 119.427 125.919 120.043C126.563 120.793 126.732 121.857 126.561 122.813C126.501 123.13 126.428 123.488 126.145 123.685C125.519 124.123 124.767 124.343 124.004 124.312C122.468 124.302 120.931 124.312 119.394 124.295C119.401 125.853 119.394 127.422 119.404 128.984C121.126 129.017 122.849 128.998 124.573 128.997C125.333 128.985 126.162 129.182 126.694 129.76C127.354 130.597 127.478 131.752 127.259 132.77C127.01 133.606 126.445 134.429 125.609 134.753C124.337 134.981 123.029 134.832 121.742 134.835C120.268 134.835 118.795 134.825 117.32 134.821C117.242 131.342 117.32 127.862 117.312 124.383C117.323 122.718 117.28 121.058 117.333 119.399Z" fill="#FED519"/>
<path d="M92.922 119.692C93.4776 119.616 94.0304 119.78 94.5874 119.783C95.3608 119.814 96.2062 119.654 96.9047 120.079C97.1153 120.191 97.288 120.363 97.401 120.573C97.514 120.783 97.5622 121.022 97.5395 121.26C97.4235 121.859 96.9909 122.349 96.9188 122.959C96.6657 124.892 96.8962 126.839 97.0602 128.765C97.3217 130.573 97.5677 132.417 98.3114 134.103C98.6111 135.022 99.0833 135.866 99.4961 136.736C99.9684 138.01 100.719 139.143 101.548 140.208C101.972 140.823 102.229 141.563 102.804 142.071C103.622 142.768 104.091 143.792 104.992 144.402C105.892 145.013 106.489 145.968 107.443 146.497C108.325 147.004 109.065 147.717 109.947 148.227C110.654 148.71 111.465 148.986 112.253 149.306C115.646 151.015 119.568 151.253 123.297 150.981C124.549 150.944 125.792 150.758 126.999 150.425C127.885 150.125 128.705 149.652 129.607 149.39C130.241 149.233 130.849 148.986 131.413 148.658C132.603 147.913 133.798 147.176 134.973 146.409C135.66 145.984 136.094 145.255 136.784 144.831C137.226 144.582 137.605 144.233 137.891 143.813C138.4 143.016 139.256 142.526 139.747 141.712C140.313 140.791 141.111 140.037 141.685 139.119C142.251 138.288 142.606 137.333 143.158 136.492C143.908 135.402 144.11 134.071 144.456 132.822C145.729 133.169 147.032 133.322 148.315 133.599C148.103 134.466 147.82 135.313 147.466 136.133C146.837 137.556 146.369 139.074 145.459 140.352C144.873 141.158 144.528 142.117 143.887 142.883C143.047 143.885 142.231 144.908 141.391 145.909C140.809 146.604 140.074 147.14 139.412 147.75C138.667 148.381 137.977 149.104 137.088 149.535C136.171 149.993 135.521 150.843 134.582 151.262C133.451 151.763 132.378 152.372 131.274 152.924C130.413 153.376 129.446 153.549 128.528 153.843C126.782 154.39 124.98 154.737 123.156 154.877C121.881 154.91 120.605 154.91 119.329 154.877C117.041 154.672 114.758 154.293 112.584 153.532C111.129 153.219 109.8 152.525 108.536 151.759C107.853 151.334 107.057 151.113 106.4 150.643C105.3 149.816 104.245 148.934 103.161 148.085C102.506 147.564 102 146.889 101.379 146.331C100.066 145.117 99.089 143.609 97.9961 142.209C97.555 141.57 97.367 140.793 96.9287 140.16C96.3349 139.31 95.8754 138.373 95.4046 137.452C94.9395 136.229 94.6977 134.927 94.1831 133.724C95.2533 133.037 95.8061 131.799 96.021 130.584C96.2119 129.462 95.6803 128.398 95.2774 127.384C94.9225 126.447 93.9046 126.11 93.0973 125.674C93.5144 124.797 93.841 123.813 93.6261 122.841C93.5271 122.15 93.0718 121.602 92.7778 121.001C92.553 120.57 92.6816 120.069 92.922 119.692Z" fill="#FED519"/>
<path d="M89.3849 104.052C91.1238 104.556 92.7016 105.583 94.5353 105.764L94.5 105.828C94.0849 106.52 93.8181 107.292 93.7168 108.093C91.9043 107.586 90.342 106.46 88.5225 105.98C88.7788 105.326 89.0663 104.683 89.3849 104.052Z" fill="#D64447"/>
<path d="M95.2084 105.99C96.1373 106.069 97.0619 106.202 97.9908 106.273C99.2886 106.372 100.588 106.239 101.884 106.321C101.947 107.927 101.582 109.502 101.22 111.055C99.0893 110.007 96.9545 108.886 94.6245 108.365C94.8323 107.573 95.0289 106.784 95.2084 105.99Z" fill="#D64447"/>
</g>
<defs>
<filter id="filter0_d_313_2113" x="0" y="0.0883789" width="257" height="245.912" filterUnits="userSpaceOnUse" color-interpolation-filters="sRGB">
<feFlood flood-opacity="0" result="BackgroundImageFix"/>
<feColorMatrix in="SourceAlpha" type="matrix" values="0 0 0 0 0 0 0 0 0 0 0 0 0 0 0 0 0 0 127 0" result="hardAlpha"/>
<feOffset/>
<feGaussianBlur stdDeviation="17.5"/>
<feComposite in2="hardAlpha" operator="out"/>
<feColorMatrix type="matrix" values="0 0 0 0 1 0 0 0 0 1 0 0 0 0 1 0 0 0 0.35 0"/>
<feBlend mode="normal" in2="BackgroundImageFix" result="effect1_dropShadow_313_2113"/>
<feBlend mode="normal" in="SourceGraphic" in2="effect1_dropShadow_313_2113" result="shape"/>
</filter>
</defs>
</svg>
