<svg width="44" height="43" viewBox="0 0 44 43" fill="none" xmlns="http://www.w3.org/2000/svg">
<rect width="44" height="43" rx="8" fill="#FFA621" fill-opacity="0.2"/>
<path d="M27.1883 20.8688C28.5287 20.1989 29.3818 19.0079 29.1837 17.0281C28.9247 14.3187 26.6479 13.4107 23.6319 13.1576V9.40625H21.2861V13.0534C20.6767 13.0534 20.0522 13.0683 19.4277 13.0832V9.40625H17.0819V13.1576C16.2194 13.1831 15.2149 13.1707 12.375 13.1576V15.599C14.2271 15.5669 15.1989 15.4506 15.4215 16.6112V26.8828C15.2801 27.8036 14.5261 27.671 12.8472 27.642L12.375 30.3662C16.6522 30.3662 17.0819 30.3811 17.0819 30.3811V33.5938H19.4277V30.4258C20.0675 30.4406 20.692 30.4406 21.2861 30.4406V33.5938H23.6319V30.3811C27.5619 30.1727 30.1891 29.2051 30.5395 25.5877C30.8136 22.6849 29.4122 21.3897 27.1883 20.8688ZM19.4734 15.7627C20.7987 15.7627 24.9419 15.3608 24.9419 18.0552C24.9419 20.6306 20.7987 20.3328 19.4734 20.3328V15.7627ZM19.4734 27.6569V22.6253C21.0576 22.6253 25.9088 22.1936 25.9088 25.1412C25.9087 27.9844 21.0576 27.6569 19.4734 27.6569Z" fill="#FFC163"/>
</svg>
