<svg width="18" height="18" viewBox="0 0 18 18" fill="none" xmlns="http://www.w3.org/2000/svg">
<path d="M15.4125 8.26875L11.9812 4.8375C11.8125 4.6125 11.5312 4.5 11.25 4.5H6.75C6.13125 4.5 5.625 5.00625 5.625 5.625V15.75C5.625 16.3687 6.13125 16.875 6.75 16.875H14.625C15.2437 16.875 15.75 16.3687 15.75 15.75V9.05625C15.75 8.775 15.6375 8.49375 15.4125 8.26875ZM11.25 5.625L14.5687 9H11.25V5.625ZM6.75 15.75V5.625H10.125V9C10.125 9.61875 10.6312 10.125 11.25 10.125H14.625V15.75H6.75Z" fill="#FED519"/>
<path d="M3.375 10.125H2.25V2.25C2.25 1.63125 2.75625 1.125 3.375 1.125H11.25V2.25H3.375V10.125Z" fill="#FED519"/>
</svg>
