<svg width="18" height="18" viewBox="0 0 18 18" fill="none" xmlns="http://www.w3.org/2000/svg">
<path d="M13.5 15.75V14.625H14.625V15.75H13.5ZM10.125 13.5V12.375H11.25V13.5H10.125ZM10.125 16.875H12.375V15.75H11.25V14.625H10.125V16.875ZM14.625 14.625V12.375H15.75V14.625H14.625ZM15.75 14.625H16.875V16.875H14.625V15.75H15.75V14.625ZM14.625 11.25V10.125H16.875V12.375H15.75V11.25H14.625ZM13.5 11.25H12.375V13.5H11.25V14.625H13.5V11.25ZM10.125 11.25V10.125H12.375V11.25H10.125ZM3.375 12.375H5.625V14.625H3.375V12.375Z" fill="#FED519"/>
<path d="M7.875 16.875H1.125V10.125H7.875V16.875ZM2.25 15.75H6.75V11.25H2.25V15.75ZM12.375 3.375H14.625V5.625H12.375V3.375Z" fill="#FED519"/>
<path d="M16.875 7.875H10.125V1.125H16.875V7.875ZM11.25 6.75H15.75V2.25H11.25V6.75ZM3.375 3.375H5.625V5.625H3.375V3.375Z" fill="#FED519"/>
<path d="M7.875 7.875H1.125V1.125H7.875V7.875ZM2.25 6.75H6.75V2.25H2.25V6.75Z" fill="#FED519"/>
</svg>
