<svg width="18" height="18" viewBox="0 0 18 18" fill="none" xmlns="http://www.w3.org/2000/svg">
<path d="M15.1875 14.3921L14.0625 13.2671V11.8125H12.9375V13.7329L14.3921 15.1875L15.1875 14.3921Z" fill="#626D7D"/>
<path d="M13.5 17.4376C12.7212 17.4376 11.96 17.2066 11.3124 16.774C10.6649 16.3413 10.1602 15.7264 9.86222 15.0069C9.5642 14.2874 9.48623 13.4957 9.63816 12.7319C9.79009 11.9681 10.1651 11.2665 10.7158 10.7158C11.2664 10.1652 11.968 9.79014 12.7318 9.63822C13.4956 9.48629 14.2873 9.56426 15.0068 9.86228C15.7263 10.1603 16.3413 10.665 16.7739 11.3125C17.2066 11.96 17.4375 12.7213 17.4375 13.5001C17.4363 14.544 17.0211 15.5448 16.2829 16.283C15.5448 17.0211 14.5439 17.4364 13.5 17.4376ZM13.5 10.6876C12.9437 10.6876 12.4 10.8525 11.9375 11.1615C11.4749 11.4706 11.1145 11.9098 10.9016 12.4238C10.6887 12.9377 10.633 13.5032 10.7415 14.0487C10.8501 14.5943 11.1179 15.0955 11.5113 15.4888C11.9046 15.8821 12.4057 16.15 12.9513 16.2585C13.4969 16.367 14.0624 16.3113 14.5763 16.0985C15.0902 15.8856 15.5295 15.5251 15.8385 15.0626C16.1475 14.6001 16.3125 14.0563 16.3125 13.5001C16.3118 12.7544 16.0152 12.0394 15.4879 11.5121C14.9606 10.9849 14.2457 10.6883 13.5 10.6876ZM9 15.7501C7.21038 15.7481 5.49462 15.0363 4.22917 13.7709C2.96372 12.5054 2.25194 10.7897 2.25 9.00006H1.125C1.12738 11.0879 1.95783 13.0896 3.43417 14.5659C4.9105 16.0422 6.91215 16.8727 9 16.8751V15.7501ZM6.75 4.50006H3.98137C4.89162 3.48092 6.09008 2.76248 7.41792 2.43996C8.74576 2.11743 10.1403 2.20606 11.4166 2.69409C12.6929 3.18212 13.7908 4.04651 14.5647 5.17268C15.3386 6.29885 15.7519 7.63361 15.75 9.00006H16.875C16.8775 7.4345 16.4125 5.90384 15.5397 4.60416C14.6669 3.30447 13.426 2.29493 11.9759 1.70486C10.5258 1.11479 8.93252 0.971053 7.40022 1.29206C5.86792 1.61306 4.46634 2.3842 3.375 3.50668V1.12506H2.25V5.62506H6.75V4.50006Z" fill="#626D7D"/>
</svg>
