<svg width="17" height="16" viewBox="0 0 17 16" fill="none" xmlns="http://www.w3.org/2000/svg">
<path d="M13.9207 7.35L10.8707 4.3C10.7207 4.1 10.4707 4 10.2207 4H6.2207C5.6707 4 5.2207 4.45 5.2207 5V14C5.2207 14.55 5.6707 15 6.2207 15H13.2207C13.7707 15 14.2207 14.55 14.2207 14V8.05C14.2207 7.8 14.1207 7.55 13.9207 7.35ZM10.2207 5L13.1707 8H10.2207V5ZM6.2207 14V5H9.2207V8C9.2207 8.55 9.6707 9 10.2207 9H13.2207V14H6.2207Z" fill="#9191A7"/>
<path d="M3.2207 9H2.2207V2C2.2207 1.45 2.6707 1 3.2207 1H10.2207V2H3.2207V9Z" fill="#9191A7"/>
</svg>
