<svg width="18" height="15" viewBox="0 0 18 15" fill="none" xmlns="http://www.w3.org/2000/svg">
<path d="M6.66 0.199463L6.17188 0.258213C6.17188 0.258213 3.98187 0.497588 2.3825 1.78196H2.36375L2.34375 1.80071C1.985 2.13071 1.82875 2.53634 1.58188 3.12946C1.29086 3.84306 1.04312 4.57355 0.84 5.31696C0.37625 6.99384 0 9.02509 0 10.8832V11.0395L0.078125 11.1957C0.656875 12.2113 1.68437 12.8582 2.63687 13.3051C3.58875 13.752 4.41187 13.9888 4.98063 14.0082L5.35187 14.0276L5.54688 13.6957L6.23063 12.4845C6.95563 12.6482 7.79063 12.7582 8.75 12.7582C9.70938 12.7582 10.5444 12.6482 11.2694 12.4845L11.9531 13.6957L12.1488 14.0276L12.5194 14.0082C13.0881 13.9888 13.9113 13.752 14.8631 13.3051C15.8156 12.8582 16.8431 12.2113 17.4219 11.1957L17.5 11.0395V10.8832C17.5 9.02509 17.1238 6.99384 16.66 5.31696C16.4569 4.57355 16.2091 3.84306 15.9181 3.12946C15.6713 2.53571 15.515 2.13071 15.1562 1.80134L15.1369 1.78134H15.1169C13.5188 0.497588 11.3281 0.258213 11.3281 0.258213L10.84 0.199463L10.6637 0.648838C10.6637 0.648838 10.4831 1.10509 10.3713 1.62571C9.83394 1.55158 9.29239 1.51233 8.75 1.50821C8.41562 1.50821 7.8375 1.53009 7.12875 1.62571C7.05483 1.29342 6.95686 0.966934 6.83563 0.648838L6.66 0.199463ZM5.80062 1.62571C5.8275 1.71321 5.85437 1.78884 5.87875 1.86009C5.07063 2.06009 4.20875 2.36509 3.41812 2.85571L4.08187 3.91071C5.70312 2.90446 8.03187 2.75821 8.75 2.75821C9.4675 2.75821 11.7969 2.90446 13.4181 3.91071L14.0819 2.85571C13.2913 2.36509 12.4294 2.06009 11.6213 1.85946C11.6456 1.78884 11.6725 1.71321 11.6994 1.62509C12.2825 1.74259 13.3962 2.01134 14.3162 2.73884C14.3112 2.74134 14.5506 3.10259 14.7656 3.61759C14.9856 4.14759 15.2294 4.85321 15.4494 5.64884C15.8719 7.17446 16.2038 9.03259 16.2306 10.6682C15.8369 11.2688 15.1075 11.8107 14.3356 12.1726C13.8516 12.4013 13.3394 12.5652 12.8125 12.6601L12.5 12.1332C12.6856 12.0645 12.8687 11.9895 13.0275 11.9182C13.9894 11.4957 14.5119 11.0395 14.5119 11.0395L13.6912 10.102C13.6912 10.102 13.34 10.4245 12.5194 10.7857C11.7 11.147 10.4469 11.5082 8.75 11.5082C7.05312 11.5082 5.80062 11.147 4.98063 10.7857C4.16 10.4245 3.80875 10.102 3.80875 10.102L2.98813 11.0395C2.98813 11.0395 3.51063 11.4957 4.4725 11.9182C4.63125 11.9895 4.81437 12.0651 5 12.1332L4.6875 12.6607C4.1603 12.5655 3.64796 12.4012 3.16375 12.172C2.3925 11.8107 1.6625 11.2688 1.27 10.6682C1.29625 9.03259 1.62813 7.17446 2.05125 5.64884C2.23822 4.95873 2.46634 4.28043 2.73438 3.61759C2.94937 3.10259 3.18875 2.74134 3.18375 2.73884C4.10375 2.01134 5.2175 1.74259 5.80062 1.62571ZM6.5625 5.88321C6.07937 5.88321 5.65188 6.15884 5.39062 6.50821C5.12937 6.85759 5 7.28696 5 7.75821C5 8.22946 5.12937 8.65884 5.39062 9.00821C5.65188 9.35759 6.07937 9.63321 6.5625 9.63321C7.04563 9.63321 7.47312 9.35759 7.73438 9.00821C7.99563 8.65884 8.125 8.22946 8.125 7.75821C8.125 7.28696 7.99563 6.85759 7.73438 6.50821C7.47312 6.15884 7.04563 5.88321 6.5625 5.88321ZM10.9375 5.88321C10.4544 5.88321 10.0269 6.15884 9.76562 6.50821C9.50438 6.85759 9.375 7.28696 9.375 7.75821C9.375 8.22946 9.50438 8.65884 9.76562 9.00821C10.0269 9.35759 10.4544 9.63321 10.9375 9.63321C11.4206 9.63321 11.8481 9.35759 12.1094 9.00821C12.3706 8.65884 12.5 8.22946 12.5 7.75821C12.5 7.28696 12.3706 6.85759 12.1094 6.50821C11.8481 6.15884 11.4206 5.88321 10.9375 5.88321ZM6.5625 7.13321C6.59688 7.13321 6.64062 7.14571 6.71875 7.25071C6.79688 7.35509 6.875 7.53821 6.875 7.75821C6.875 7.97821 6.79688 8.16134 6.71875 8.26634C6.64062 8.37071 6.59688 8.38321 6.5625 8.38321C6.52812 8.38321 6.48438 8.37071 6.40625 8.26571C6.30289 8.1168 6.2483 7.93947 6.25 7.75821C6.25 7.53821 6.32812 7.35509 6.40625 7.25009C6.48438 7.14571 6.52812 7.13321 6.5625 7.13321ZM10.9375 7.13321C10.9719 7.13321 11.0156 7.14571 11.0938 7.25071C11.1719 7.35509 11.25 7.53821 11.25 7.75821C11.25 7.97821 11.1719 8.16134 11.0938 8.26634C11.0156 8.37071 10.9719 8.38321 10.9375 8.38321C10.9031 8.38321 10.8594 8.37071 10.7812 8.26571C10.6779 8.1168 10.6233 7.93947 10.625 7.75821C10.625 7.53821 10.7031 7.35509 10.7812 7.25009C10.8594 7.14571 10.9031 7.13321 10.9375 7.13321Z" fill="#FED519"/>
</svg>
