<svg width="13" height="13" viewBox="0 0 13 13" fill="none" xmlns="http://www.w3.org/2000/svg">
<path d="M0.8 3.616C0.8 3.136 0.864 2.71467 0.992 2.352C1.12 1.98933 1.296 1.68533 1.52 1.44C1.75467 1.184 2.02667 0.992 2.336 0.863999C2.64533 0.736 2.98133 0.672 3.344 0.672C3.70667 0.672 4.04267 0.736 4.352 0.863999C4.66133 0.992 4.928 1.184 5.152 1.44C5.38667 1.68533 5.568 1.98933 5.696 2.352C5.824 2.71467 5.888 3.136 5.888 3.616C5.888 4.096 5.824 4.51733 5.696 4.88C5.568 5.24267 5.38667 5.552 5.152 5.808C4.928 6.05333 4.66133 6.24 4.352 6.368C4.04267 6.496 3.70667 6.56 3.344 6.56C2.98133 6.56 2.64533 6.496 2.336 6.368C2.02667 6.24 1.75467 6.05333 1.52 5.808C1.296 5.552 1.12 5.24267 0.992 4.88C0.864 4.51733 0.8 4.096 0.8 3.616ZM4.64 3.616C4.64 3.04 4.528 2.592 4.304 2.272C4.08 1.94133 3.76 1.776 3.344 1.776C2.928 1.776 2.608 1.94133 2.384 2.272C2.16 2.592 2.048 3.04 2.048 3.616C2.048 4.192 2.16 4.64533 2.384 4.976C2.608 5.296 2.928 5.456 3.344 5.456C3.76 5.456 4.08 5.296 4.304 4.976C4.528 4.64533 4.64 4.192 4.64 3.616ZM7.84 9.296C7.84 8.816 7.904 8.39467 8.032 8.032C8.16 7.66933 8.336 7.36533 8.56 7.12C8.79467 6.864 9.06667 6.672 9.376 6.544C9.68533 6.416 10.0213 6.352 10.384 6.352C10.7467 6.352 11.0827 6.416 11.392 6.544C11.7013 6.672 11.968 6.864 12.192 7.12C12.4267 7.36533 12.608 7.66933 12.736 8.032C12.864 8.39467 12.928 8.816 12.928 9.296C12.928 9.776 12.864 10.1973 12.736 10.56C12.608 10.9227 12.4267 11.232 12.192 11.488C11.968 11.7333 11.7013 11.92 11.392 12.048C11.0827 12.176 10.7467 12.24 10.384 12.24C10.0213 12.24 9.68533 12.176 9.376 12.048C9.06667 11.92 8.79467 11.7333 8.56 11.488C8.336 11.232 8.16 10.9227 8.032 10.56C7.904 10.1973 7.84 9.776 7.84 9.296ZM11.68 9.296C11.68 8.72 11.568 8.272 11.344 7.952C11.12 7.62133 10.8 7.456 10.384 7.456C9.968 7.456 9.648 7.62133 9.424 7.952C9.2 8.272 9.088 8.72 9.088 9.296C9.088 9.872 9.2 10.3253 9.424 10.656C9.648 10.976 9.968 11.136 10.384 11.136C10.8 11.136 11.12 10.976 11.344 10.656C11.568 10.3253 11.68 9.872 11.68 9.296ZM10.72 0.912L4.464 12H3.008L9.264 0.912H10.72Z" fill="#FED519"/>
</svg>
