<svg width="20" height="17" viewBox="0 0 20 17" fill="none" xmlns="http://www.w3.org/2000/svg">
<path fill-rule="evenodd" clip-rule="evenodd" d="M11.6491 0.286511C12.4832 -0.0318593 13.395 -0.0863728 14.2611 0.130343C14.99 0.312714 15.6569 0.679754 16.1991 1.19297C16.9372 0.934249 17.6365 0.574185 18.2766 0.122653L18.6369 0.63338L19.2441 0.781266C18.9596 1.94964 18.3817 3.02416 17.5675 3.90428C17.5854 4.06259 17.5947 4.22183 17.5952 4.38131L17.5952 4.38338C17.5952 9.39376 15.1867 13.0501 11.743 14.883C8.31452 16.7079 3.92282 16.6924 0 14.5131L0.328367 13.3422C1.89856 13.4047 3.45149 13.0582 4.83806 12.3454C3.43606 11.5485 2.45556 10.5805 1.79374 9.5355C0.980927 8.2521 0.672519 6.8904 0.616672 5.66176C0.560948 4.43585 0.755753 3.32957 0.961456 2.53418C1.06468 2.13504 1.17169 1.81024 1.25385 1.58299C1.2578 1.57205 1.2617 1.56133 1.26554 1.55083L1.24441 1.52074L1.41118 1.1872L1.97019 1.46671L2.48167 1.10752C3.26436 2.22203 4.31054 3.12568 5.52703 3.73798C6.56183 4.25883 7.69253 4.55511 8.84519 4.61026V4.41239C8.83414 3.52116 9.0966 2.64793 9.59724 1.91044C10.0987 1.17175 10.8149 0.604881 11.6491 0.286511ZM2.19736 2.74969C2.18878 2.78158 2.1802 2.81407 2.17164 2.84716C1.98672 3.56219 1.81694 4.53924 1.86538 5.605C1.9137 6.66802 2.17821 7.80633 2.84977 8.86668C3.51881 9.92306 4.61564 10.94 6.3907 11.7289L7.41827 12.1856L6.48788 12.8172C5.36645 13.5784 4.11335 14.1066 2.80248 14.3808C5.73506 15.3367 8.73613 15.0674 11.1557 13.7796C14.1701 12.1752 16.3448 8.95687 16.3452 4.38451C16.3445 4.19139 16.3259 3.99875 16.2896 3.80906L16.227 3.48114L16.4647 3.24671C16.8245 2.8919 17.1346 2.49344 17.3889 2.06234C17.0035 2.236 16.6065 2.38456 16.2004 2.50684L15.8137 2.62329L15.5486 2.31853C15.1307 1.83806 14.5754 1.49752 13.9577 1.34296C13.34 1.1884 12.6897 1.22728 12.0948 1.45434C11.4999 1.6814 10.9891 2.08568 10.6315 2.61251C10.2738 3.13935 10.0866 3.7633 10.0951 4.4L10.0953 4.40838L10.0952 5.85072L9.48639 5.8665C7.91889 5.90715 6.36566 5.5595 4.96504 4.85452C3.91795 4.32749 2.98045 3.61297 2.19736 2.74969Z" fill="#FED519"/>
</svg>
