<svg width="48" height="43" viewBox="0 0 48 43" fill="none" xmlns="http://www.w3.org/2000/svg">
<rect width="47.5578" height="43" rx="8" fill="#4690EF" fill-opacity="0.2"/>
<path d="M35.6683 14.7812V12.0938C35.6683 10.6116 34.3352 9.40625 32.6959 9.40625H13.3755C10.9174 9.40625 8.91699 11.2149 8.91699 13.4375V29.5625C8.91699 32.5201 11.5832 33.5938 13.3755 33.5938H35.6683C37.3075 33.5938 38.6406 32.3884 38.6406 30.9062V17.4688C38.6406 15.9866 37.3075 14.7812 35.6683 14.7812ZM32.6959 26.875H29.7235V21.5H32.6959V26.875ZM13.3755 14.7812C12.9929 14.7658 12.6316 14.6174 12.3668 14.3671C12.1021 14.1168 11.9544 13.7838 11.9544 13.4375C11.9544 13.0912 12.1021 12.7582 12.3668 12.5079C12.6316 12.2576 12.9929 12.1092 13.3755 12.0938H32.6959V14.7812H13.3755Z" fill="#4D91FF"/>
</svg>
