<svg width="436" height="120" viewBox="0 0 436 120" fill="none" xmlns="http://www.w3.org/2000/svg">
<g filter="url(#filter0_d_313_191)">
<path d="M129.011 54.8913C129.011 56.2795 128.626 57.4827 127.854 58.5007C127.114 59.4879 126.034 60.2591 124.615 60.8144C126.405 61.4005 127.746 62.2643 128.641 63.4057C129.536 64.5472 129.983 65.92 129.983 67.5241C129.983 70.5165 128.872 72.7377 126.651 74.1876C124.461 75.6375 121.284 76.3625 117.119 76.3625C116.564 76.3625 115.931 76.3471 115.222 76.3162C114.543 76.2854 113.833 76.2237 113.093 76.1311C112.383 76.0694 111.659 75.9615 110.918 75.8072C110.209 75.6838 109.561 75.5141 108.975 75.2982C107.37 74.7121 106.568 73.6632 106.568 72.1516V50.1251C106.568 49.5081 106.723 49.0299 107.031 48.6906C107.37 48.3512 107.849 48.089 108.466 47.9039C109.484 47.5646 110.748 47.3178 112.26 47.1635C113.772 46.9784 115.33 46.8859 116.934 46.8859C120.79 46.8859 123.767 47.5492 125.865 48.8757C127.962 50.1714 129.011 52.1766 129.011 54.8913ZM122.579 67.2002C122.579 65.0099 121.176 63.9148 118.368 63.9148H113.602V70.3931C114.096 70.5165 114.713 70.6091 115.453 70.6708C116.193 70.7325 116.903 70.7633 117.582 70.7633C119.062 70.7633 120.265 70.4857 121.191 69.9304C122.116 69.3443 122.579 68.4342 122.579 67.2002ZM113.602 58.7783H117.906C119.109 58.7783 120.05 58.5007 120.728 57.9454C121.407 57.3901 121.746 56.5726 121.746 55.4929C121.746 54.5057 121.345 53.7499 120.543 53.2254C119.772 52.6702 118.6 52.3925 117.026 52.3925C116.44 52.3925 115.823 52.4234 115.175 52.4851C114.528 52.5159 114.003 52.5622 113.602 52.6239V58.7783Z" fill="white"/>
<path d="M144.57 71.1798C145.249 71.1798 145.912 71.1181 146.56 70.9947C147.239 70.8405 147.748 70.6554 148.087 70.4394V66.1822L144.293 66.5061C143.305 66.5987 142.503 66.83 141.886 67.2002C141.3 67.5396 141.007 68.064 141.007 68.7735C141.007 69.5139 141.285 70.1001 141.84 70.532C142.395 70.9639 143.305 71.1798 144.57 71.1798ZM144.293 52.7164C145.897 52.7164 147.347 52.8861 148.642 53.2254C149.969 53.5339 151.095 54.0275 152.02 54.7062C152.946 55.3849 153.655 56.2487 154.149 57.2976C154.673 58.3464 154.936 59.5804 154.936 60.9995V71.4574C154.936 72.2595 154.72 72.9074 154.288 73.401C153.887 73.8637 153.393 74.2647 152.807 74.6041C151.851 75.1902 150.678 75.6375 149.29 75.946C147.902 76.2545 146.329 76.4088 144.57 76.4088C141.393 76.4088 138.863 75.8072 136.981 74.6041C135.099 73.3701 134.159 71.5037 134.159 69.0049C134.159 66.8763 134.791 65.2567 136.056 64.1461C137.321 63.0356 139.264 62.3414 141.886 62.0638L148.041 61.416V60.9069C148.041 59.9198 147.64 59.1948 146.838 58.7321C146.036 58.2693 144.879 58.038 143.367 58.038C142.195 58.038 141.038 58.1768 139.897 58.4544C138.786 58.7321 137.783 59.056 136.889 59.4262C136.519 59.1794 136.195 58.8092 135.917 58.3156C135.67 57.7912 135.547 57.2359 135.547 56.6497C135.547 55.2924 136.256 54.3206 137.675 53.7345C138.57 53.3951 139.603 53.1483 140.776 52.9941C141.979 52.809 143.151 52.7164 144.293 52.7164Z" fill="white"/>
<path d="M168.085 75.6221C167.776 75.7147 167.344 75.7918 166.789 75.8535C166.234 75.946 165.617 75.9923 164.938 75.9923C163.55 75.9923 162.547 75.7764 161.93 75.3445C161.313 74.8817 161.005 74.0025 161.005 72.7068V58.5932C161.005 57.7295 161.221 56.9891 161.653 56.3721C162.084 55.7551 162.686 55.2152 163.457 54.7525C164.475 54.1355 165.694 53.6573 167.113 53.318C168.563 52.9478 170.074 52.7627 171.648 52.7627C174.856 52.7627 176.46 53.8424 176.46 56.0019C176.46 56.5263 176.383 57.0045 176.229 57.4364C176.075 57.8683 175.905 58.2385 175.72 58.547C175.01 58.3927 174.147 58.3156 173.129 58.3156C172.234 58.3156 171.339 58.4236 170.445 58.6395C169.55 58.8555 168.763 59.1485 168.085 59.5187V75.6221Z" fill="white"/>
<path d="M187.357 75.6221C187.049 75.7147 186.617 75.7918 186.061 75.8535C185.506 75.946 184.889 75.9923 184.211 75.9923C182.822 75.9923 181.82 75.7764 181.203 75.3445C180.586 74.8817 180.277 74.0025 180.277 72.7068V58.5932C180.277 57.7295 180.493 56.9891 180.925 56.3721C181.357 55.7551 181.958 55.2152 182.73 54.7525C183.748 54.1355 184.966 53.6573 186.385 53.318C187.835 52.9478 189.347 52.7627 190.92 52.7627C194.129 52.7627 195.733 53.8424 195.733 56.0019C195.733 56.5263 195.656 57.0045 195.501 57.4364C195.347 57.8683 195.177 58.2385 194.992 58.547C194.283 58.3927 193.419 58.3156 192.401 58.3156C191.506 58.3156 190.612 58.4236 189.717 58.6395C188.822 58.8555 188.036 59.1485 187.357 59.5187V75.6221Z" fill="white"/>
<path d="M205.204 67.4779C205.636 68.7735 206.391 69.699 207.471 70.2543C208.551 70.7788 209.8 71.041 211.219 71.041C212.515 71.041 213.734 70.8713 214.875 70.532C216.016 70.1618 216.942 69.7607 217.651 69.3288C218.114 69.6373 218.5 70.0384 218.808 70.532C219.117 71.0255 219.271 71.5654 219.271 72.1516C219.271 72.8611 219.055 73.4781 218.623 74.0025C218.191 74.527 217.59 74.9743 216.819 75.3445C216.078 75.6838 215.184 75.9306 214.135 76.0849C213.117 76.2699 211.991 76.3625 210.757 76.3625C208.937 76.3625 207.255 76.1157 205.713 75.6221C204.17 75.0977 202.844 74.3419 201.733 73.3547C200.623 72.3366 199.743 71.0718 199.096 69.5602C198.479 68.0486 198.17 66.2747 198.17 64.2387C198.17 62.2643 198.479 60.5522 199.096 59.1023C199.743 57.6523 200.592 56.4492 201.641 55.4929C202.72 54.5365 203.939 53.8424 205.296 53.4105C206.685 52.9478 208.104 52.7164 209.554 52.7164C211.127 52.7164 212.561 52.9632 213.857 53.4568C215.184 53.9196 216.31 54.5828 217.235 55.4466C218.191 56.3104 218.932 57.3438 219.456 58.547C219.981 59.7501 220.243 61.0612 220.243 62.4803C220.243 63.4674 219.981 64.2078 219.456 64.7014C218.932 65.195 218.191 65.5189 217.235 65.6732L205.204 67.4779ZM209.6 57.9454C208.273 57.9454 207.163 58.3619 206.268 59.1948C205.404 59.9969 204.895 61.1692 204.741 62.7116L213.579 61.2771C213.518 60.4751 213.163 59.7192 212.515 59.0097C211.867 58.3002 210.895 57.9454 209.6 57.9454Z" fill="white"/>
<path d="M239.63 61.4622C239.63 60.3825 239.306 59.5804 238.658 59.056C238.011 58.5315 237.147 58.2693 236.067 58.2693C235.327 58.2693 234.648 58.3619 234.031 58.547C233.414 58.7321 232.843 58.9634 232.319 59.2411V75.6221C232.01 75.7147 231.579 75.7918 231.023 75.8535C230.468 75.946 229.851 75.9923 229.172 75.9923C227.784 75.9923 226.781 75.7764 226.164 75.3445C225.547 74.8817 225.239 74.0025 225.239 72.7068V58.4081C225.239 57.6061 225.409 56.9582 225.748 56.4646C226.087 55.971 226.566 55.5083 227.183 55.0764C228.17 54.3669 229.435 53.7962 230.977 53.3643C232.55 52.9324 234.278 52.7164 236.16 52.7164C239.522 52.7164 242.114 53.4568 243.934 54.9376C245.785 56.4184 246.71 58.5315 246.71 61.2771V75.6221C246.371 75.7147 245.924 75.7918 245.368 75.8535C244.813 75.946 244.196 75.9923 243.517 75.9923C242.129 75.9923 241.126 75.7764 240.509 75.3445C239.923 74.8817 239.63 74.0025 239.63 72.7068V61.4622Z" fill="white"/>
<path d="M276.573 54.4748C276.912 54.3206 277.39 54.1664 278.007 54.0121C278.655 53.827 279.334 53.7345 280.043 53.7345C281.216 53.7345 282.187 53.9041 282.959 54.2435C283.73 54.5828 284.208 55.0918 284.393 55.7705C284.763 57.1279 285.118 58.3927 285.457 59.565C285.797 60.7064 286.121 61.817 286.429 62.8967C286.738 63.9765 287.031 65.0408 287.308 66.0896C287.617 67.1385 287.91 68.2337 288.188 69.3751H288.419C288.728 67.4624 289.005 65.6269 289.252 63.8685C289.499 62.0792 289.73 60.3362 289.946 58.6395C290.193 56.9119 290.424 55.1998 290.64 53.5031C290.856 51.8064 291.072 50.0634 291.288 48.2741C292.275 47.688 293.37 47.3949 294.573 47.3949C295.592 47.3949 296.471 47.6263 297.211 48.089C297.951 48.5209 298.322 49.2613 298.322 50.3102C298.322 50.958 298.245 51.9143 298.09 53.1792C297.967 54.4131 297.782 55.8168 297.535 57.3901C297.288 58.9326 296.995 60.5522 296.656 62.2489C296.347 63.9456 296.008 65.5961 295.638 67.2002C295.298 68.7735 294.944 70.2235 294.573 71.55C294.203 72.8457 293.849 73.8791 293.509 74.6504C293.077 75.0205 292.399 75.3445 291.473 75.6221C290.548 75.8689 289.591 75.9923 288.604 75.9923C287.308 75.9923 286.198 75.8226 285.272 75.4833C284.378 75.1131 283.822 74.6041 283.607 73.9562C283.175 72.6606 282.666 71.041 282.079 69.0975C281.524 67.1231 280.938 65.0099 280.321 62.7579C280.074 63.8685 279.812 64.9791 279.534 66.0896C279.257 67.2002 278.979 68.28 278.701 69.3288C278.424 70.3777 278.146 71.3649 277.869 72.2904C277.622 73.185 277.39 73.9871 277.174 74.6966C276.743 75.036 276.11 75.3445 275.277 75.6221C274.475 75.8689 273.565 75.9923 272.547 75.9923C271.313 75.9923 270.187 75.8072 269.169 75.437C268.182 75.0668 267.534 74.5732 267.225 73.9562C266.948 73.3701 266.639 72.5217 266.3 71.4112C265.992 70.3006 265.652 69.0358 265.282 67.6167C264.943 66.1668 264.588 64.6243 264.218 62.9893C263.878 61.3234 263.539 59.673 263.2 58.038C262.891 56.3721 262.614 54.7525 262.367 53.1792C262.12 51.6059 261.919 50.1714 261.765 48.8757C262.166 48.5363 262.706 48.2124 263.385 47.9039C264.063 47.5646 264.819 47.3949 265.652 47.3949C266.701 47.3949 267.549 47.6417 268.197 48.1353C268.876 48.598 269.308 49.3693 269.493 50.449C269.987 53.3488 270.388 55.8168 270.696 57.8529C271.035 59.8889 271.313 61.6319 271.529 63.0818C271.776 64.5318 271.976 65.7503 272.131 66.7375C272.316 67.7247 272.485 68.6039 272.64 69.3751H272.871C273.179 68.1103 273.473 66.938 273.75 65.8583C274.028 64.7785 274.305 63.6834 274.583 62.5728C274.892 61.4314 275.2 60.2283 275.509 58.9634C275.848 57.6678 276.203 56.1716 276.573 54.4748Z" fill="white"/>
<path d="M324.682 71.041C324.682 72.4909 324.05 73.6015 322.785 74.3727C321.798 74.9897 320.579 75.4679 319.129 75.8072C317.679 76.1774 316.075 76.3625 314.317 76.3625C312.651 76.3625 311.139 76.1774 309.782 75.8072C308.424 75.4679 307.252 74.9126 306.265 74.1413C305.309 73.3701 304.553 72.3983 303.998 71.2261C303.473 70.0538 303.211 68.6347 303.211 66.9689V53.5031C303.55 53.4105 303.997 53.318 304.553 53.2254C305.108 53.1329 305.725 53.0866 306.404 53.0866C307.792 53.0866 308.779 53.318 309.365 53.7807C309.982 54.2435 310.291 55.1227 310.291 56.4184V66.9226C310.291 68.3108 310.646 69.3134 311.355 69.9304C312.065 70.5165 313.067 70.8096 314.363 70.8096C315.165 70.8096 315.828 70.7479 316.353 70.6245C316.908 70.4703 317.324 70.316 317.602 70.1618V53.5031C317.911 53.4105 318.342 53.318 318.898 53.2254C319.453 53.1329 320.07 53.0866 320.749 53.0866C322.137 53.0866 323.14 53.318 323.757 53.7807C324.374 54.2435 324.682 55.1227 324.682 56.4184V71.041Z" fill="white"/>
<path d="M337.647 55.0301H345.513C345.668 55.3386 345.822 55.7242 345.976 56.187C346.161 56.6497 346.254 57.1587 346.254 57.714C346.254 58.7012 346.022 59.4108 345.56 59.8426C345.128 60.2745 344.557 60.4905 343.847 60.4905H337.971V75.6221C337.662 75.7147 337.23 75.7918 336.675 75.8535C336.12 75.946 335.503 75.9923 334.824 75.9923C333.436 75.9923 332.433 75.7764 331.816 75.3445C331.199 74.8817 330.891 74.0025 330.891 72.7068V53.0404C330.891 51.5287 331.137 50.2176 331.631 49.1071C332.156 47.9965 332.865 47.1018 333.76 46.4232C334.654 45.7136 335.703 45.1892 336.906 44.8498C338.109 44.5105 339.405 44.3408 340.793 44.3408C342.984 44.3408 344.603 44.6339 345.652 45.22C346.732 45.7753 347.272 46.7008 347.272 47.9965C347.272 48.5826 347.148 49.1071 346.902 49.5698C346.686 50.0017 346.423 50.341 346.115 50.5878C345.529 50.4027 344.896 50.2485 344.218 50.1251C343.57 50.0017 342.829 49.94 341.996 49.94C340.577 49.94 339.498 50.2022 338.757 50.7266C338.017 51.2202 337.647 52.0686 337.647 53.2717V55.0301ZM356.573 55.0301H364.439C364.594 55.3386 364.748 55.7242 364.902 56.187C365.087 56.6497 365.18 57.1587 365.18 57.714C365.18 58.7012 364.948 59.4108 364.486 59.8426C364.054 60.2745 363.483 60.4905 362.774 60.4905H356.897V75.6221C356.588 75.7147 356.156 75.7918 355.601 75.8535C355.046 75.946 354.429 75.9923 353.75 75.9923C352.362 75.9923 351.359 75.7764 350.742 75.3445C350.125 74.8817 349.817 74.0025 349.817 72.7068V53.0404C349.817 51.5287 350.064 50.2176 350.557 49.1071C351.082 47.9965 351.791 47.1018 352.686 46.4232C353.58 45.7136 354.629 45.1892 355.832 44.8498C357.036 44.5105 358.331 44.3408 359.719 44.3408C361.91 44.3408 363.529 44.6339 364.578 45.22C365.658 45.7753 366.198 46.7008 366.198 47.9965C366.198 48.5826 366.074 49.1071 365.828 49.5698C365.612 50.0017 365.349 50.341 365.041 50.5878C364.455 50.4027 363.822 50.2485 363.144 50.1251C362.496 50.0017 361.756 49.94 360.923 49.94C359.504 49.94 358.424 50.2022 357.683 50.7266C356.943 51.2202 356.573 52.0686 356.573 53.2717V55.0301Z" fill="white"/>
<path d="M376.286 67.4779C376.718 68.7735 377.474 69.699 378.553 70.2543C379.633 70.7788 380.882 71.041 382.302 71.041C383.597 71.041 384.816 70.8713 385.957 70.532C387.099 70.1618 388.024 69.7607 388.734 69.3288C389.196 69.6373 389.582 70.0384 389.891 70.532C390.199 71.0255 390.353 71.5654 390.353 72.1516C390.353 72.8611 390.137 73.4781 389.705 74.0025C389.274 74.527 388.672 74.9743 387.901 75.3445C387.16 75.6838 386.266 75.9306 385.217 76.0849C384.199 76.2699 383.073 76.3625 381.839 76.3625C380.019 76.3625 378.337 76.1157 376.795 75.6221C375.252 75.0977 373.926 74.3419 372.815 73.3547C371.705 72.3366 370.826 71.0718 370.178 69.5602C369.561 68.0486 369.252 66.2747 369.252 64.2387C369.252 62.2643 369.561 60.5522 370.178 59.1023C370.826 57.6523 371.674 56.4492 372.723 55.4929C373.803 54.5365 375.021 53.8424 376.378 53.4105C377.767 52.9478 379.186 52.7164 380.636 52.7164C382.209 52.7164 383.644 52.9632 384.939 53.4568C386.266 53.9196 387.392 54.5828 388.317 55.4466C389.274 56.3104 390.014 57.3438 390.538 58.547C391.063 59.7501 391.325 61.0612 391.325 62.4803C391.325 63.4674 391.063 64.2078 390.538 64.7014C390.014 65.195 389.274 65.5189 388.317 65.6732L376.286 67.4779ZM380.682 57.9454C379.355 57.9454 378.245 58.3619 377.35 59.1948C376.486 59.9969 375.977 61.1692 375.823 62.7116L384.662 61.2771C384.6 60.4751 384.245 59.7192 383.597 59.0097C382.949 58.3002 381.978 57.9454 380.682 57.9454Z" fill="white"/>
<path d="M403.401 68.3108C403.401 69.1746 403.679 69.807 404.234 70.208C404.789 70.5782 405.561 70.7633 406.548 70.7633C407.01 70.7633 407.504 70.7171 408.029 70.6245C408.553 70.5011 409 70.3623 409.37 70.208C409.648 70.5165 409.879 70.8713 410.065 71.2723C410.25 71.6734 410.342 72.1361 410.342 72.6606C410.342 73.7403 409.91 74.6349 409.047 75.3445C408.214 76.0232 406.748 76.3625 404.651 76.3625C402.059 76.3625 400.039 75.7764 398.589 74.6041C397.139 73.401 396.414 71.4574 396.414 68.7735V47.9965C396.753 47.9039 397.2 47.8114 397.756 47.7188C398.311 47.5954 398.913 47.5337 399.56 47.5337C400.918 47.5337 401.889 47.7805 402.476 48.2741C403.093 48.7369 403.401 49.6006 403.401 50.8655V53.8733H409.787C409.941 54.1818 410.095 54.5828 410.25 55.0764C410.404 55.5392 410.481 56.0327 410.481 56.5572C410.481 57.5444 410.25 58.2539 409.787 58.6858C409.355 59.1177 408.784 59.3336 408.075 59.3336H403.401V68.3108Z" fill="white"/>
<path d="M55.2721 25.3668C56.2734 24.6966 57.4762 24.4763 58.5908 24.0654C57.8483 24.7682 57.0706 25.4421 56.4358 26.248C56.1574 26.6886 55.9152 27.1561 55.6331 27.5977C55.2925 28.1108 55.2433 28.74 55.0224 29.3033C54.7521 30.0737 54.7643 30.9152 55.0568 31.6774C53.8865 32.0799 52.6327 32.1719 51.481 32.6292C51.9673 32.0148 52.2308 31.2712 52.6076 30.5917C52.7797 30.2421 52.9117 29.8741 53.0011 29.4948C52.4591 29.9085 52.2448 30.5889 51.7575 31.0499C51.2536 31.5733 50.8972 32.2146 50.5761 32.8597C50.371 33.2436 50.1826 33.6703 49.8096 33.9213C49.5664 34.0774 49.3084 34.2094 49.0625 34.3609C48.6476 33.9092 48.3405 33.3635 47.8616 32.9731C47.5284 32.6543 47.0727 32.5344 46.6486 32.3922C46.9994 32.0204 47.3669 31.6569 47.7085 31.2767C48.1335 30.772 48.6875 30.3983 49.1089 29.8899C49.6128 29.2699 50.3543 28.9139 50.8917 28.3273C51.1408 28.0703 51.4297 27.8553 51.7473 27.6906C52.1186 27.4898 52.397 27.1673 52.7357 26.92C53.0039 26.7202 53.2842 26.5371 53.5598 26.3456C54.0972 25.9663 54.7199 25.7284 55.2721 25.3668Z" fill="#FDFDFD"/>
<path d="M39.8849 32.0755C40.2292 31.9965 40.5893 32.0253 40.941 32.0271C41.1109 32.0439 41.3178 32.0271 41.4394 32.174C41.5749 32.4798 41.3522 32.7745 41.2028 33.0264C40.3796 34.2878 39.6251 35.59 38.7982 36.8496C38.3833 37.4937 38.0743 38.203 37.5917 38.8016C37.2966 39.1464 37.1769 39.7014 36.6896 39.8306C36.2869 40.0025 35.8433 39.97 35.4182 39.9235C35.6901 39.3054 36.0595 38.7384 36.3862 38.15C37.5416 36.1208 38.6887 34.0814 39.8849 32.0755Z" fill="#FDFDFD"/>
<path d="M58.7475 32.5147C59.4407 32.4515 60.134 32.3911 60.83 32.3623C60.5115 32.9766 60.1365 33.5598 59.7098 34.1042C59.372 34.5123 59.2746 35.0579 58.9488 35.4734C58.6377 35.883 58.3483 36.3087 58.082 36.7488C57.7452 37.2582 57.5141 37.8307 57.141 38.3169C56.7234 38.8514 56.444 39.4732 56.0793 40.0421C55.7814 40.5998 55.348 41.0813 55.0891 41.6632C54.9035 42.075 54.625 42.431 54.3949 42.8158C54.0794 43.3336 53.7805 43.8615 53.5058 44.4016C52.9054 43.9824 52.4683 43.3912 52.0933 42.7721C52.4444 42.0022 52.8802 41.2739 53.3926 40.6007C53.7588 39.876 54.1893 39.1857 54.6789 38.5381C55.0158 38.1338 55.1429 37.6086 55.4622 37.1903C55.7595 36.8215 56.0116 36.4183 56.2129 35.9893C56.5461 35.1974 57.0825 34.516 57.5484 33.8012C57.7628 33.4406 57.8361 33.0213 58.0004 32.6402C58.225 32.4952 58.5034 32.5464 58.7475 32.5147Z" fill="#FDFDFD"/>
<path d="M31.3839 34.7193C31.7143 34.1291 32.325 33.7898 32.841 33.3799C32.3586 34.1883 31.8196 34.9614 31.228 35.6935C31.2187 35.3644 31.203 35.0112 31.3839 34.7193Z" fill="#FDFDFD"/>
<path d="M49.004 36.7366L49.0968 36.6836C49.6007 37.4793 49.7771 38.4302 49.8021 39.3588C49.9386 40.372 50.1149 41.3917 50.4824 42.3491C50.7088 42.8306 50.8276 43.3716 51.1645 43.7945C51.5266 44.2651 51.9168 44.7133 52.3329 45.1368C52.6828 45.4649 53.1431 45.6276 53.5394 45.886C54.0368 46.2159 54.6252 46.3619 55.1356 46.6696C54.8711 46.9484 54.5658 47.2208 54.1788 47.3128C53.622 47.5043 53.0215 47.4838 52.4415 47.5582C53.3937 48.101 54.5593 48.0527 55.5653 47.692C56.0294 47.561 56.3143 47.1427 56.6103 46.7941C57.4864 46.98 58.3838 47.0107 59.2748 47.0497C59.9931 47.1427 60.7179 47.1018 61.4399 47.1092C63.2097 47.1213 64.9934 47.0925 66.7372 46.7504C68.2147 46.5329 69.7023 46.1667 70.9933 45.3887C71.5422 46.2159 72.0056 47.097 72.3761 48.0183C72.7343 48.9646 72.7083 49.9908 72.7417 50.9854C72.7547 51.9471 72.7238 52.9076 72.6489 53.8669C72.5728 54.9628 72.17 55.9974 71.9445 57.0654C71.7589 57.9262 71.564 58.7832 71.396 59.6468C71.2967 60.1301 71.0991 60.5847 70.9534 61.0541C70.5738 62.3034 70.0875 63.5164 69.707 64.7657C69.4898 64.537 69.2717 64.3093 69.0648 64.0723C68.7492 63.7051 68.3344 63.4402 68.0263 63.0656C67.5715 62.5079 66.9126 62.176 66.3985 61.6778C66.7994 61.0587 66.8625 60.3021 67.0045 59.5966C67.1836 58.6921 67.1715 57.7672 67.1437 56.8507C67.0379 55.6368 66.753 54.3763 65.9836 53.4031C65.5196 52.9383 65.1131 52.3481 64.4561 52.1519C63.3749 51.7504 62.174 51.9326 61.1151 52.3174C60.4218 52.6502 59.7722 53.0666 59.117 53.4672C58.6969 53.6625 58.2874 53.8797 57.8901 54.1179C57.182 54.5827 56.4358 54.9842 55.7936 55.5392C54.9927 56.227 54.0294 56.6732 53.2137 57.3425C52.6076 57.8072 51.9144 58.1381 51.2647 58.5425C50.3664 59.1002 49.3437 59.4014 48.3924 59.8513C47.0133 60.3932 45.573 60.8514 44.0779 60.8849C42.129 60.9156 40.1653 60.9546 38.2312 60.6525C37.1862 60.4331 36.2015 60.0018 35.2215 59.5901C34.7204 59.3874 34.1932 59.1718 33.8452 58.7367C33.358 58.1279 32.7316 57.586 32.5023 56.8145C32.2815 55.699 32.6517 54.5734 33.0053 53.5239C33.1514 53.2567 33.3518 53.023 33.5934 52.8379C33.8351 52.6529 34.1127 52.5205 34.4086 52.4494C35.564 52.098 36.7853 52.336 37.9648 52.1529C38.466 52.098 38.9476 51.94 39.4386 51.8322C39.9704 51.7216 40.3713 51.334 40.788 51.0142C41.4645 50.4862 41.8441 49.6961 42.2617 48.9692C42.7597 48.1498 42.9933 47.1965 42.9308 46.2392C42.9358 46.0007 42.8886 45.7639 42.7924 45.5457C42.6962 45.3274 42.5534 45.133 42.374 44.976C42.0622 44.7845 41.677 44.8031 41.3383 44.6878C40.6432 44.4405 40.0001 44.0724 39.3346 43.7583C38.1885 43.3186 37.0971 42.7302 35.9009 42.4244C34.4327 42.0423 32.945 41.6808 31.4249 41.5971C32.0745 41.2783 32.79 41.1258 33.4972 40.9873C34.1366 40.8814 34.7519 40.6657 35.3941 40.5755C36.7018 40.3776 38.0233 40.2112 39.3486 40.2632C39.9941 40.2603 40.636 40.3588 41.2511 40.5551C41.962 40.7968 42.7192 40.9111 43.3921 41.2588C43.8199 41.4665 44.2291 41.7106 44.6153 41.9884C45.0997 42.3212 45.6361 42.6614 45.8774 43.2229C46.0397 43.577 46.2229 43.9212 46.4259 44.2537C46.8379 45.0066 46.9456 45.8683 47.1683 46.6844C47.2556 46.0431 47.2119 45.3942 47.185 44.7501C47.1451 43.8205 46.6811 42.9737 46.089 42.284C45.4199 41.3294 44.3805 40.7364 43.3392 40.2707C42.9369 40.1159 42.5249 39.9876 42.1058 39.8868C43.4348 39.8291 44.7721 39.9639 46.0964 39.765C46.6375 39.6776 47.2528 39.6497 47.6565 39.2268C48.2885 38.5064 48.5873 37.5806 49.004 36.7366ZM45.6036 51.3637C45.3252 51.4622 45.0384 51.6091 44.8983 51.8824C44.7248 52.1696 44.7591 52.5191 44.7675 52.8398C44.7851 53.4905 45.4171 54.0054 46.0398 54.0036C46.6969 53.9339 47.353 53.3575 47.2927 52.6539C47.288 52.2393 47.2129 51.7244 46.8017 51.518C46.4389 51.3432 45.999 51.228 45.6036 51.3637ZM40.7963 54.9368C40.6274 55.2157 40.7156 55.5615 40.7527 55.8664C40.6831 56.2112 40.93 56.6314 41.3049 56.6425C41.6108 56.6621 41.918 56.6452 42.22 56.5923C42.6097 56.464 43.0431 56.2205 43.1564 55.7966C43.2807 55.3124 43.1907 54.7435 42.825 54.3828C42.591 54.1603 42.2819 54.0342 41.9592 54.0296C41.4274 54.0807 41.0432 54.499 40.7954 54.9368H40.7963ZM46.0862 55.0112C45.6064 55.1543 45.1916 55.5689 45.1767 56.0876C45.2027 57.0998 46.476 57.9355 47.3604 57.3174C47.9108 56.8526 48.0416 55.9426 47.5924 55.3709C47.2398 54.9257 46.5939 54.803 46.0825 55.0112H46.0862ZM40.2302 57.1277C39.6483 57.1584 38.9736 57.507 38.8743 58.1344C38.8354 58.5062 38.8205 58.945 39.0971 59.2359C39.2524 59.3888 39.4389 59.5064 39.6437 59.5807C39.8485 59.6549 40.0669 59.6841 40.284 59.6663C40.7481 59.5501 41.2047 59.2275 41.3411 58.7451C41.5072 58.3361 41.2956 57.8927 41.033 57.5786C40.8307 57.3425 40.5569 57.1036 40.2265 57.1277H40.2302ZM43.4097 59.3447C43.458 59.9544 43.9201 60.5531 44.5549 60.6023C45.0765 60.5493 45.5544 60.303 46.0677 60.2036C46.0574 59.8652 46.1085 59.5185 46.0194 59.1876C45.949 58.9735 45.8363 58.7759 45.6878 58.6066C45.5393 58.4373 45.3582 58.2998 45.1554 58.2023C44.3972 57.9262 43.4895 58.5508 43.406 59.3447H43.4097ZM46.4157 60.1812C46.7 60.1317 46.9808 60.0641 47.2565 59.9786C46.9694 60.0216 46.6868 60.0904 46.412 60.184L46.4157 60.1812Z" fill="#FDFDFD"/>
<path d="M28.7937 48.0915C28.9404 47.4408 29.2253 46.8403 29.4369 46.2129C29.5983 46.9231 29.5983 47.6602 29.5371 48.3815C29.332 49.417 28.8485 50.3707 28.3974 51.3114C28.2118 50.9842 27.7478 50.6189 28.0132 50.2192C28.39 49.5573 28.6202 48.8286 28.7937 48.0915Z" fill="#FDFDFD"/>
<path d="M34.003 48.2494C33.7125 47.6443 34.1598 47.041 34.3863 46.5C34.6285 47.1507 34.8809 47.8013 35.2456 48.3944C35.8025 49.2031 36.7444 49.5647 37.4822 50.1651C37.2551 50.3152 36.9941 50.4062 36.723 50.4297C36.4519 50.4532 36.1792 50.4086 35.9296 50.2999C35.0702 49.8742 34.4206 49.1036 34.003 48.2494Z" fill="#FDFDFD"/>
<path d="M26.2491 51.6089C26.4615 51.277 26.7018 50.9639 26.9674 50.6729C26.9989 50.9433 26.9813 51.2501 27.1688 51.4713C27.4639 51.8534 27.9437 51.9993 28.3372 52.2503C28.7307 52.5012 29.1427 52.7745 29.6021 52.9158C30.3789 53.1835 31.2726 53.1761 31.9222 53.7468C31.8294 54.1976 31.7097 54.641 31.629 55.0937C31.525 56.0967 31.6596 57.1136 31.5724 58.1138C31.3413 58.4577 31.0963 58.9225 30.6443 58.9782C30.2193 58.8183 29.9158 58.454 29.6105 58.1342C29.2903 57.7968 29.0991 57.3655 28.9664 56.9258C28.8903 56.6934 28.8068 56.4276 28.5738 56.3086C28.0495 55.9972 27.3822 56.0576 26.8412 56.2937C26.5039 56.4296 26.1482 56.5139 25.786 56.5438C25.6594 55.7188 25.6304 54.8817 25.6997 54.0498C25.7628 53.5544 25.863 53.0617 25.8611 52.5626C25.8546 52.2019 26.0727 51.9017 26.2491 51.6089ZM27.321 52.4724C27.2017 52.5314 27.103 52.6251 27.0378 52.7412C26.9725 52.8573 26.9438 52.9904 26.9553 53.1231C26.9932 53.5695 27.0621 54.0127 27.1613 54.4495C27.2189 54.76 27.5725 54.852 27.8444 54.8465C28.1794 54.8362 28.5404 54.8167 28.8393 54.6531C29.0462 54.3966 29.1631 54.0331 29.0685 53.7078C28.9757 53.3192 28.6917 53.0116 28.4012 52.7531C28.1015 52.518 27.6922 52.306 27.321 52.4724Z" fill="#FDFDFD"/>
<path d="M70.6452 65.8727C71.4145 65.5938 72.2359 65.5938 73.0433 65.6031C74.1997 65.5637 75.343 65.8583 76.3369 66.4518C76.5968 66.6144 76.9244 66.7408 77.0497 67.0457C77.4339 67.9344 77.3281 68.9689 76.9151 69.8288C77.639 70.1076 78.4343 70.5584 78.6348 71.3746C78.7424 72.0819 78.7109 72.8525 78.3564 73.4911C78.064 74.0683 77.4339 74.3649 77.1443 74.9468C77.523 75.3725 78.1373 75.6467 78.27 76.2481C78.2274 77.3979 77.51 78.6472 76.3211 78.8963C74.31 79.3871 72.1746 79.1668 70.2248 78.518C69.7877 78.386 69.3626 78.0421 69.3394 77.5541C69.3069 77.0949 69.6967 76.7668 70.0568 76.5604C70.4447 76.3522 70.8633 76.1942 71.2066 75.9098C71.6206 75.5649 72.2618 75.4013 72.3751 74.7943C71.7467 74.7873 71.119 74.8367 70.4995 74.9421C70.0206 75.0193 69.5009 74.9337 69.1278 74.6047C68.454 74.0767 68.2332 73.2104 68.0438 72.4138C68.5515 71.725 69.3431 71.3513 70.0763 70.9544C70.5329 70.6895 71.0637 70.6272 71.5714 70.5213C71.4257 70.353 71.3032 70.1494 71.0999 70.0425C70.4763 69.9496 69.822 69.8864 69.2828 69.5267C68.5812 69.1344 68.1469 68.4307 67.7979 67.7299C68.0902 67.385 68.2981 66.9351 68.726 66.7399C69.3719 66.4564 69.9426 66.0084 70.6452 65.8727Z" fill="#FDFDFD"/>
<path d="M42.1586 68.5673C42.2829 68.4279 42.4166 68.2978 42.5428 68.1611C42.4927 68.8443 42.1437 69.4495 41.9015 70.076C41.7973 70.3757 41.6027 70.6355 41.3447 70.8196C40.8546 71.1756 40.3999 71.5865 39.8783 71.8951C39.4496 71.9741 39.0078 71.9676 38.5726 71.988C39.0277 71.8649 39.4742 71.7115 39.909 71.5288C40.4714 71.2964 40.8881 70.8317 41.2862 70.3883C41.7521 69.8817 41.9581 69.2115 42.1586 68.5673Z" fill="#FDFDFD"/>
<path d="M30.301 70.5417C31.0824 69.7293 32.2267 69.4114 33.3199 69.3398C34.1357 69.3008 34.9783 69.3593 35.7421 69.6698C36.6553 70.1392 36.8669 71.3838 36.4938 72.2725C36.3426 72.6015 35.937 72.5002 35.6586 72.4584C34.8633 72.2799 34.0206 72.239 33.2336 72.4779C32.8048 72.6285 32.4596 72.9427 32.1274 73.2373C32.5561 73.3768 33.0109 73.3461 33.4452 73.2541C34.2507 73.07 35.0925 73.1289 35.8646 73.4232C36.4307 73.6854 36.9996 74.1325 37.1296 74.7776C37.2725 75.3037 37.0989 75.9255 36.6535 76.2555C36.2682 76.5693 35.8145 76.7877 35.3291 76.8932C34.9691 76.9861 34.5654 76.975 34.248 77.1869C33.9445 77.5215 34.1282 78.0133 34.1691 78.4111C34.2639 78.1856 34.4178 77.9901 34.6145 77.845C35.1018 77.6926 35.6215 77.6935 36.1124 77.5513C36.5764 77.4583 37.0702 77.2511 37.5361 77.4258C38.1393 77.6526 38.4363 78.2624 38.6803 78.8136C38.4019 79.0339 38.1421 79.2784 37.8627 79.5061C37.5398 79.7654 37.3486 80.2144 36.9152 80.3157C36.3778 80.4356 35.8201 80.4161 35.2735 80.4672C34.4382 80.5128 33.5102 80.5602 32.7993 80.0499C32.5201 79.8645 32.2843 79.6208 32.1081 79.3355C31.9319 79.0502 31.8194 78.7301 31.7784 78.3972C31.72 78.2419 31.771 77.9891 31.5742 77.9324C31.1473 77.8394 30.674 77.9575 30.275 77.7465C30.0501 77.5853 29.8503 77.3918 29.682 77.172C29.5632 76.8514 29.81 76.5595 29.9511 76.2908C29.7228 76.1142 29.462 75.919 29.4165 75.616C29.2875 75.1996 29.5038 74.785 29.7766 74.4829C30.0235 74.2161 30.1905 73.8917 30.3613 73.5748C30.0745 73.1314 29.7358 72.6982 29.5938 72.1805C29.6443 71.5715 29.8927 70.9958 30.301 70.5417Z" fill="#FDFDFD"/>
<path d="M50.0713 95.6807C50.6021 95.9512 51.2926 95.9512 51.6898 96.4438C52.1148 96.9197 52.3292 97.5332 52.6763 98.0621C52.9027 98.4442 53.2331 98.776 53.3482 99.2147C53.5542 100.039 53.5282 100.895 53.5106 101.737C53.4921 101.933 53.5153 102.166 53.3566 102.313C53.119 102.343 52.8508 102.328 52.6689 102.152C52.4359 101.936 52.3171 101.633 52.1714 101.358C52.0786 101.688 51.9608 102.064 51.6146 102.208C50.6067 102.698 49.545 103.197 48.3998 103.191C47.9469 103.191 47.4885 103.21 47.0412 103.131C46.8676 102.989 46.8732 102.735 46.8361 102.532C46.7748 101.541 46.7665 100.513 47.121 99.5698C47.2815 99.1162 47.6667 98.8057 48.0082 98.4897C48.0722 98.4219 48.1938 98.3586 48.101 98.2601C47.7641 98.1569 47.378 98.1225 47.0588 98.2973C46.8435 98.4832 46.6987 98.7444 46.5298 98.9749C46.2635 99.3374 46.2245 99.7976 46.1586 100.229C46.0138 101.113 46.0444 102.014 46.1048 102.906C45.4412 102.778 44.7442 102.664 44.1623 102.301C43.8839 101.884 43.7661 101.336 43.9294 100.852C44.2422 99.5828 45.0282 98.5018 45.8393 97.5053C45.9507 97.3659 45.7966 97.2014 45.7688 97.0601C45.4745 97.1995 45.1901 97.3592 44.9178 97.5379C44.6654 97.0322 45.0431 96.5368 45.2807 96.1092C46.3219 95.9103 47.4152 95.6593 48.4657 95.9326C48.9955 96.0835 49.546 96.1487 50.0963 96.1259C50.0898 95.9763 50.0805 95.8247 50.0713 95.6807Z" fill="#FDFDFD"/>
<path d="M86.7524 96.3051C87.7958 95.9045 88.9056 95.7058 90.0229 95.7195C90.7941 95.7297 91.5662 95.6767 92.3356 95.7344C92.9481 95.7809 93.4548 96.1648 93.9133 96.5356C94.3986 96.9223 94.6056 97.5284 94.9063 98.0508C95.1615 98.4811 95.2914 98.9682 95.4557 99.4376C95.7146 100.142 95.5207 100.94 95.1402 101.562C94.7773 102.095 94.1193 102.272 93.5272 102.394C93.6367 101.777 93.6098 101.145 93.5625 100.525C93.4966 99.4534 93.2135 98.325 92.4609 97.5237C92.3393 97.3982 92.2159 97.2607 92.0479 97.204C91.8001 97.1538 91.5987 97.348 91.3983 97.4522C91.6665 97.824 91.9727 98.1688 92.1407 98.6001C92.3263 99.0872 92.627 99.5352 92.717 100.058C92.8822 100.92 92.988 101.853 92.6456 102.688C92.6056 102.856 92.4163 102.885 92.2799 102.939C91.801 103.08 91.3082 103.164 90.8238 103.276C90.9368 102.472 90.8892 101.653 90.6837 100.868C90.5222 100.317 90.4544 99.7174 90.099 99.2471C89.8094 98.8576 89.6099 98.3631 89.1654 98.1214C89.0289 98.0192 88.8749 98.1381 88.7347 98.1549C88.9658 98.9859 89.5087 99.6784 89.7649 100.5C90.041 101.229 90.1834 102.002 90.1853 102.782C89.5078 102.795 88.7876 102.864 88.1742 102.516C87.4828 102.165 86.6893 102.08 86.023 101.664C85.4801 101.326 84.8657 101.036 84.4926 100.495C84.269 100.184 84.2439 99.7871 84.2625 99.4181C84.4778 98.918 84.6662 98.4021 84.9288 97.9244C85.3752 97.2402 85.9608 96.5849 86.7524 96.3051Z" fill="#FDFDFD"/>
<path d="M42.6523 101.072C42.4726 99.7912 42.7627 98.4884 43.469 97.4053C43.5226 98.1985 43.535 98.994 43.5061 99.7886C43.4736 100.253 43.3483 100.713 43.3112 101.183C43.3001 101.592 43.3938 101.994 43.4365 102.4C43.0247 102.066 42.7464 101.595 42.6523 101.072Z" fill="#FDFDFD"/>
<path d="M72.0378 17.4298C72.6698 17.177 73.3612 16.8461 74.0508 17.0794C74.6531 17.2922 75.2925 17.4958 75.7575 17.9568C76.2057 18.3947 76.8015 18.6308 77.2498 19.0658C77.9393 19.6597 78.6548 20.2314 79.4511 20.6767C79.9151 20.9406 80.2863 21.3589 80.7838 21.5737C81.5179 21.8376 82.1415 22.3229 82.8255 22.6891C83.3257 23.0795 83.9707 23.178 84.496 23.5164C84.986 23.8036 85.5066 24.0341 85.9809 24.3427C86.3753 24.6076 86.8597 24.6792 87.2653 24.9246C88.2481 25.5613 89.2931 26.1395 90.0912 27.0161C90.3167 27.268 90.5116 27.5738 90.5339 27.9168C90.6267 28.7534 90.3186 29.5602 89.9668 30.2992C89.3933 31.3347 88.8532 32.4074 88.0384 33.2811C87.54 33.7812 87.2189 34.4282 86.6871 34.8985C86.1099 35.3763 85.7451 36.0688 85.1094 36.4787C84.6537 36.7576 84.393 37.2465 83.9828 37.5793C83.4464 38.0385 82.8626 38.4586 82.4357 39.0293C82.3067 39.1613 82.4162 39.3324 82.4533 39.4783C82.6761 40.0593 82.7605 40.6867 82.8051 41.3011C82.8245 41.5792 82.7862 41.8583 82.6926 42.1208C82.599 42.3833 82.4521 42.6236 82.2612 42.8265C81.8362 43.2652 81.4213 43.7328 80.9016 44.0618C80.2026 44.4326 79.5236 44.84 78.8673 45.2823C78.6697 45.4022 78.6984 45.6681 78.6576 45.867C78.5732 46.8272 78.3087 47.7586 78.175 48.7123C78.0024 49.4392 77.878 50.1772 77.711 50.906C77.4168 51.9359 77.2785 53.0077 76.8943 54.0125C76.5704 55.2209 75.9848 56.3363 75.5848 57.5168C75.4169 57.963 75.1032 58.4463 75.3064 58.9325C75.4456 59.2931 75.5932 59.651 75.7398 60.0098C75.867 60.3547 76.2187 60.5136 76.4674 60.7534C76.9157 61.1987 77.117 61.8178 77.5226 62.2974C77.8818 62.7315 78.0525 63.2892 78.4293 63.7112C78.7374 64.1044 79.1931 64.3294 79.6089 64.5868C80.4673 65.1957 81.3072 65.8454 81.9949 66.6504C82.6009 67.3652 83.2208 68.1033 83.5466 68.9956C83.7498 69.5003 84.0403 69.9744 84.1517 70.5126C84.2389 70.9374 84.3067 71.3659 84.367 71.7954C84.5368 72.9201 84.2862 74.0829 83.7702 75.0868C83.6097 75.4382 83.3062 75.692 83.0631 75.9792C82.7178 76.3724 82.2278 76.5899 81.7805 76.8325C81.2599 77.1207 80.678 77.2638 80.1369 77.5027C79.694 77.6941 79.2346 77.8447 78.7643 77.9526C78.7014 78.2809 78.6193 78.6053 78.5184 78.9239C79.0752 78.5596 79.7462 78.4722 80.3365 78.1803C81.4399 77.775 82.4487 77.1513 83.5707 76.7944C84.7699 76.4731 86.0137 76.3516 87.2523 76.4347C87.6235 76.4635 87.9808 76.5871 88.3344 76.7024L88.3047 76.839C87.2838 77.3865 86.3855 78.1348 85.4862 78.8626C85.0649 79.187 84.805 79.6657 84.4106 80.018C84.0626 80.3331 83.8538 80.7616 83.5633 81.126C83.1684 81.6166 82.8613 82.172 82.6557 82.7676C82.8626 83.1468 83.1967 83.434 83.4593 83.7733C83.9662 84.4065 84.3927 85.1003 84.7289 85.8387C84.9535 86.3156 85.0073 86.8473 85.1735 87.3464C85.3832 87.9739 85.3841 88.6422 85.5029 89.2882C85.6346 89.9691 85.7063 90.6602 85.7173 91.3537C86.1683 91.6195 86.6008 91.9114 87.0676 92.1549C87.4351 92.3595 87.7639 92.6269 88.0393 92.945C88.4281 93.3726 89.0601 93.5167 89.3627 94.0298C89.6411 94.4397 90.0123 94.9547 90.5794 94.9017C91.5417 94.8961 92.5524 94.8301 93.4563 95.2186C94.3964 95.7234 95.2113 96.5339 95.5843 97.549C95.9251 98.2949 96.1897 99.0735 96.3741 99.8728C96.4446 100.59 96.1996 101.3 95.9101 101.946C95.6744 102.485 95.1157 102.728 94.6266 102.981C93.7486 103.438 92.7658 103.616 91.8137 103.849C90.7362 103.971 89.6365 104.074 88.5581 103.902C87.7766 103.809 87.0277 103.561 86.2546 103.425C85.0565 103.084 83.9132 102.574 82.7058 102.26C82.2055 102.116 81.6376 101.988 81.3026 101.555C80.9536 100.892 80.9007 100.123 80.6325 99.4294C80.2409 98.5203 80.0645 97.4979 79.4771 96.6808C79.1957 96.3022 78.9432 95.9029 78.7216 95.4864C78.433 94.9091 77.9365 94.4806 77.5152 94.0056C77.0894 93.5325 76.6237 93.0971 76.1231 92.7043C75.7686 92.4254 75.4688 92.0536 75.0224 91.9207C74.461 91.7348 74.0016 91.3155 73.4178 91.2049C73.0206 91.1203 72.6188 90.9986 72.2114 91.0432C71.4995 91.1083 70.7785 91.2393 70.1446 91.587C69.6314 91.8705 69.069 92.0778 68.6142 92.4579C68.29 92.727 67.9442 92.9689 67.5804 93.1811C66.8695 93.5752 66.1837 94.0112 65.4978 94.4443C65.0756 94.7232 64.5698 94.7966 64.1225 95.0197C63.7512 95.2056 63.3485 95.3283 62.9596 95.4771C62.2302 95.781 61.446 95.9111 60.6775 96.0747C60.5504 96.1073 60.4075 96.1314 60.3165 96.2365C59.9203 96.6548 59.6567 97.1772 59.2818 97.6131C58.9978 97.9543 58.8716 98.3874 58.6674 98.775C58.1384 99.659 58.027 100.707 57.8015 101.692C57.5649 101.912 57.2103 101.939 56.9171 102.054C55.8034 102.455 54.609 102.612 53.5111 103.077C53.0685 103.263 52.5831 103.189 52.1191 103.1C51.7098 103.007 51.3636 103.299 51.0147 103.461C50.3196 103.85 49.5066 103.894 48.7326 103.989C47.76 104.021 46.7521 104.005 45.8343 103.639C44.793 103.341 43.6849 103.235 42.704 102.743C42.2344 102.451 42.0488 101.878 41.9411 101.364C41.7769 100.628 41.7481 99.8486 41.9541 99.1171C42.1007 98.6096 42.214 98.0807 42.4915 97.6233C42.7439 97.1985 43.0195 96.7868 43.3063 96.388C43.5142 96.0868 43.8631 95.9548 44.1712 95.7773C45.8621 94.7483 48.0746 94.765 49.8323 95.6286C49.3386 95.3162 48.844 94.9993 48.2816 94.8245C47.4774 94.4563 46.7096 94.0131 45.9883 93.5009C45.6078 93.2267 45.1587 93.0528 44.819 92.7238C44.2789 92.207 43.6515 91.7943 43.1142 91.2709C42.4998 90.6472 41.8632 90.0393 41.3286 89.3412C41.0502 88.9694 40.665 88.6905 40.4637 88.263C40.1583 87.5798 39.6284 87.0341 39.2971 86.3667C38.8683 85.7235 38.6735 84.9724 38.305 84.2948C38.0266 83.619 37.7482 82.9395 37.505 82.2498C36.7626 82.4078 36.0378 82.6616 35.2777 82.6477C34.4425 82.6402 33.5692 82.7304 32.772 82.4218C32.3079 82.2526 31.7595 82.0862 31.508 81.6187C31.2536 81.1457 31.028 80.6577 30.8323 80.1574C30.6375 79.6694 30.5911 79.1405 30.5047 78.6265C30.0778 78.4945 29.6092 78.4043 29.2639 78.1013C28.9243 77.7639 28.9168 77.2545 28.8491 76.812C28.8073 76.311 28.6282 75.8277 28.6421 75.3248C28.7073 74.7043 28.9584 74.1182 29.3623 73.6433C29.1015 73.2594 28.8454 72.842 28.8305 72.3633C28.7981 71.7312 28.8435 71.0331 29.2649 70.5247C29.5776 70.1324 29.8913 69.729 30.2857 69.4176C30.8611 69.0932 31.5154 68.9528 32.1316 68.726C32.4861 67.962 32.5455 67.0947 32.8202 66.3009C32.9938 65.4683 33.2423 64.6532 33.5627 63.8655C33.6954 63.5597 33.7993 63.2437 33.9042 62.9286C32.7358 63.2074 31.4746 63.2195 30.346 62.7761C29.8997 62.5447 29.4384 62.3392 29.0069 62.0827C28.0788 61.38 27.1044 60.6884 26.4919 59.6724C25.9257 58.9288 25.5861 58.0383 25.4097 57.1236C25.0933 56.1337 25.0933 55.0768 25.1304 54.0441C25.1703 53.5152 25.316 53.0021 25.4255 52.4862C25.6631 51.2778 26.7387 50.5509 27.5285 49.7078C27.1573 49.429 26.8083 49.1194 26.4083 48.8805C26.1217 48.7166 25.8822 48.4813 25.7132 48.1973C25.3225 47.489 24.9856 46.7091 25.0005 45.8781C25.0617 44.7627 25.4394 43.5887 26.335 42.8665C27.3336 42.0968 28.554 41.6432 29.7966 41.4722C30.2607 41.4071 30.7887 41.4378 31.1479 41.0892C31.3335 40.8354 31.3196 40.498 31.288 40.1996C31.1525 39.0842 31.0096 37.9734 31.03 36.8533C31.0625 36.2807 30.5177 35.9126 30.4203 35.3781C30.5808 34.5053 31.1145 33.7384 31.8124 33.2049C32.2272 32.926 32.6476 32.6156 33.1441 32.518C33.5877 32.425 34.0378 32.372 34.4805 32.2707C35.338 32.0848 36.2215 32.0904 37.0856 31.9435C38.2076 31.7901 39.3416 31.7641 40.4711 31.6963C40.7643 31.7037 40.9351 31.4174 41.0353 31.1813C41.6126 29.7349 41.724 28.1715 42.0469 26.6675C42.2 26.0168 42.1657 25.3401 42.2511 24.6783C42.3096 23.68 42.446 22.6891 42.5638 21.6964C42.6112 21.3468 42.7058 20.9286 43.0455 20.7501C43.4297 20.5363 43.8807 20.6571 44.2844 20.7501C45.0667 20.9678 45.818 21.2845 46.5201 21.6926C46.9405 21.939 47.4296 22.0421 47.8315 22.3238C48.2751 22.6287 48.7493 22.8815 49.2031 23.1743C49.5521 23.3955 49.9539 23.521 50.2889 23.7664C50.6926 24.0397 51.0369 24.4106 51.4954 24.603C51.8573 24.7582 52.2564 24.6746 52.6341 24.6513C53.2689 24.6095 53.8619 24.3623 54.48 24.233C55.6586 23.9254 56.866 23.7515 58.0567 23.4894C59.082 23.2779 60.1209 23.1394 61.1657 23.0748C61.8562 23.1065 62.5439 23.1855 63.2325 23.2459C64.5122 23.4002 65.7187 23.8724 66.9261 24.2981C67.211 23.4959 67.6982 22.7904 68.1112 22.0514C68.5029 21.4723 68.7377 20.7984 69.2017 20.2677C69.7158 19.6672 70.0936 18.9421 70.732 18.456C71.1599 18.1056 71.5033 17.6269 72.0378 17.4298ZM73.1663 22.3823C72.9482 22.8685 72.8879 23.4048 72.8016 23.9272C72.6977 24.7062 72.4898 25.4675 72.4072 26.2511C72.307 27.2131 72.2169 28.1761 72.1668 29.1419C72.1668 29.3631 72.1418 29.6113 72.2921 29.7926C72.7431 30.3912 73.4271 30.7639 73.8614 31.3784C74.4786 32.2521 75.2479 33.0859 75.4837 34.1614C75.6025 34.5927 75.2851 34.9487 75.0828 35.2936C75.5097 35.1933 75.9249 35.0484 76.3217 34.8613C76.6113 33.6529 76.5222 32.4092 76.5481 31.1804C76.5658 30.2731 76.4331 29.3752 76.3366 28.4764C76.2567 27.716 76.0136 26.9891 75.8196 26.2529C75.6544 25.7064 75.5941 25.1263 75.3435 24.6076C75.0187 23.9347 74.7041 23.257 74.3765 22.5859C74.2382 22.3377 74.0693 22.0282 73.7538 22.0022C73.4976 21.9687 73.2591 22.1528 73.1663 22.3823ZM55.2716 25.3661C54.7195 25.7259 54.0967 25.9638 53.5594 26.3468C53.281 26.5383 53.0026 26.7186 52.7353 26.9213C52.3975 27.1685 52.1181 27.4911 51.7469 27.6918C51.4294 27.8559 51.1405 28.0703 50.8912 28.3267C50.3539 28.9132 49.6124 29.2693 49.1085 29.8893C48.6871 30.3977 48.1331 30.7714 47.708 31.2761C47.3665 31.6591 46.999 32.0197 46.6482 32.3916C47.0723 32.5338 47.528 32.6537 47.8612 32.9725C48.34 33.3629 48.6472 33.9085 49.0621 34.3603C49.308 34.2088 49.566 34.0768 49.8091 33.9206C50.1804 33.6697 50.3706 33.243 50.5757 32.8591C50.8968 32.214 51.2532 31.5726 51.7571 31.0493C52.2443 30.5845 52.4587 29.9078 53.0007 29.4942C52.9113 29.8735 52.7793 30.2415 52.6072 30.591C52.2304 31.2705 51.9669 32.0142 51.4806 32.6286C52.6323 32.1713 53.8861 32.0792 55.0563 31.6767C54.7639 30.9146 54.7517 30.0731 55.022 29.3027C55.2429 28.7394 55.2921 28.1101 55.6327 27.597C55.9111 27.1555 56.1533 26.6879 56.4354 26.2473C57.0702 25.4414 57.8479 24.7675 58.5904 24.0648C57.4758 24.4775 56.2758 24.6978 55.2716 25.3661ZM45.3415 26.4816C44.9308 27.3513 44.7421 28.3094 44.7921 29.2702C45.1577 29.2191 45.5345 29.2088 45.8853 29.075C46.2241 28.9039 46.4598 28.5823 46.6436 28.2598C46.7753 28.0674 46.6436 27.8443 46.5842 27.6509C46.3392 27.0598 46.2213 26.3961 45.76 25.9201C45.6005 26.0906 45.4613 26.279 45.3452 26.4816H45.3415ZM81.7972 27.5041C81.5204 27.5432 81.2691 27.6869 81.0947 27.9056C80.6455 28.5052 80.2975 29.207 80.2594 29.9692C80.2251 30.6459 80.1416 31.3886 80.4719 32.0086C80.9165 32.5812 81.5587 33.0971 82.3151 33.1138C83.09 33.164 83.9336 32.9967 84.5164 32.451C84.8579 32.1434 85.2301 31.8654 85.5224 31.5076C86.1312 30.7723 86.4662 29.8456 86.6156 28.9114C86.6556 28.5554 86.5665 28.0748 86.1748 27.9595C85.5205 27.7049 84.8078 27.7058 84.1266 27.5738C83.3638 27.4278 82.5693 27.3265 81.7972 27.5041ZM39.8846 32.0755C38.6883 34.0814 37.5412 36.1208 36.3858 38.1528C36.0591 38.7412 35.6898 39.3082 35.4178 39.9263C35.8429 39.971 36.2865 40.0035 36.6893 39.8334C37.1765 39.7042 37.2962 39.1493 37.5913 38.8044C38.0739 38.2048 38.383 37.4956 38.7978 36.8524C39.6219 35.5929 40.3755 34.2906 41.2024 33.0292C41.3518 32.7773 41.5736 32.4826 41.439 32.1768C41.3175 32.0309 41.1105 32.0467 40.9407 32.03C40.5917 32.0253 40.2289 31.9965 39.8846 32.0755ZM37.6739 32.294C37.493 32.4278 37.4002 32.6425 37.2925 32.834C36.3453 34.7017 35.3882 36.5639 34.4211 38.4205C34.0894 38.9604 33.8436 39.5487 33.6926 40.1643C34.0267 40.1318 34.4053 40.194 34.7023 40.0119C34.861 39.7218 34.9538 39.4012 35.1181 39.1139C36.4403 36.7864 37.7618 34.4582 39.0827 32.1294C38.6113 32.095 38.1046 32.0644 37.6739 32.294ZM58.7472 32.5143C58.5022 32.5459 58.2238 32.4947 58.0048 32.6369C57.8405 33.0181 57.7672 33.4373 57.5528 33.7979C57.0888 34.5127 56.5505 35.1922 56.2173 35.9861C56.016 36.415 55.7639 36.8183 55.4665 37.187C55.1482 37.6025 55.0201 38.1305 54.6833 38.5348C54.1943 39.1825 53.7644 39.8728 53.3988 40.5975C52.8865 41.2706 52.4507 41.9989 52.0996 42.7689C52.4708 43.3879 52.9116 43.9772 53.5121 44.3983C53.7905 43.8583 54.0856 43.3303 54.4011 42.8125C54.6322 42.4277 54.9116 42.0689 55.0953 41.6599C55.3542 41.078 55.7876 40.5993 56.0855 40.0388C56.4503 39.4699 56.7296 38.8481 57.1472 38.3136C57.5185 37.8275 57.7514 37.2549 58.0883 36.7455C58.3546 36.3054 58.6439 35.8797 58.9551 35.4702C59.2808 35.0547 59.3783 34.509 59.7161 34.101C60.1404 33.5571 60.5132 32.9749 60.8297 32.3618C60.1337 32.3906 59.4405 32.451 58.7472 32.5143ZM56.2192 32.8229C56.0688 33.2876 55.8702 33.7384 55.5464 34.1065C55.1018 34.6224 54.8911 35.2852 54.4865 35.8271C54.172 36.2465 53.9009 36.6969 53.6773 37.1712C53.3385 37.8814 52.778 38.4512 52.4197 39.1474C52.0829 39.8399 51.6699 40.4915 51.268 41.1477C51.4137 41.4601 51.514 41.8133 51.7738 42.054C52.3158 41.2751 52.6527 40.3623 53.2763 39.6373C53.6355 39.2301 53.8072 38.7012 54.1311 38.269C54.5459 37.689 55.0443 37.1535 55.3283 36.4926C55.5556 35.921 56.0178 35.4869 56.2563 34.9208C56.5542 34.1084 57.1324 33.4484 57.5287 32.6853C57.0878 32.7178 56.6544 32.7829 56.2192 32.8229ZM31.3836 34.7191C31.198 35.011 31.2212 35.3642 31.2277 35.6933C31.8192 34.9612 32.3582 34.188 32.8406 33.3796C32.3247 33.7859 31.714 34.1288 31.3836 34.7191ZM75.1579 37.5746C74.7867 38.0162 74.3394 38.4168 74.1482 38.9764C73.9255 39.6075 73.4986 40.1541 73.3668 40.8168C73.1181 41.8495 72.8406 42.8906 72.294 43.8118C72.0155 44.4494 71.4587 44.8882 70.9947 45.392C69.7038 46.17 68.2161 46.5362 66.7386 46.7538C64.9948 47.0958 63.2121 47.1256 61.4413 47.1126C60.7193 47.1051 59.9945 47.1432 59.2762 47.0531C58.3853 47.014 57.4878 46.9787 56.6118 46.7974C56.3157 47.146 56.0317 47.5643 55.5668 47.6954C54.5608 48.056 53.3951 48.1044 52.4429 47.5615C53.023 47.4872 53.6197 47.5076 54.1803 47.3161C54.5673 47.2232 54.8726 46.9555 55.1371 46.6729C54.6267 46.3652 54.0383 46.2193 53.5408 45.8893C53.1436 45.6309 52.6833 45.4682 52.3344 45.1401C51.9182 44.7167 51.5281 44.2684 51.1659 43.7978C50.8291 43.3749 50.7103 42.8339 50.4838 42.3524C50.1126 41.395 49.94 40.3753 49.8036 39.3621C49.7785 38.4326 49.6022 37.4826 49.0982 36.6869L49.0054 36.7399C48.5888 37.5839 48.2899 38.506 47.6616 39.2292C47.2579 39.6521 46.6408 39.68 46.1016 39.7674C44.78 39.9663 43.4427 39.8315 42.111 39.8892C42.53 39.99 42.942 40.1183 43.3443 40.2731C44.3856 40.7378 45.425 41.3318 46.0941 42.2864C46.6862 42.9761 47.1503 43.8267 47.1902 44.7525C47.2171 45.3966 47.2607 46.0455 47.1735 46.6868C46.9489 45.8707 46.8412 45.009 46.431 44.2561C46.2276 43.9225 46.0441 43.577 45.8816 43.2215C45.6375 42.6638 45.1039 42.3199 44.6195 41.9871C44.2332 41.7106 43.824 41.4677 43.3963 41.2612C42.7235 40.9135 41.9662 40.7964 41.2553 40.5575C40.6403 40.3612 39.9983 40.2627 39.3528 40.2656C38.0275 40.2136 36.706 40.38 35.3984 40.5779C34.7561 40.6709 34.1408 40.8838 33.5014 40.9897C32.7942 41.1282 32.0806 41.2807 31.4291 41.5995C32.9492 41.6804 34.4369 42.0447 35.9051 42.4268C37.1004 42.7326 38.1918 43.321 39.3389 43.7607C40.0043 44.0739 40.6474 44.442 41.3425 44.6902C41.6813 44.8055 42.0664 44.7831 42.3782 44.9784C42.5576 45.1354 42.7004 45.3298 42.7966 45.5481C42.8928 45.7663 42.9401 46.0031 42.9351 46.2416C42.9955 47.1977 42.7606 48.1493 42.2622 48.967C41.8446 49.6957 41.465 50.4858 40.7885 51.0119C40.3718 51.3317 39.9709 51.7193 39.4391 51.8299C38.9482 51.9378 38.4665 52.0958 37.9653 52.1506C36.7858 52.3365 35.5645 52.0958 34.4091 52.4471C34.1133 52.5183 33.8356 52.6506 33.5939 52.8357C33.3523 53.0208 33.1519 53.2544 33.0058 53.5217C32.6523 54.5711 32.282 55.6949 32.5028 56.8122C32.4258 57.58 32.398 58.3924 32.7033 59.1193C32.9817 59.6966 33.3474 60.271 33.9033 60.6177C34.5659 61.0537 35.2508 61.4543 35.945 61.8317C36.4498 62.145 37.0466 62.2156 37.6006 62.4006C38.4359 62.6971 39.3166 62.7891 40.1843 62.9193C42.1332 63.1786 44.1081 62.9258 45.9828 62.3792C46.496 62.2184 47.0473 62.1933 47.5447 61.9795C48.0588 61.7555 48.5702 61.5231 49.0797 61.2879C49.991 60.8845 50.9627 60.5833 51.771 59.9791C52.3576 59.5274 53.0592 59.2495 53.6169 58.7596C54.1923 58.2502 54.8364 57.8189 55.3552 57.2472C56.2266 56.4469 57.0424 55.589 57.8665 54.7375C58.2934 54.3239 58.7648 53.9493 59.1156 53.4641C59.7708 53.0634 60.4205 52.647 61.1137 52.3142C62.1708 51.9294 63.3717 51.7472 64.4547 52.1488C65.1118 52.3449 65.521 52.9342 65.9823 53.3999C66.7516 54.3731 67.0366 55.6308 67.1423 56.8475C67.1702 57.7641 67.1823 58.689 67.0031 59.5934C66.8611 60.2989 66.798 61.0555 66.3971 61.6746C66.9113 62.1728 67.5702 62.501 68.0249 63.0624C68.333 63.4342 68.7479 63.7019 69.0634 64.0691C69.2704 64.3061 69.4885 64.5339 69.7056 64.7625C70.0861 63.5132 70.5724 62.3002 70.952 61.0509C71.0977 60.5815 71.2954 60.1269 71.3947 59.6436C71.7659 59.0329 71.8782 58.3153 72.1065 57.6469C72.5139 56.1746 72.8025 54.6724 73.1339 53.1852C73.5654 50.8483 74.1204 48.5375 74.5018 46.1933C74.7802 44.8482 74.9658 43.4855 75.2582 42.1442C75.3612 41.3318 75.6025 40.5436 75.6591 39.7274C75.7463 38.6612 76.1612 37.649 76.1899 36.5754C75.8139 36.8736 75.4682 37.2083 75.1579 37.5746ZM27.9498 42.7242C27.3419 42.9631 26.9345 43.4985 26.4649 43.9326C26.1165 44.2377 25.8925 44.6606 25.8357 45.1206C25.7698 45.6848 25.7049 46.3029 25.9424 46.8346C26.3137 46.8132 26.67 46.6961 27.0338 46.6292C26.8232 46.408 26.477 46.2193 26.4946 45.8726C26.4771 45.4464 26.5508 45.0215 26.7109 44.6262C26.871 44.231 27.1137 43.8747 27.4227 43.5813C28.0872 43.0031 28.9076 42.6517 29.7215 42.3506C29.1164 42.3914 28.52 42.5172 27.9498 42.7242ZM28.7934 48.0914C28.6189 48.8285 28.3897 49.5572 28.0129 50.2191C27.7466 50.6188 28.2115 50.9841 28.3971 51.3113C28.8482 50.3706 29.3317 49.4169 29.5368 48.3814C29.598 47.6601 29.598 46.9229 29.4366 46.2128C29.225 46.8383 28.9401 47.4425 28.7934 48.0914ZM41.7936 46.2323C41.6834 46.4656 41.6419 46.7254 41.6738 46.9815C41.7305 47.581 41.8409 48.1722 41.93 48.7671C42.2084 48.1453 42.458 47.4862 42.4627 46.7974C42.4061 46.487 42.1694 46.0306 41.7982 46.2286L41.7936 46.2323ZM34.0026 48.2494C34.4183 49.1036 35.068 49.8742 35.9292 50.2999C36.1788 50.4086 36.4515 50.4532 36.7226 50.4297C36.9937 50.4062 37.2547 50.3152 37.4818 50.1651C36.744 49.5647 35.7983 49.2031 35.2452 48.3944C34.8805 47.8023 34.6281 47.1497 34.3859 46.5C34.1613 47.0447 33.7139 47.6442 34.0026 48.2494ZM26.2487 51.6087C26.0724 51.9015 25.8543 52.2017 25.8571 52.5596C25.8571 53.0616 25.7587 53.5542 25.6956 54.0469C25.6263 54.8787 25.6553 55.7158 25.7819 56.5408C25.9359 57.3551 26.3786 58.0624 26.7266 58.8024C27.0143 59.3498 27.4524 59.7979 27.9043 60.2115C28.3285 60.5926 28.7322 60.9951 29.1628 61.3688C29.6593 61.7927 30.3089 61.9507 30.9168 62.1412C32.0648 62.4954 33.313 62.4136 34.4434 62.0427C34.0471 61.6876 33.6295 61.3586 33.2184 61.0202C32.6918 60.5845 32.2499 60.0555 31.9145 59.4595C31.6806 59.0496 31.6147 58.5756 31.5692 58.1136C31.6565 57.1134 31.5219 56.0965 31.6258 55.0935C31.7066 54.6408 31.83 54.1975 31.9191 53.7466C31.2695 53.1759 30.3785 53.1833 29.599 52.9156C29.1396 52.7743 28.735 52.5076 28.334 52.2501C27.9331 51.9926 27.4607 51.8532 27.1656 51.4711C26.98 51.2499 26.9958 50.9432 26.9642 50.6727C26.6996 50.9638 26.4603 51.2769 26.2487 51.6087ZM63.8515 57.2231C63.8379 57.5602 63.8261 57.8979 63.8162 58.2363C63.8088 58.86 63.651 59.4698 63.6139 60.0953C63.901 60.2661 64.1993 60.4173 64.5067 60.548C64.9958 60.7339 65.4264 61.0379 65.8904 61.2749C66.3257 60.0024 66.3646 58.6378 66.2876 57.3077C66.2672 56.9117 66.102 56.5482 65.9229 56.2006C65.2779 56.6235 64.6153 57.0483 63.8515 57.2231ZM54.557 59.0478C53.9831 59.3939 53.4277 59.7699 52.893 60.1743C51.9882 60.7813 50.997 61.2461 50.0393 61.7657C48.9164 62.3736 47.6115 62.4814 46.4561 63.0066C45.7108 63.3256 44.93 63.5541 44.1304 63.687C44.0411 63.9165 43.9671 64.1515 43.9086 64.3907C43.878 64.7123 44.0534 65.0302 43.9615 65.3518C43.7601 66.1094 43.5717 66.8753 43.5318 67.6627C43.3388 68.37 43.3397 69.1267 43.0177 69.8006C42.7903 70.4717 42.2622 70.9597 41.8502 71.5146C41.5615 71.9088 41.1124 72.1244 40.6975 72.3512C40.9815 72.7286 41.2544 73.1627 41.1987 73.66C41.2042 74.1777 40.6901 74.5207 40.6882 75.0366C40.6734 75.5683 40.7337 76.1 40.7161 76.6326C40.6921 77.2518 40.7382 77.8717 40.8534 78.4806C41.0558 79.4324 41.1727 80.4112 41.5523 81.3166C41.8548 81.9793 41.9894 82.7174 42.407 83.3271C42.7355 83.9843 43.1838 84.5792 43.452 85.2671C43.607 85.6677 43.9698 85.9242 44.2186 86.2617C44.51 86.6493 44.7318 87.0983 45.1039 87.4171C45.6942 87.9432 46.1851 88.579 46.8347 89.0363C47.3387 89.3951 47.7479 89.8822 48.3094 90.1518C49.3869 90.7448 50.4235 91.4745 51.6393 91.7561C52.7947 92.1382 54.0039 92.3873 55.2252 92.3808C56.5802 92.3724 57.9713 92.4542 59.2818 92.0406C59.82 91.8547 60.3666 91.6939 60.904 91.5079C61.7392 91.1306 62.529 90.6714 63.3429 90.2494C63.986 89.9277 64.4761 89.3821 65.0932 89.0196C65.573 88.7407 65.8886 88.2676 66.2885 87.8949C66.6005 87.6159 66.8753 87.2979 67.1062 86.9486C67.469 86.3807 67.9655 85.8908 68.192 85.2429C68.5354 84.2808 68.9159 83.3188 69.0384 82.2972C69.1172 81.6754 69.2973 81.0349 69.1683 80.4103C68.9242 80.124 68.5391 79.9994 68.3098 79.6964C68.0982 79.4086 67.9024 79.1095 67.7233 78.8003C67.3642 78.2119 67.3929 77.4785 67.5173 76.826C67.5878 76.4151 67.8514 76.0554 67.8801 75.6381C67.6825 75.3592 67.3939 75.1473 67.2045 74.8572C66.9605 74.5068 66.8723 74.0746 66.8537 73.6554C66.8342 73.1999 66.8537 72.7212 67.0653 72.3075C67.2769 71.8939 67.6305 71.5769 67.9479 71.2432C67.6147 70.9569 67.2621 70.6651 67.0718 70.2588C66.8113 69.6943 66.7108 69.0688 66.7813 68.4509C66.8101 68.1544 66.8964 67.8616 66.8741 67.5623C66.7554 67.2434 66.4565 67.0464 66.2152 66.8261C65.7725 66.4645 65.4357 65.9895 64.9772 65.6474C64.4338 65.1918 63.8574 64.777 63.2529 64.4065C62.6032 63.9733 61.948 63.5439 61.2112 63.2846C59.9184 62.7268 58.5913 62.1924 57.1788 62.065C56.3111 62.065 55.4452 61.9851 54.5802 62.0316C53.2401 62.092 51.8805 62.0725 50.5674 62.3801C49.9307 62.5725 49.2783 62.725 48.6667 62.9908L48.6082 62.6841C49.7033 62.395 50.8439 62.1868 51.8462 61.6328C52.2945 61.4236 52.8021 61.4422 53.2791 61.3483C53.9909 61.208 54.7176 61.261 55.4368 61.2851C56.0104 61.3558 56.5886 61.2944 57.163 61.3493C58.2952 61.4301 59.3857 61.7601 60.4576 62.1133C61.4413 62.4108 62.297 62.9992 63.2167 63.4417C63.8849 63.7623 64.3805 64.3349 65.0236 64.6947C65.547 64.9902 65.8644 65.5229 66.3229 65.8965C66.709 66.2089 66.9818 66.6281 67.2129 67.0622C67.521 66.8177 67.8347 66.5798 68.1344 66.3232C68.5057 66.0099 68.9493 65.8064 69.3864 65.6056C69.16 65.3115 68.9047 65.0409 68.6244 64.7978C68.2217 64.4576 67.9544 63.9864 67.5321 63.6675C66.941 63.2418 66.4407 62.7027 65.8301 62.3002C64.9726 61.7164 64.1661 61.0221 63.1768 60.6689C62.7694 60.5155 62.4102 60.2636 62.0149 60.0851C61.2307 59.7393 60.4084 59.4967 59.5964 59.2299C58.8818 58.9762 58.1115 58.9697 57.369 58.8581C56.764 58.7958 56.1375 58.6415 55.538 58.8051C55.2058 58.8563 54.855 58.8758 54.557 59.0478ZM35.0986 62.2686C34.8889 62.6813 34.7002 63.1042 34.5325 63.5374C34.3627 64.0161 34.204 64.4985 34.0183 64.9717C33.52 66.1206 33.2462 67.3494 32.9975 68.5708C33.584 68.594 34.1743 68.5485 34.7608 68.6219C35.4281 68.7056 36.0424 69.0049 36.6095 69.3526C36.9001 69.5193 37.1351 69.7683 37.2851 70.0683C37.518 70.5331 37.48 71.0713 37.6619 71.549C37.8531 71.8549 38.2401 71.9794 38.5844 71.9906C39.0196 71.9683 39.4614 71.9748 39.8901 71.8976C40.4117 71.589 40.8664 71.1782 41.3564 70.8221C41.6145 70.6381 41.8091 70.3782 41.9133 70.0785C42.1555 69.452 42.5044 68.8469 42.5546 68.1637C42.7105 67.8848 42.678 67.5483 42.7068 67.2397C42.7624 67.1152 42.8181 66.9915 42.8757 66.8679C43.1132 65.8454 43.3527 64.8146 43.3118 63.7605C42.4608 63.7066 41.6079 63.7939 40.756 63.7289C40.1463 63.6824 39.5393 63.595 38.9296 63.543C38.7755 63.5067 38.6215 63.4723 38.4656 63.4379L38.4888 63.3961C37.2758 63.2753 36.2401 62.6014 35.0986 62.2686ZM70.643 65.8705C69.9404 66.0062 69.3697 66.4543 68.7293 66.7415C68.2968 66.9367 68.089 67.3866 67.8013 67.7314C67.5952 68.027 67.4087 68.358 67.4245 68.7316C67.3809 69.2745 67.6982 69.742 67.9711 70.1808C68.1316 70.4234 68.3052 70.6967 68.5966 70.7933C69.1191 70.7273 69.4875 70.3062 69.9543 70.1055C70.32 69.9679 70.7209 70.0125 71.1023 70.0441C71.3056 70.1482 71.4281 70.3546 71.5738 70.5228C71.0662 70.6288 70.5353 70.6911 70.0787 70.956C69.3465 71.3529 68.5539 71.7266 68.0463 72.4154C67.5099 72.8996 67.4078 73.7604 67.7846 74.3674C68.063 74.8182 68.3971 75.2885 68.9186 75.4661C69.4354 75.6508 69.9893 75.7069 70.5325 75.6297C71.223 75.5191 71.6685 74.8582 72.3775 74.7931C72.2643 75.3973 71.623 75.5609 71.2091 75.9085C70.8657 76.193 70.4471 76.351 70.0592 76.5592C69.5493 76.4896 69.0475 76.3694 68.5613 76.2004C68.4119 76.5397 68.2709 76.892 68.2597 77.2684C68.2319 77.7639 68.2078 78.3216 68.5316 78.7343C68.8555 79.147 69.2871 79.4779 69.7131 79.7884C70.139 80.0989 70.6708 80.1416 71.1534 80.3024C72.1548 80.6166 73.2007 80.8239 74.254 80.7672C75.0577 80.7672 75.7918 80.4084 76.5249 80.1268C77.1096 79.9176 77.453 79.3673 77.8242 78.9053C78.4163 78.1766 78.5546 77.1327 78.2762 76.2488C78.1435 75.6501 77.5337 75.3759 77.1505 74.9474C77.44 74.3655 78.0702 74.069 78.3625 73.4918C78.717 72.8532 78.7486 72.0826 78.6409 71.3752C78.4404 70.5591 77.6451 70.1129 76.9212 69.8294C77.3333 68.9696 77.44 67.935 77.0558 67.0464C76.9305 66.7415 76.6029 66.6151 76.343 66.4524C75.3495 65.8577 74.2062 65.5618 73.0494 65.6C72.2383 65.5945 71.4142 65.5926 70.6448 65.8724L70.643 65.8705ZM30.3006 70.5414C29.8929 70.9954 29.6448 71.5707 29.5943 72.1793C29.7363 72.6933 30.0751 73.1264 30.3618 73.5736C30.1911 73.8905 30.024 74.2149 29.7772 74.4817C29.5043 74.7838 29.2881 75.1984 29.4171 75.6148C29.4625 75.9225 29.7233 76.113 29.9516 76.2896C29.8106 76.5583 29.5637 76.8474 29.6825 77.1708C29.8508 77.3906 30.0506 77.5841 30.2755 77.7453C30.6746 77.9563 31.1479 77.8382 31.5748 77.9312C31.7715 77.9879 31.7205 78.2407 31.779 78.396L31.3279 78.6748C31.2852 79.5821 31.6008 80.4614 32.1075 81.2022C32.3321 81.5099 32.7256 81.6168 33.0745 81.7311C34.4304 82.1178 35.8791 81.957 37.2155 81.5638C37.7185 81.4151 38.1296 81.0489 38.4284 80.6278C38.7913 80.0924 38.6447 79.4194 38.6809 78.8115C38.4368 78.2593 38.1398 77.6505 37.5366 77.4237C37.0726 77.2489 36.5761 77.4571 36.113 77.5492C35.622 77.6914 35.1023 77.6905 34.6151 77.8429C34.4184 77.9879 34.2644 78.1835 34.1696 78.409C34.1288 78.0111 33.945 77.5194 34.2485 77.1848C34.5659 76.9729 34.9696 76.9822 35.3297 76.8911C35.815 76.7856 36.2687 76.5672 36.654 76.2534C37.0995 75.9234 37.273 75.3016 37.1301 74.7754C37.0002 74.1303 36.4313 73.6832 35.8652 73.4211C35.0932 73.1261 34.2514 73.0666 33.4457 73.2501C33.0114 73.343 32.5567 73.3728 32.1279 73.2333C32.4601 72.934 32.8054 72.6245 33.2341 72.4739C34.0211 72.235 34.8638 72.2759 35.6591 72.4544C35.9376 72.499 36.344 72.6003 36.4944 72.2685C36.8656 71.3836 36.6559 70.1389 35.7427 69.6658C34.9789 69.3553 34.1362 69.294 33.3205 69.3358C32.2263 69.4139 31.082 69.7318 30.3006 70.5414ZM37.4206 72.5325C37.2628 72.7797 37.1784 73.1088 37.3213 73.383C37.518 73.7808 37.8169 74.1406 37.8781 74.5914C38.0192 75.2337 37.8048 75.8797 37.531 76.4505C38.0609 76.7358 38.7291 76.958 38.9621 77.5733C39.2266 78.2389 39.5755 78.937 39.4502 79.6741C39.3119 80.4716 38.9491 81.284 38.2438 81.7348C38.5853 82.5249 38.7403 83.3792 39.0456 84.1823C39.3546 84.7865 39.6563 85.4009 40.046 85.9596C40.3337 86.3788 40.4572 86.8891 40.7467 87.3046C41.4641 88.2239 42.1054 89.2139 42.9675 90.0105C43.375 90.3767 43.71 90.8201 44.1369 91.1622C44.8487 91.7199 45.541 92.2981 46.2631 92.8409C46.6946 93.1495 47.2171 93.2917 47.6653 93.5734C48.495 94.0763 49.3674 94.5317 50.3223 94.7371C51.7497 95.2372 53.2485 95.4854 54.7501 95.6202C55.5872 95.6407 56.4246 95.6407 57.2623 95.6202C58.4597 95.5283 59.6428 95.3006 60.7889 94.9416C61.3912 94.7483 62.026 94.6349 62.5912 94.3384C63.316 93.9759 64.0213 93.5762 64.7628 93.2471C65.3791 92.9682 65.806 92.4105 66.4073 92.114C66.9911 91.8352 67.444 91.3564 67.933 90.9419C68.3692 90.5422 68.8518 90.1908 69.2323 89.7335C69.7836 89.0763 70.3191 88.4052 70.8703 87.7471C71.2917 87.2442 71.52 86.6149 71.9023 86.086C72.5 85.2494 72.8072 84.2502 73.2202 83.316C73.4521 82.7783 73.6383 82.222 73.777 81.653C72.9352 81.4671 72.0768 81.3742 71.2443 81.1427C71.017 81.9626 70.8843 82.8363 70.3924 83.5521C70.0295 84.1042 69.7994 84.7307 69.4254 85.2764C69.0486 85.8787 68.5279 86.3741 68.153 86.9783C67.831 87.5128 67.2686 87.8344 66.9345 88.3578C66.7467 88.6335 66.4981 88.8622 66.2078 89.0261C65.7549 89.305 65.47 89.78 65.019 90.0616C64.257 90.5747 63.4682 91.0581 62.6868 91.5489C62.3166 91.7667 61.9172 91.9304 61.5007 92.035C60.9086 92.207 60.3704 92.5174 59.7885 92.7145C58.9961 92.933 58.1804 93.0556 57.3588 93.0798C54.9106 93.2583 52.3371 93.1021 50.1089 91.9802C49.592 91.7701 49.0593 91.5888 48.5952 91.2719C48.0161 90.9372 47.5308 90.4687 46.9517 90.136C46.3252 89.7892 45.9308 89.16 45.3424 88.7612C44.754 88.3624 44.4431 87.6885 43.9067 87.2312C43.529 86.8975 43.362 86.4113 43.0817 86.0079C42.5379 85.3108 42.0451 84.5616 41.7351 83.7287C41.4641 83.158 41.1541 82.604 40.9574 82.0007C40.4692 80.8936 40.3077 79.6834 40.1361 78.4964C40.0293 77.2294 39.8781 75.9513 40.0433 74.6853C40.0906 74.2837 40.3746 73.9621 40.4507 73.5698C40.4656 73.4138 40.434 73.2569 40.3598 73.1189C40.2856 72.9809 40.1722 72.868 40.034 72.7946C39.5755 72.5157 39.0205 72.6208 38.5129 72.6003C38.1482 72.5929 37.7853 72.4851 37.4206 72.5353V72.5325ZM69.5534 80.7226C69.4922 81.72 69.4216 82.7164 69.2407 83.6971C69.6425 83.1394 69.8643 82.4813 70.2383 81.9068C70.4062 81.6271 70.5457 81.3312 70.655 81.0238C70.295 80.8995 69.9269 80.7998 69.5534 80.7254V80.7226ZM50.0708 95.6806C50.0801 95.8275 50.0894 95.9762 50.0987 96.1249C49.5484 96.1478 48.9979 96.0825 48.4681 95.9316C47.4157 95.6583 46.3243 95.9093 45.283 96.1082C44.9063 96.1879 44.5529 96.3533 44.2501 96.5916C43.9624 96.8267 43.6163 97.0452 43.4705 97.403C42.7632 98.4864 42.4724 99.79 42.652 101.072C42.7479 101.592 43.0267 102.061 43.4381 102.394C43.3954 101.988 43.3016 101.586 43.3128 101.177C43.3499 100.712 43.4752 100.254 43.5077 99.7827C43.9405 99.0095 44.4119 98.2588 44.9202 97.5332C45.1925 97.3545 45.4769 97.1949 45.7712 97.0554C45.799 97.1967 45.9568 97.3612 45.8417 97.5006C45.0306 98.498 44.2445 99.5791 43.9318 100.847C43.7685 101.331 43.8854 101.88 44.1647 102.296C44.7466 102.66 45.4436 102.773 46.1071 102.901C46.0468 102.01 46.0143 101.108 46.161 100.224C46.225 99.7929 46.264 99.3328 46.5322 98.9702C46.7011 98.7397 46.8459 98.4832 47.0612 98.2926C47.3804 98.1179 47.7665 98.1523 48.1034 98.2554C48.1962 98.354 48.0737 98.4172 48.0106 98.485C47.6691 98.8011 47.2839 99.1115 47.1234 99.5651C46.7688 100.509 46.7772 101.537 46.8384 102.528C46.8756 102.73 46.87 102.984 47.0435 103.126C47.4909 103.205 47.9493 103.185 48.4022 103.187C49.5474 103.192 50.6091 102.693 51.617 102.203C51.9631 102.059 52.081 101.684 52.1738 101.354C52.3195 101.632 52.4383 101.932 52.6712 102.147C52.8569 102.323 53.1214 102.333 53.3589 102.308C53.5176 102.161 53.4944 101.928 53.513 101.733C53.5306 100.891 53.5566 100.035 53.3506 99.2101C53.2346 98.7713 52.9051 98.4395 52.6787 98.0574C52.3316 97.5285 52.1218 96.915 51.6922 96.4391C51.2922 95.9511 50.6017 95.9511 50.0708 95.6806ZM86.7521 96.3053C85.9604 96.5841 85.3748 97.2404 84.9247 97.9245C84.6621 98.4023 84.4737 98.9182 84.2584 99.4183C84.1656 99.9035 84.0487 100.395 84.0802 100.894C84.1016 101.232 84.1229 101.569 84.1294 101.908C84.779 102.24 85.4918 102.373 86.1711 102.6C86.7651 102.776 87.3878 102.842 87.978 103.038C88.5434 103.236 89.1456 103.306 89.7413 103.243C89.9928 103.236 90.0587 102.955 90.1738 102.779C90.1719 101.999 90.0295 101.226 89.7534 100.497C89.4972 99.6748 88.9543 98.9823 88.7233 98.1513C88.8634 98.1346 89.0174 98.0156 89.1539 98.1179C89.5984 98.3595 89.7979 98.854 90.0875 99.2435C90.4429 99.7139 90.5107 100.313 90.6722 100.865C90.8777 101.65 90.9253 102.468 90.8123 103.272C91.2967 103.161 91.7895 103.076 92.2684 102.936C92.4048 102.882 92.5942 102.853 92.6341 102.685C92.9765 101.848 92.8707 100.919 92.7055 100.054C92.6127 99.5317 92.3185 99.0836 92.1292 98.5966C91.9649 98.1653 91.6587 97.8158 91.3868 97.4486C91.5909 97.3445 91.7923 97.1502 92.0364 97.2004C92.2044 97.2571 92.3278 97.3947 92.4494 97.5202C93.202 98.3214 93.4851 99.4499 93.551 100.522C93.5983 101.142 93.6252 101.774 93.5157 102.39C94.1115 102.268 94.7658 102.092 95.1287 101.558C95.5092 100.936 95.7031 100.139 95.4442 99.4341C95.2799 98.9693 95.15 98.4776 94.8948 98.0472C94.5941 97.5248 94.3871 96.9188 93.9018 96.5321C93.4378 96.1603 92.9329 95.7773 92.3241 95.7308C91.5547 95.6732 90.7826 95.7308 90.0114 95.716C88.8976 95.7048 87.7917 95.9048 86.7521 96.3053Z" fill="#12131A"/>
<path d="M45.6037 51.3633C46 51.2276 46.4389 51.3428 46.8018 51.5176C47.2129 51.7258 47.2881 52.2389 47.2927 52.6535C47.3531 53.3571 46.6969 53.9334 46.0399 54.0032C45.4153 54.0032 44.7851 53.4873 44.7675 52.8394C44.7592 52.5187 44.7248 52.1692 44.8984 51.882C45.0376 51.6087 45.3253 51.4618 45.6037 51.3633Z" fill="#010023"/>
<path d="M27.321 52.4725C27.6922 52.3061 28.1043 52.5181 28.4013 52.7514C28.6917 53.0098 28.9729 53.3175 29.0685 53.706C29.1613 54.0313 29.0463 54.3948 28.8393 54.6513C28.5405 54.8149 28.1795 54.8373 27.8444 54.8447C27.5725 54.8503 27.2189 54.7582 27.1614 54.4478C27.0601 54.0105 26.9894 53.5666 26.9498 53.1195C26.9395 52.9868 26.9695 52.854 27.0357 52.7386C27.1019 52.6232 27.2013 52.5305 27.321 52.4725Z" fill="#010023"/>
<path d="M40.7954 54.9366C41.0432 54.4988 41.4302 54.0805 41.9583 54.0303C42.281 54.0349 42.5901 54.161 42.8241 54.3835C43.1898 54.7442 43.2798 55.313 43.1555 55.7973C43.0422 56.2249 42.6088 56.4647 42.2191 56.593C41.8664 56.5809 41.3838 56.6767 41.1741 56.3141C40.9718 55.9265 41.0052 55.4729 40.9718 55.05C40.8975 55.3233 40.8205 55.5947 40.7518 55.8698C40.7147 55.5612 40.6265 55.2182 40.7954 54.9366Z" fill="#010023"/>
<path d="M46.0826 55.0108C46.5939 54.8026 47.2399 54.929 47.5888 55.3706C48.038 55.9422 47.9071 56.8578 47.3568 57.317C46.4733 57.9352 45.1991 57.0995 45.1731 56.0872C45.1879 55.5648 45.6037 55.154 46.0826 55.0108Z" fill="#010023"/>
<path d="M26.8374 56.2939C27.3784 56.0578 28.0439 55.9974 28.5701 56.3088C28.803 56.4278 28.8865 56.6936 28.9626 56.926C28.9376 57.2625 28.9116 57.6622 28.6146 57.8816C28.1747 58.2032 27.5455 58.3835 27.0369 58.1028C26.7121 57.9067 26.4309 57.5358 26.4949 57.1379C26.5534 56.8368 26.7075 56.5663 26.8374 56.2939Z" fill="#010023"/>
<path d="M40.2266 57.1277C40.557 57.1035 40.8308 57.3396 41.0331 57.5748C41.2957 57.889 41.5073 58.3324 41.3412 58.7414C41.2048 59.2238 40.7519 59.5463 40.2841 59.6625C40.0667 59.6814 39.8478 59.6531 39.6423 59.5794C39.4368 59.5058 39.2496 59.3886 39.0934 59.2359C38.815 58.9449 38.8317 58.5062 38.8707 58.1344C38.97 57.5069 39.6447 57.1565 40.2266 57.1277Z" fill="#010023"/>
<path d="M43.406 59.3443C43.4895 58.5542 44.3953 57.9258 45.1517 58.2019C45.3545 58.2994 45.5356 58.4369 45.6841 58.6062C45.8325 58.7755 45.9453 58.9731 46.0157 59.1872C46.1085 59.5181 46.0537 59.8648 46.0639 60.2032C45.5507 60.3026 45.0728 60.5489 44.5512 60.6019C43.9164 60.5527 43.4543 59.954 43.406 59.3443Z" fill="#010023"/>
<path d="M29.0091 58.5507C29.4406 58.3379 29.9242 58.6111 30.1228 59.0155C30.3356 59.4526 30.3689 59.9558 30.2156 60.4172C30.1844 60.528 30.1254 60.6289 30.0442 60.7103C29.9629 60.7917 29.8622 60.8508 29.7515 60.882C29.2226 61.0075 28.6731 60.7537 28.3094 60.3754C28.0476 60.1077 28.095 59.6978 28.133 59.3585C28.1952 58.9095 28.6351 58.6827 29.0091 58.5507Z" fill="#010023"/>
<path d="M50.2281 66.3505C51.2833 66.3728 52.3367 66.3282 53.3909 66.3254C53.4141 67.2242 53.3909 68.124 53.4002 69.021C54.0373 69.0533 54.6758 69.0455 55.312 68.9978C55.4308 68.1082 55.3426 67.2084 55.4558 66.3189C56.2465 66.2817 57.0335 66.3105 57.8289 66.3096C58.1825 66.3254 58.5908 66.3319 58.8609 66.5968C58.9203 67.5087 58.8534 68.4252 58.8692 69.3389C59.6738 69.5248 60.601 69.5406 61.2274 70.1541C61.6432 70.5696 62.1276 70.934 62.4413 71.4387C62.9304 72.4742 63.2394 73.6445 63.0157 74.7906C62.8413 75.4999 62.5267 76.2165 61.8965 76.6339C62.6909 77.042 63.154 77.8423 63.541 78.6175C63.7767 79.0628 63.8371 79.5721 63.8296 80.0704C63.8139 80.7499 63.9067 81.4591 63.644 82.106C63.4473 82.5848 63.3879 83.1285 63.0594 83.545C62.7039 84.0144 62.3772 84.5386 61.8529 84.8379C61.4367 85.064 61.0075 85.2651 60.5675 85.4403C60.0339 85.6597 59.4539 85.6978 58.8841 85.7684C58.8571 86.802 58.9008 87.8375 58.859 88.8721C57.6637 88.8665 56.4683 88.8721 55.273 88.8535C55.2526 87.8255 55.2888 86.7974 55.2442 85.7703C54.6308 85.7703 54.0183 85.7703 53.4058 85.7703C53.4058 86.7928 53.4151 87.8152 53.4058 88.8377C52.2596 88.9102 51.1116 88.8535 49.9646 88.8703C49.9878 87.8283 49.8764 86.789 49.9089 85.7461C48.919 85.7659 47.929 85.7659 46.9391 85.7461C46.9094 84.652 46.9178 83.5571 46.9317 82.463C47.8894 82.4472 48.8463 82.463 49.804 82.463C49.796 79.09 49.796 75.7168 49.804 72.3432C48.8954 72.292 47.986 72.3246 47.0774 72.3162C46.9428 71.8803 46.7823 71.4322 46.85 70.9693C46.9558 70.2675 46.9308 69.5574 46.9493 68.8509C48.0407 68.8723 49.134 68.8695 50.2235 68.7998C50.2708 67.9846 50.2281 67.1675 50.2281 66.3505ZM53.4447 72.3432C53.4104 73.4326 53.4383 74.522 53.4299 75.6123C53.4392 77.8962 53.3844 80.1801 53.4355 82.4639C54.4034 82.4639 55.3705 82.4741 56.3384 82.4732C57.1829 82.4732 58.0395 82.5662 58.8766 82.4193C59.4251 82.2092 59.7963 81.6692 59.9597 81.118C60.1063 80.4496 60.0246 79.6911 59.5885 79.1418C59.2376 78.7625 58.6938 78.6333 58.1964 78.6408C57.0651 78.6408 55.9338 78.6538 54.8034 78.6324C54.7979 77.6099 54.8034 76.5809 54.7969 75.5547C55.8057 75.5621 56.8145 75.5547 57.8233 75.5659C58.324 75.586 58.8175 75.4413 59.2284 75.1541C59.414 75.0249 59.4622 74.7897 59.5012 74.5815C59.6135 73.9541 59.5012 73.256 59.0799 72.7633C58.6483 72.359 58.0108 72.3283 57.4511 72.3199C56.1166 72.3404 54.7802 72.3079 53.4447 72.3432Z" fill="#12131A"/>
<path d="M73.1668 22.3831C73.2596 22.1536 73.4991 21.9695 73.7571 22.003C74.0726 22.0299 74.2415 22.3385 74.3798 22.5867C74.7074 23.2578 75.022 23.9355 75.3468 24.6084C75.5974 25.1271 75.6577 25.7072 75.8229 26.2537C76.0169 26.989 76.26 27.7168 76.3398 28.4772C76.4326 29.376 76.569 30.2739 76.5514 31.1812C76.5254 32.41 76.6145 33.6565 76.325 34.8621C75.9274 35.0497 75.5112 35.1949 75.0832 35.2953C75.2856 34.9504 75.6029 34.5944 75.4842 34.1631C75.2484 33.0876 74.4791 32.2538 73.8619 31.3801C73.4276 30.7657 72.7436 30.3929 72.2926 29.7943C72.1422 29.6084 72.1664 29.3621 72.1673 29.1436C72.2174 28.1779 72.3074 27.2149 72.4077 26.2528C72.4903 25.4711 72.6981 24.7098 72.8021 23.929C72.8884 23.4066 72.9478 22.8693 73.1668 22.3831Z" fill="#FB9B20"/>
<path d="M45.3456 26.4821C45.4626 26.2781 45.6031 26.0884 45.7641 25.917C46.2281 26.3929 46.3432 27.0566 46.5882 27.6478C46.6439 27.8411 46.7794 28.0642 46.6476 28.2566C46.462 28.5792 46.2281 28.9008 45.8894 29.0718C45.5414 29.2057 45.1618 29.2159 44.7962 29.267C44.7468 28.3075 44.9355 27.3507 45.3456 26.4821Z" fill="#FB9B20"/>
<path d="M81.7976 27.5046C82.5669 27.3271 83.3613 27.4284 84.127 27.5743C84.8082 27.7063 85.5191 27.7054 86.1752 27.9601C86.5668 28.0772 86.6559 28.5559 86.616 28.9119C86.4666 29.8461 86.1316 30.771 85.5228 31.5081C85.2304 31.866 84.8583 32.1439 84.5168 32.4516C83.9339 32.9972 83.0903 33.1645 82.3154 33.1143C81.5591 33.0976 80.9168 32.5817 80.4723 32.0091C80.1419 31.3891 80.2254 30.6464 80.2598 29.9697C80.2978 29.2084 80.6459 28.5057 81.095 27.9062C81.2695 27.6874 81.5208 27.5438 81.7976 27.5046Z" fill="#FB9B20"/>
<path d="M75.1585 37.5744C75.4688 37.2081 75.8144 36.8734 76.1904 36.5752C76.1617 37.6488 75.7468 38.6611 75.6596 39.7272C75.603 40.5462 75.3617 41.3344 75.2587 42.144C74.9626 43.4853 74.7817 44.848 74.5023 46.1931C74.1209 48.5383 73.5659 50.8482 73.1344 53.185C72.8031 54.6723 72.5144 56.1762 72.107 57.6468C71.8787 58.3151 71.7683 59.0327 71.3952 59.6434C71.5632 58.7799 71.7618 57.9228 71.9437 57.0621C72.1692 55.9941 72.572 54.9595 72.6481 53.8636C72.7242 52.9043 72.7551 51.9438 72.7409 50.982C72.7075 49.9874 72.7335 48.9612 72.3752 48.0149C72.0047 47.0936 71.5414 46.2125 70.9924 45.3853C71.4565 44.8852 72.0086 44.4465 72.2917 43.8051C72.8383 42.8839 73.1158 41.8429 73.3645 40.8101C73.5 40.1474 73.9214 39.6018 74.1459 38.9697C74.3399 38.4166 74.79 38.016 75.1585 37.5744Z" fill="#FB9B20"/>
<path d="M55.5394 58.8072C56.1389 58.6436 56.7654 58.7979 57.3704 58.8602C56.8201 58.757 56.331 59.0573 55.9988 59.47C55.4893 60.0974 54.7199 60.4822 54.3339 61.2119C54.0777 61.2036 53.8216 61.1989 53.5654 61.1915C53.6954 60.907 53.8132 60.6096 54.0239 60.3735C54.5065 59.8316 54.8981 59.1837 55.5394 58.8072Z" fill="#FB9B20"/>
<path d="M37.6742 32.2937C38.1048 32.0641 38.6115 32.0948 39.083 32.1292C37.762 34.458 36.4399 36.7862 35.1165 39.1137C34.9522 39.4009 34.8594 39.7216 34.7007 40.0116C34.4037 40.1976 34.0251 40.1316 33.691 40.1641C33.842 39.5485 34.0877 38.9602 34.4195 38.4203C35.389 36.5612 36.3461 34.6991 37.2909 32.8338C37.4004 32.6423 37.4932 32.4304 37.6742 32.2937Z" fill="#BDBDBE"/>
<path d="M56.2195 32.823C56.6548 32.7831 57.0882 32.718 57.5244 32.6836C57.1281 33.4467 56.5499 34.1067 56.252 34.9191C56.0144 35.4852 55.5523 35.9193 55.324 36.491C55.04 37.1556 54.5416 37.6873 54.1268 38.2673C53.8029 38.6995 53.6312 39.2284 53.272 39.6356C52.6484 40.3606 52.3115 41.2734 51.7695 42.0524C51.5097 41.8116 51.4094 41.4584 51.2637 41.1461C51.6656 40.4898 52.0786 39.8382 52.4154 39.1457C52.7737 38.4495 53.3342 37.8797 53.673 37.1695C53.8979 36.6957 54.1703 36.246 54.4859 35.8273C54.8906 35.2854 55.1012 34.6189 55.5458 34.1067C55.8706 33.7386 56.0692 33.285 56.2195 32.823Z" fill="#BDBDBE"/>
<path d="M27.9502 42.7244C28.5196 42.5182 29.115 42.393 29.7191 42.3525C28.9043 42.6574 28.0848 43.0032 27.4203 43.5832C27.1113 43.8767 26.8686 44.233 26.7085 44.6282C26.5484 45.0234 26.4747 45.4484 26.4923 45.8745C26.4783 46.2213 26.8208 46.4099 27.0315 46.6312C26.6677 46.6981 26.3104 46.8171 25.9401 46.8366C25.7016 46.3031 25.7665 45.6849 25.8361 45.1207C25.8938 44.6584 26.1202 44.2339 26.4719 43.929C26.935 43.4987 27.3424 42.9632 27.9502 42.7244Z" fill="#BDBDBE"/>
<path d="M41.7984 46.2289C42.1752 46.0309 42.411 46.4873 42.4676 46.794C42.4676 47.4828 42.2124 48.1418 41.9349 48.7637C41.8421 48.1688 41.7353 47.5776 41.6787 46.9781C41.6468 46.722 41.6883 46.4621 41.7984 46.2289Z" fill="#BDBDBE"/>
<path d="M57.891 54.1214C58.2883 53.8832 58.6978 53.666 59.1179 53.4707C58.7671 53.9559 58.2956 54.3305 57.8687 54.7442C57.0446 55.5928 56.2288 56.4508 55.3574 57.2539C54.8386 57.8256 54.1946 58.2569 53.6192 58.7662C53.0623 59.2561 52.3598 59.534 51.7733 59.9858C50.9659 60.59 49.9942 60.8912 49.0819 61.2946C48.5724 61.5297 48.0611 61.7593 47.5469 61.9861C47.0495 62.2027 46.4982 62.225 45.985 62.3858C44.1104 62.9324 42.1317 63.1852 40.1866 62.9259C39.3188 62.7958 38.4344 62.7037 37.6029 62.4072C37.046 62.2213 36.4521 62.1516 35.9472 61.8384C35.2493 61.4591 34.5644 61.0603 33.9055 60.6244C33.3487 60.2777 32.9867 59.7032 32.7055 59.126C32.4002 58.4009 32.4271 57.5867 32.5051 56.8189C32.7362 57.5904 33.3607 58.1323 33.848 58.7412C34.196 59.1762 34.7231 59.3918 35.2252 59.5898C36.2052 60.0035 37.1899 60.4329 38.2349 60.6523C40.168 60.9544 42.1327 60.9153 44.0816 60.8847C45.5767 60.8512 47.017 60.3929 48.3961 59.851C49.3473 59.4011 50.3701 59.1027 51.2684 58.5422C51.9181 58.1379 52.6141 57.8107 53.2173 57.3422C54.0303 56.6776 54.9936 56.2268 55.7954 55.5473C56.4367 54.9877 57.1829 54.5824 57.891 54.1214Z" fill="#BDBDBE"/>
<path d="M40.7518 55.8667C40.8205 55.5879 40.8975 55.3202 40.9717 55.0469C41.0051 55.4698 40.9717 55.9234 41.1741 56.311C41.3829 56.6763 41.8664 56.5806 42.219 56.5899C41.9171 56.6428 41.6099 56.6596 41.304 56.6401C40.929 56.6317 40.685 56.2116 40.7518 55.8667Z" fill="#BDBDBE"/>
<path d="M25.7823 56.544C26.1446 56.5141 26.5003 56.4298 26.8375 56.2939C26.7076 56.5663 26.5536 56.8368 26.4988 57.138C26.4348 57.5358 26.716 57.9067 27.0408 58.1028C27.5456 58.3817 28.1749 58.2032 28.6185 57.8816C28.9154 57.6622 28.9414 57.2625 28.9665 56.926C29.0992 57.3657 29.2904 57.797 29.6106 58.1344C29.9159 58.4542 30.2194 58.8186 30.6444 58.9784C31.0973 58.9227 31.3423 58.4579 31.5725 58.114C31.6179 58.5787 31.6838 59.05 31.9177 59.4599C32.2532 60.0577 32.6958 60.5883 33.2235 61.0253C33.6346 61.3618 34.0522 61.6908 34.4485 62.0477C33.3163 62.4196 32.068 62.5004 30.9219 62.1463C30.314 61.9557 29.6644 61.7977 29.1679 61.3738C28.7373 61.002 28.3326 60.5977 27.9094 60.2166C27.4575 59.8029 27.0194 59.3549 26.7317 58.8074C26.3791 58.0656 25.9364 57.3583 25.7823 56.544ZM29.0092 58.5508C28.638 58.6847 28.1953 58.9115 28.1368 59.3512C28.0988 59.6905 28.0514 60.1004 28.3131 60.3681C28.6769 60.7464 29.2263 61.0002 29.7553 60.8747C29.8659 60.8435 29.9667 60.7844 30.0479 60.703C30.1292 60.6216 30.1882 60.5207 30.2194 60.4099C30.3727 59.9485 30.3393 59.4453 30.1266 59.0082C29.9242 58.6094 29.4407 58.3361 29.0092 58.5508Z" fill="#BDBDBE"/>
<path d="M37.9425 64.9268L38.5346 65.0969C38.1417 66.2637 37.7087 67.4167 37.2354 68.5556C37.2883 67.3166 37.5722 66.1045 37.9425 64.9268Z" fill="#BDBDBE"/>
<path d="M42.3843 66.874C42.492 66.914 42.5996 66.954 42.7082 66.9958C42.7082 67.0562 42.6989 67.1771 42.6952 67.2375C42.6665 67.5461 42.6952 67.8816 42.543 68.1614C42.4168 68.2981 42.2832 68.4282 42.1588 68.5676C42.234 68.0034 42.3054 67.4382 42.3843 66.874Z" fill="#BDBDBE"/>
<path d="M67.4222 68.7336C67.4064 68.3618 67.593 68.029 67.799 67.7334C68.147 68.4343 68.5813 69.1379 69.2839 69.5302C69.8231 69.8899 70.4773 69.9531 71.101 70.0461C70.7196 70.0145 70.3186 69.9699 69.953 70.1074C69.489 70.3082 69.1177 70.7293 68.5953 70.7953C68.3038 70.7023 68.1312 70.4235 67.9697 70.1827C67.696 69.744 67.3786 69.2764 67.4222 68.7336Z" fill="#BDBDBE"/>
<path d="M67.7841 74.3729C67.4073 73.7622 67.5057 72.9015 68.0458 72.4209C68.2315 73.2138 68.456 74.0838 69.1298 74.6118C69.501 74.9409 70.0226 75.0264 70.5015 74.9492C71.121 74.8438 71.7487 74.7944 72.3771 74.8014C71.668 74.8674 71.2226 75.5283 70.5321 75.638C69.9877 75.7135 69.4332 75.6551 68.9164 75.4679C68.3948 75.2941 68.057 74.8237 67.7841 74.3729Z" fill="#BDBDBE"/>
<path d="M68.2574 77.2702C68.2685 76.8984 68.4096 76.5414 68.559 76.2021C69.0452 76.3711 69.547 76.4913 70.0569 76.5609C69.6968 76.7673 69.307 77.0954 69.3395 77.5546C69.3627 78.0426 69.7878 78.3865 70.2249 78.5185C72.1738 79.1692 74.3083 79.3877 76.3212 78.8969C77.5101 78.6477 78.2275 77.3985 78.2702 76.2486C78.5486 77.1326 78.4103 78.1765 77.8182 78.9052C77.447 79.37 77.1073 79.9175 76.5189 80.1266C75.7858 80.4055 75.0517 80.768 74.248 80.7671C73.1946 80.8256 72.1487 80.6184 71.1474 80.3023C70.6648 80.1415 70.1265 80.1006 69.707 79.7883C69.2875 79.476 68.856 79.1488 68.5256 78.7342C68.1952 78.3196 68.2296 77.7656 68.2574 77.2702Z" fill="#BDBDBE"/>
<path d="M31.3283 78.6734L31.7793 78.3945C31.8203 78.7275 31.9327 79.0476 32.1089 79.3329C32.2852 79.6182 32.521 79.8619 32.8001 80.0472C33.5157 80.5557 34.4409 80.512 35.2743 80.4646C35.8209 80.4135 36.3787 80.433 36.916 80.3131C37.3495 80.2118 37.5406 79.7628 37.8636 79.5035C38.142 79.2804 38.4009 79.0313 38.6812 78.811C38.645 79.417 38.7916 80.0919 38.4288 80.6273C38.129 81.0456 37.7151 81.4174 37.2149 81.5642C35.8785 81.9574 34.4307 82.122 33.0739 81.7316C32.7259 81.6172 32.3361 81.5103 32.1078 81.2008C31.6011 80.46 31.2856 79.5806 31.3283 78.6734Z" fill="#BDBDBE"/>
<path d="M44.2504 96.5918C44.5531 96.3535 44.9065 96.1881 45.2833 96.1084C45.0457 96.536 44.668 97.0314 44.9204 97.5371C44.4122 98.2627 43.9407 99.0135 43.5079 99.7866C43.5362 98.9926 43.5231 98.1977 43.4689 97.4051C43.6165 97.0454 43.9627 96.8269 44.2504 96.5918Z" fill="#BDBDBE"/>
<path d="M84.0807 100.895C84.0492 100.396 84.1624 99.9042 84.2589 99.4189C84.2403 99.7908 84.2654 100.185 84.4891 100.495C84.8603 101.036 85.4765 101.326 86.0194 101.665C86.6811 102.081 87.4792 102.166 88.1706 102.517C88.7841 102.865 89.5042 102.796 90.1817 102.783C90.0666 102.956 89.9961 103.237 89.7492 103.248C89.1535 103.311 88.5513 103.241 87.9859 103.042C87.3957 102.846 86.773 102.78 86.179 102.604C85.4951 102.377 84.7786 102.245 84.1373 101.913C84.1234 101.57 84.1021 101.232 84.0807 100.895Z" fill="#BDBDBE"/>
<path d="M63.852 57.2237C64.6158 57.0489 65.2775 56.6241 65.9234 56.2012C66.0998 56.5488 66.2677 56.9123 66.2882 57.3082C66.3652 58.6384 66.3262 60.0039 65.891 61.2755C65.4269 61.0385 64.9963 60.7345 64.5072 60.5486C64.1998 60.4179 63.9016 60.2667 63.6144 60.0959C63.6516 59.4741 63.8093 58.8643 63.8168 58.2368C63.826 57.8985 63.8378 57.5608 63.852 57.2237Z" fill="#EF5969"/>
<path d="M37.9426 64.9267C38.0091 64.4006 38.1842 63.8941 38.4567 63.4395C38.6098 63.4738 38.7639 63.5082 38.9207 63.5445C38.8066 64.066 38.6776 64.5837 38.5374 65.0996L37.9426 64.9267Z" fill="#EF5969"/>
<path d="M34.5328 63.54C35.7272 63.8552 36.7527 64.5941 37.9424 64.9269C37.5712 66.1046 37.2928 67.3167 37.239 68.5521C37.7092 67.4137 38.1423 66.2608 38.5383 65.0933C40.0677 65.4391 41.469 66.1753 42.8676 66.8594C42.8101 66.9821 42.7544 67.1057 42.6987 67.2312C42.6987 67.1708 42.7089 67.0453 42.7117 66.9895C42.6031 66.9477 42.4955 66.9077 42.3878 66.8678C42.3089 67.432 42.2375 67.9971 42.1623 68.5614C41.9618 69.2055 41.7558 69.8757 41.2946 70.387C40.8964 70.8304 40.4797 71.2951 39.9173 71.5275C39.4826 71.7102 39.0361 71.8636 38.5809 71.9867C38.2366 71.9755 37.8496 71.851 37.6585 71.5452C37.4729 71.0674 37.5146 70.5227 37.2817 70.0644C37.1317 69.7644 36.8967 69.5154 36.6061 69.3487C36.039 69.001 35.4246 68.698 34.7574 68.6181C34.1736 68.5446 33.5834 68.5902 32.9941 68.5669C33.2474 67.3455 33.5212 66.1167 34.0149 64.9678C34.2043 64.5002 34.363 64.0187 34.5328 63.54Z" fill="#EF5969"/>
<path d="M54.5574 59.0484C54.8553 58.8764 55.2071 58.8569 55.5393 58.8076C54.898 59.1841 54.5064 59.8301 54.0238 60.3739C53.8131 60.61 53.6953 60.9074 53.5653 61.1919C53.8215 61.1993 54.0776 61.204 54.3338 61.2123C54.7006 61.2278 55.0669 61.2517 55.4326 61.2839C54.7133 61.2597 53.9867 61.2067 53.2748 61.3471C52.7978 61.4401 52.2902 61.4224 51.8419 61.6315C50.8396 62.1893 49.6991 62.3938 48.604 62.6828L48.6624 62.9896C47.7186 63.4423 46.9028 64.1283 46.1715 64.8719C45.3957 65.8832 44.7795 67.1548 43.5322 67.6605C43.5721 66.8732 43.7605 66.1072 43.9619 65.3497C44.0547 65.028 43.8783 64.7101 43.909 64.3885C43.9674 64.1494 44.0415 63.9143 44.1308 63.6849C44.9303 63.5519 45.7111 63.3235 46.4565 63.0045C47.6119 62.4793 48.9167 62.3714 50.0397 61.7635C50.9974 61.2448 51.9886 60.781 52.8934 60.1722C53.4281 59.7687 53.9835 59.3936 54.5574 59.0484Z" fill="#FD780B"/>
<path d="M69.5538 80.7256C69.9274 80.8021 70.2955 80.904 70.6554 81.0305C70.5461 81.338 70.4065 81.6338 70.2387 81.9135C69.8675 82.488 69.6429 83.1461 69.241 83.7038C69.422 82.7185 69.4925 81.723 69.5538 80.7256Z" fill="#FD780B"/>
<path d="M55.9977 59.4701C56.33 59.0574 56.8191 58.7571 57.3694 58.8603C58.1118 58.9681 58.8784 58.9746 59.5967 59.2321C60.4088 59.4989 61.231 59.7415 62.0152 60.0873C62.4106 60.2657 62.7697 60.5176 63.1771 60.671C64.1664 61.0242 64.9729 61.7186 65.8304 62.3023C66.4411 62.7048 66.9441 63.244 67.5325 63.6697C67.9547 63.9885 68.222 64.4598 68.6248 64.8C68.9051 65.0431 69.1603 65.3137 69.3867 65.6078C68.9496 65.8085 68.5051 66.0121 68.1348 66.3254C67.835 66.5819 67.5213 66.8199 67.2132 67.0643C66.9822 66.6303 66.7093 66.211 66.3232 65.8987C65.8592 65.5269 65.5455 64.9924 65.024 64.6968C64.3808 64.3371 63.8852 63.7673 63.217 63.4438C62.2973 63.0014 61.4417 62.413 60.4579 62.1155C59.386 61.7623 58.2956 61.4323 57.1634 61.3514C56.5889 61.2966 56.0107 61.3579 55.4372 61.2873C55.0715 61.2551 54.7053 61.2312 54.3384 61.2157C54.7198 60.4823 55.4892 60.0975 55.9977 59.4701Z" fill="#FED519"/>
<path d="M50.5632 62.3788C51.8764 62.0712 53.236 62.0907 54.5761 62.0303C55.4439 61.9838 56.3097 62.0628 57.1747 62.0637C58.5872 62.1911 59.9143 62.7302 61.2071 63.2833C61.9495 63.5426 62.5991 63.9721 63.2488 64.4052C63.8533 64.7784 64.4293 65.196 64.9722 65.6545C65.4306 65.9984 65.7675 66.4716 66.2102 66.8331C66.4515 67.0534 66.7503 67.2505 66.8691 67.5693C66.8923 67.8687 66.806 68.1615 66.7763 68.458C66.708 69.0755 66.8104 69.6999 67.0723 70.2631C67.2626 70.6693 67.6153 70.9612 67.9484 71.2475C67.631 71.5812 67.2821 71.8982 67.0658 72.3118C66.8496 72.7255 66.8348 73.2042 66.8543 73.6596C66.8728 74.0789 66.961 74.5111 67.2051 74.8615C67.3907 75.1515 67.683 75.3588 67.8807 75.6423C67.8519 76.0597 67.5883 76.4194 67.5178 76.8303C67.3934 77.4809 67.3647 78.2162 67.7238 78.8046C67.9029 79.1137 68.0987 79.4129 68.3104 79.7007C68.5396 80.0037 68.9247 80.1283 69.1688 80.4146C69.2978 81.0392 69.1178 81.6796 69.0389 82.3015C68.9164 83.324 68.5359 84.2851 68.1925 85.2472C67.9661 85.8979 67.4696 86.3849 67.1067 86.9529C66.8758 87.3022 66.601 87.6202 66.2891 87.8991C65.8891 88.271 65.5735 88.7432 65.0937 89.0239C64.4766 89.3864 63.9866 89.932 63.3434 90.2536C62.5295 90.671 61.7379 91.1348 60.9045 91.5122C60.3672 91.6981 59.8206 91.8599 59.2823 92.0449C57.9719 92.4585 56.5807 92.3767 55.2258 92.3851C54.0045 92.3916 52.7952 92.1425 51.6398 91.7604C50.424 91.4816 49.3874 90.7491 48.3099 90.156C47.7531 89.8818 47.3392 89.3948 46.8353 89.0406C46.1856 88.5833 45.6947 87.9475 45.1044 87.4214C44.7332 87.0997 44.5105 86.6536 44.2191 86.266C43.9704 85.9285 43.6075 85.672 43.4525 85.2714C43.1843 84.5835 42.7361 83.9886 42.4075 83.3314C41.9899 82.7217 41.8553 81.9836 41.5528 81.3208C41.1732 80.4155 41.0563 79.4367 40.854 78.4848C40.7387 77.876 40.6927 77.2561 40.7166 76.6369C40.7343 76.1043 40.6739 75.5726 40.6888 75.0409C40.6888 74.525 41.2048 74.182 41.1992 73.6643C41.2577 73.167 40.982 72.7348 40.6981 72.3555C41.1129 72.1241 41.5621 71.9084 41.8507 71.5189C42.2628 70.9612 42.7908 70.476 43.0182 69.8049C43.3402 69.1337 43.3393 68.3771 43.5323 67.6669C44.7787 67.1566 45.3959 65.885 46.1717 64.8783C46.903 64.1282 47.7188 63.4422 48.6663 62.9895C49.2742 62.7237 49.9266 62.5712 50.5632 62.3788ZM50.2282 66.3507C50.2282 67.1678 50.2709 67.9848 50.2282 68.8019C49.1387 68.8716 48.0454 68.8744 46.9541 68.853C46.9355 69.5595 46.9605 70.2696 46.8547 70.9714C46.787 71.4362 46.9476 71.8824 47.0821 72.3183C47.9907 72.3267 48.9002 72.2942 49.8087 72.3453C49.7976 75.7189 49.7976 79.0921 49.8087 82.4651C48.851 82.4651 47.8942 82.453 46.9364 82.4651C46.9225 83.5592 46.9141 84.6542 46.9438 85.7482C47.9338 85.768 48.9237 85.768 49.9136 85.7482C49.8811 86.7911 49.9925 87.8304 49.9693 88.8724C51.1164 88.8556 52.2644 88.9123 53.4105 88.8398C53.4179 87.8173 53.4105 86.7949 53.4105 85.7724C54.023 85.7724 54.6355 85.7724 55.249 85.7724C55.2935 86.7949 55.2573 87.8276 55.2777 88.8556C56.4731 88.8789 57.6684 88.8686 58.8637 88.8742C58.9055 87.8396 58.8637 86.8042 58.8888 85.7705C59.4558 85.6999 60.0386 85.6618 60.5723 85.4424C61.0122 85.2672 61.4414 85.0661 61.8576 84.8401C62.382 84.5407 62.7087 84.0165 63.0641 83.5471C63.3926 83.1306 63.452 82.5869 63.6488 82.1082C63.9133 81.4575 63.8205 80.752 63.8344 80.0725C63.8418 79.5743 63.7815 79.0649 63.5457 78.6196C63.1588 77.849 62.6957 77.0441 61.9012 76.636C62.5314 76.2186 62.846 75.502 63.0205 74.7927C63.2441 73.6466 62.9351 72.4763 62.446 71.4408C62.1323 70.9361 61.6479 70.5717 61.2321 70.1562C60.6057 69.5427 59.6786 69.5297 58.8739 69.341C58.8582 68.4273 58.925 67.5108 58.8656 66.5989C58.5955 66.334 58.1872 66.3275 57.8336 66.3117C57.042 66.3117 56.2513 66.2838 55.4606 66.321C55.3473 67.2105 55.4355 68.1103 55.3167 68.9999C54.6806 69.0476 54.0421 69.0554 53.4049 69.0231C53.3947 68.1233 53.4189 67.2236 53.3957 66.3275C52.3367 66.3284 51.2834 66.373 50.2282 66.3507Z" fill="#FED519"/>
<path d="M53.4447 72.3427C54.7802 72.3055 56.1166 72.3427 57.452 72.3223C58.0089 72.3306 58.6492 72.3613 59.0808 72.7657C59.504 73.2583 59.6144 73.9564 59.5021 74.5838C59.4631 74.792 59.4149 75.0272 59.2292 75.1564C58.8184 75.4437 58.3249 75.5883 57.8242 75.5682C56.8154 75.5617 55.8066 75.5682 54.7978 75.557C54.8024 76.5795 54.7978 77.6094 54.8043 78.6347C55.9347 78.6561 57.066 78.644 58.1973 78.6431C58.6965 78.6356 59.2404 78.7649 59.5893 79.1441C60.0227 79.6935 60.1044 80.452 59.9606 81.1203C59.7972 81.6687 59.426 82.2088 58.8775 82.4216C58.0423 82.5713 57.1838 82.4737 56.3393 82.4756C55.3713 82.4756 54.4043 82.469 53.4363 82.4663C53.3853 80.1824 53.4364 77.8985 53.4308 75.6147C53.4382 74.5215 53.4104 73.4321 53.4447 72.3427Z" fill="#FED519"/>
<path d="M37.4209 72.5358C37.7856 72.4856 38.1485 72.5934 38.5141 72.5953C39.0218 72.6157 39.5767 72.5107 40.0352 72.7895C40.1734 72.8629 40.2868 72.9758 40.361 73.1138C40.4352 73.2518 40.4668 73.4087 40.4519 73.5648C40.3758 73.958 40.0918 74.2796 40.0445 74.6802C39.8783 75.949 40.0296 77.2271 40.1373 78.4913C40.309 79.6783 40.4704 80.8885 40.9586 81.9956C41.1553 82.5989 41.4653 83.1529 41.7363 83.7236C42.0463 84.5602 42.5391 85.3038 43.0829 86.0028C43.3613 86.4062 43.5302 86.8924 43.9079 87.2261C44.4444 87.6834 44.7525 88.3555 45.3436 88.7561C45.9348 89.1567 46.3264 89.7842 46.9529 90.1309C47.532 90.4637 48.0174 90.9321 48.5965 91.2668C49.0605 91.5837 49.5932 91.765 50.1101 91.9751C52.3374 93.097 54.9118 93.2532 57.36 93.0747C58.1816 93.0506 58.9973 92.9279 59.7897 92.7094C60.3716 92.5123 60.9098 92.2019 61.5019 92.0299C61.9178 91.927 62.3168 91.7652 62.6871 91.5494C63.4685 91.0604 64.2527 90.5771 65.0239 90.0733C65.4749 89.7944 65.7598 89.3157 66.2127 89.0378C66.503 88.8739 66.7517 88.6452 66.9394 88.3694C67.2735 87.8461 67.8359 87.5245 68.1579 86.99C68.5291 86.3858 69.0535 85.8904 69.4303 85.288C69.8015 84.7424 70.0344 84.1159 70.3973 83.5637C70.8892 82.848 71.0219 81.9742 71.2493 81.1544C72.0845 81.3821 72.9402 81.4825 73.7819 81.6647C73.6433 82.2337 73.457 82.79 73.2251 83.3276C72.8121 84.2618 72.5049 85.2583 71.9072 86.0976C71.523 86.6265 71.2966 87.2558 70.8753 87.7587C70.324 88.4168 69.7885 89.088 69.2372 89.7451C68.8549 90.2015 68.3723 90.5529 67.938 90.9535C67.4489 91.3681 66.996 91.8422 66.4123 92.1257C65.8109 92.4259 65.384 92.9836 64.7677 93.2588C64.0253 93.5878 63.3209 93.9875 62.5961 94.35C62.0309 94.6466 61.3961 94.76 60.7938 94.9533C59.6477 95.3123 58.4646 95.5399 57.2672 95.6319C56.4301 95.6535 55.5927 95.6535 54.755 95.6319C53.2534 95.4971 51.7546 95.2489 50.3273 94.7488C49.3723 94.5434 48.4999 94.0879 47.6703 93.585C47.222 93.3062 46.6995 93.1612 46.268 92.8526C45.546 92.3097 44.8536 91.7306 44.1418 91.1738C43.7121 90.8318 43.3799 90.3884 42.9725 90.0221C42.1103 89.2255 41.469 88.2356 40.7516 87.3163C40.4621 86.897 40.3387 86.3867 40.051 85.9712C39.6612 85.4135 39.3596 84.7982 39.0505 84.194C38.7452 83.3908 38.5865 82.5366 38.2487 81.7465C38.9512 81.2957 39.3141 80.4833 39.4552 79.6857C39.5804 78.9486 39.2315 78.2505 38.967 77.585C38.7341 76.9696 38.0659 76.7484 37.5359 76.4621C37.8097 75.8867 38.0241 75.2407 37.883 74.603C37.8181 74.1494 37.5192 73.7897 37.3262 73.3947C37.1786 73.1121 37.2631 72.783 37.4209 72.5358Z" fill="#FED519"/>
<path d="M35.0989 62.2686C36.2405 62.5995 37.2762 63.2734 38.4798 63.3924L38.4566 63.4342C38.1841 63.8889 38.009 64.3953 37.9425 64.9214C36.7527 64.5887 35.7272 63.8497 34.5328 63.5346C34.7011 63.1051 34.8898 62.6831 35.0989 62.2686Z" fill="#D64447"/>
<path d="M38.9217 63.541C39.5314 63.5931 40.1384 63.6804 40.7481 63.7269C41.6 63.792 42.4529 63.7046 43.3039 63.7585C43.3448 64.8126 43.1053 65.8463 42.8678 66.866C41.4692 66.1781 40.0678 65.4419 38.5384 65.0998C38.6748 64.5802 38.8038 64.0625 38.9217 63.541Z" fill="#D64447"/>
</g>
<defs>
<filter id="filter0_d_313_191" x="0" y="-8" width="435.481" height="137" filterUnits="userSpaceOnUse" color-interpolation-filters="sRGB">
<feFlood flood-opacity="0" result="BackgroundImageFix"/>
<feColorMatrix in="SourceAlpha" type="matrix" values="0 0 0 0 0 0 0 0 0 0 0 0 0 0 0 0 0 0 127 0" result="hardAlpha"/>
<feOffset/>
<feGaussianBlur stdDeviation="12.5"/>
<feComposite in2="hardAlpha" operator="out"/>
<feColorMatrix type="matrix" values="0 0 0 0 1 0 0 0 0 1 0 0 0 0 1 0 0 0 0.35 0"/>
<feBlend mode="normal" in2="BackgroundImageFix" result="effect1_dropShadow_313_191"/>
<feBlend mode="normal" in="SourceGraphic" in2="effect1_dropShadow_313_191" result="shape"/>
</filter>
</defs>
</svg>
