<svg width="436" height="120" viewBox="0 0 436 120" fill="none" xmlns="http://www.w3.org/2000/svg">
<g filter="url(#filter0_d_436_493)">
<path d="M129.011 54.8914C129.011 56.2797 128.626 57.4828 127.854 58.5008C127.114 59.488 126.034 60.2592 124.615 60.8145C126.405 61.4007 127.746 62.2644 128.641 63.4059C129.536 64.5473 129.983 65.9201 129.983 67.5243C129.983 70.5167 128.872 72.7378 126.651 74.1877C124.461 75.6377 121.284 76.3626 117.119 76.3626C116.564 76.3626 115.931 76.3472 115.222 76.3163C114.543 76.2855 113.833 76.2238 113.093 76.1312C112.383 76.0695 111.659 75.9616 110.918 75.8073C110.209 75.6839 109.561 75.5143 108.975 75.2983C107.37 74.7122 106.568 73.6633 106.568 72.1517V50.1252C106.568 49.5082 106.723 49.0301 107.031 48.6907C107.37 48.3514 107.849 48.0891 108.466 47.904C109.484 47.5647 110.748 47.3179 112.26 47.1637C113.772 46.9786 115.33 46.886 116.934 46.886C120.79 46.886 123.767 47.5493 125.865 48.8758C127.962 50.1715 129.011 52.1767 129.011 54.8914ZM122.579 67.2003C122.579 65.01 121.176 63.9149 118.368 63.9149H113.602V70.3933C114.096 70.5167 114.713 70.6092 115.453 70.6709C116.193 70.7326 116.903 70.7635 117.582 70.7635C119.062 70.7635 120.265 70.4858 121.191 69.9305C122.116 69.3444 122.579 68.4343 122.579 67.2003ZM113.602 58.7785H117.906C119.109 58.7785 120.05 58.5008 120.728 57.9455C121.407 57.3902 121.746 56.5727 121.746 55.493C121.746 54.5058 121.345 53.75 120.543 53.2256C119.772 52.6703 118.6 52.3926 117.026 52.3926C116.44 52.3926 115.823 52.4235 115.175 52.4852C114.528 52.516 114.003 52.5623 113.602 52.624V58.7785Z" fill="white"/>
<path d="M144.57 71.1799C145.249 71.1799 145.912 71.1182 146.56 70.9948C147.239 70.8406 147.748 70.6555 148.087 70.4395V66.1823L144.293 66.5062C143.305 66.5988 142.503 66.8302 141.886 67.2003C141.3 67.5397 141.007 68.0641 141.007 68.7737C141.007 69.5141 141.285 70.1002 141.84 70.5321C142.395 70.964 143.305 71.1799 144.57 71.1799ZM144.293 52.7166C145.897 52.7166 147.347 52.8862 148.642 53.2256C149.969 53.5341 151.095 54.0277 152.02 54.7063C152.946 55.385 153.655 56.2488 154.149 57.2977C154.673 58.3466 154.936 59.5805 154.936 60.9996V71.4576C154.936 72.2596 154.72 72.9075 154.288 73.4011C153.887 73.8638 153.393 74.2649 152.807 74.6042C151.851 75.1903 150.678 75.6377 149.29 75.9461C147.902 76.2546 146.329 76.4089 144.57 76.4089C141.393 76.4089 138.863 75.8073 136.981 74.6042C135.099 73.3702 134.159 71.5038 134.159 69.005C134.159 66.8764 134.791 65.2568 136.056 64.1463C137.321 63.0357 139.264 62.3416 141.886 62.0639L148.041 61.4161V60.9071C148.041 59.9199 147.64 59.1949 146.838 58.7322C146.036 58.2694 144.879 58.0381 143.367 58.0381C142.195 58.0381 141.038 58.1769 139.897 58.4545C138.786 58.7322 137.783 59.0561 136.889 59.4263C136.519 59.1795 136.195 58.8093 135.917 58.3157C135.67 57.7913 135.547 57.236 135.547 56.6499C135.547 55.2925 136.256 54.3207 137.675 53.7346C138.57 53.3952 139.603 53.1484 140.776 52.9942C141.979 52.8091 143.151 52.7166 144.293 52.7166Z" fill="white"/>
<path d="M168.085 75.6222C167.776 75.7148 167.344 75.7919 166.789 75.8536C166.234 75.9461 165.617 75.9924 164.938 75.9924C163.55 75.9924 162.547 75.7765 161.93 75.3446C161.313 74.8818 161.005 74.0026 161.005 72.707V58.5934C161.005 57.7296 161.221 56.9892 161.653 56.3722C162.084 55.7552 162.686 55.2154 163.457 54.7526C164.475 54.1356 165.694 53.6575 167.113 53.3181C168.563 52.9479 170.074 52.7628 171.648 52.7628C174.856 52.7628 176.46 53.8426 176.46 56.002C176.46 56.5265 176.383 57.0046 176.229 57.4365C176.075 57.8684 175.905 58.2386 175.72 58.5471C175.01 58.3928 174.147 58.3157 173.129 58.3157C172.234 58.3157 171.339 58.4237 170.445 58.6396C169.55 58.8556 168.763 59.1487 168.085 59.5188V75.6222Z" fill="white"/>
<path d="M187.357 75.6222C187.049 75.7148 186.617 75.7919 186.061 75.8536C185.506 75.9461 184.889 75.9924 184.211 75.9924C182.822 75.9924 181.82 75.7765 181.203 75.3446C180.586 74.8818 180.277 74.0026 180.277 72.707V58.5934C180.277 57.7296 180.493 56.9892 180.925 56.3722C181.357 55.7552 181.958 55.2154 182.73 54.7526C183.748 54.1356 184.966 53.6575 186.385 53.3181C187.835 52.9479 189.347 52.7628 190.92 52.7628C194.129 52.7628 195.733 53.8426 195.733 56.002C195.733 56.5265 195.656 57.0046 195.501 57.4365C195.347 57.8684 195.177 58.2386 194.992 58.5471C194.283 58.3928 193.419 58.3157 192.401 58.3157C191.506 58.3157 190.612 58.4237 189.717 58.6396C188.822 58.8556 188.036 59.1487 187.357 59.5188V75.6222Z" fill="white"/>
<path d="M205.204 67.478C205.636 68.7737 206.391 69.6991 207.471 70.2544C208.551 70.7789 209.8 71.0411 211.219 71.0411C212.515 71.0411 213.734 70.8714 214.875 70.5321C216.016 70.1619 216.942 69.7608 217.651 69.329C218.114 69.6374 218.5 70.0385 218.808 70.5321C219.117 71.0257 219.271 71.5655 219.271 72.1517C219.271 72.8612 219.055 73.4782 218.623 74.0026C218.191 74.5271 217.59 74.9744 216.819 75.3446C216.078 75.6839 215.184 75.9307 214.135 76.085C213.117 76.2701 211.991 76.3626 210.757 76.3626C208.937 76.3626 207.255 76.1158 205.713 75.6222C204.17 75.0978 202.844 74.342 201.733 73.3548C200.623 72.3368 199.743 71.0719 199.096 69.5603C198.479 68.0487 198.17 66.2749 198.17 64.2388C198.17 62.2644 198.479 60.5523 199.096 59.1024C199.743 57.6525 200.592 56.4493 201.641 55.493C202.72 54.5367 203.939 53.8426 205.296 53.4107C206.685 52.9479 208.104 52.7166 209.554 52.7166C211.127 52.7166 212.561 52.9633 213.857 53.4569C215.184 53.9197 216.31 54.5829 217.235 55.4467C218.191 56.3105 218.932 57.344 219.456 58.5471C219.981 59.7502 220.243 61.0613 220.243 62.4804C220.243 63.4676 219.981 64.208 219.456 64.7015C218.932 65.1951 218.191 65.5191 217.235 65.6733L205.204 67.478ZM209.6 57.9455C208.273 57.9455 207.163 58.362 206.268 59.1949C205.404 59.997 204.895 61.1693 204.741 62.7118L213.579 61.2773C213.518 60.4752 213.163 59.7194 212.515 59.0098C211.867 58.3003 210.895 57.9455 209.6 57.9455Z" fill="white"/>
<path d="M239.63 61.4624C239.63 60.3826 239.306 59.5805 238.658 59.0561C238.011 58.5317 237.147 58.2694 236.067 58.2694C235.327 58.2694 234.648 58.362 234.031 58.5471C233.414 58.7322 232.843 58.9636 232.319 59.2412V75.6222C232.01 75.7148 231.579 75.7919 231.023 75.8536C230.468 75.9461 229.851 75.9924 229.172 75.9924C227.784 75.9924 226.781 75.7765 226.164 75.3446C225.547 74.8818 225.239 74.0026 225.239 72.707V58.4083C225.239 57.6062 225.409 56.9583 225.748 56.4648C226.087 55.9712 226.566 55.5084 227.183 55.0765C228.17 54.367 229.435 53.7963 230.977 53.3644C232.55 52.9325 234.278 52.7166 236.16 52.7166C239.522 52.7166 242.114 53.4569 243.934 54.9377C245.785 56.4185 246.71 58.5317 246.71 61.2773V75.6222C246.371 75.7148 245.924 75.7919 245.368 75.8536C244.813 75.9461 244.196 75.9924 243.517 75.9924C242.129 75.9924 241.126 75.7765 240.509 75.3446C239.923 74.8818 239.63 74.0026 239.63 72.707V61.4624Z" fill="white"/>
<path d="M276.573 54.475C276.912 54.3207 277.39 54.1665 278.007 54.0122C278.655 53.8271 279.334 53.7346 280.043 53.7346C281.216 53.7346 282.187 53.9043 282.959 54.2436C283.73 54.5829 284.208 55.092 284.393 55.7706C284.763 57.128 285.118 58.3928 285.457 59.5651C285.797 60.7065 286.121 61.8171 286.429 62.8969C286.738 63.9766 287.031 65.0409 287.308 66.0898C287.617 67.1386 287.91 68.2338 288.188 69.3752H288.419C288.728 67.4626 289.005 65.627 289.252 63.8686C289.499 62.0793 289.73 60.3364 289.946 58.6396C290.193 56.9121 290.424 55.1999 290.64 53.5032C290.856 51.8065 291.072 50.0635 291.288 48.2742C292.275 47.6881 293.37 47.395 294.573 47.395C295.592 47.395 296.471 47.6264 297.211 48.0891C297.951 48.521 298.322 49.2614 298.322 50.3103C298.322 50.9581 298.245 51.9145 298.09 53.1793C297.967 54.4133 297.782 55.8169 297.535 57.3902C297.288 58.9327 296.995 60.5523 296.656 62.249C296.347 63.9457 296.008 65.5962 295.638 67.2003C295.298 68.7737 294.944 70.2236 294.573 71.5501C294.203 72.8458 293.849 73.8792 293.509 74.6505C293.077 75.0207 292.399 75.3446 291.473 75.6222C290.548 75.869 289.591 75.9924 288.604 75.9924C287.308 75.9924 286.198 75.8228 285.272 75.4834C284.378 75.1132 283.822 74.6042 283.607 73.9564C283.175 72.6607 282.666 71.0411 282.079 69.0976C281.524 67.1232 280.938 65.01 280.321 62.758C280.074 63.8686 279.812 64.9792 279.534 66.0898C279.257 67.2003 278.979 68.2801 278.701 69.329C278.424 70.3778 278.146 71.365 277.869 72.2905C277.622 73.1851 277.39 73.9872 277.174 74.6968C276.743 75.0361 276.11 75.3446 275.277 75.6222C274.475 75.869 273.565 75.9924 272.547 75.9924C271.313 75.9924 270.187 75.8073 269.169 75.4371C268.182 75.0669 267.534 74.5734 267.225 73.9564C266.948 73.3702 266.639 72.5219 266.3 71.4113C265.992 70.3007 265.652 69.0359 265.282 67.6168C264.943 66.1669 264.588 64.6244 264.218 62.9894C263.878 61.3235 263.539 59.6731 263.2 58.0381C262.891 56.3722 262.614 54.7526 262.367 53.1793C262.12 51.606 261.919 50.1715 261.765 48.8758C262.166 48.5365 262.706 48.2125 263.385 47.904C264.063 47.5647 264.819 47.395 265.652 47.395C266.701 47.395 267.549 47.6418 268.197 48.1354C268.876 48.5982 269.308 49.3694 269.493 50.4491C269.987 53.349 270.388 55.8169 270.696 57.853C271.035 59.889 271.313 61.632 271.529 63.082C271.776 64.5319 271.976 65.7504 272.131 66.7376C272.316 67.7248 272.485 68.604 272.64 69.3752H272.871C273.179 68.1104 273.473 66.9381 273.75 65.8584C274.028 64.7787 274.305 63.6835 274.583 62.5729C274.892 61.4315 275.2 60.2284 275.509 58.9636C275.848 57.6679 276.203 56.1717 276.573 54.475Z" fill="white"/>
<path d="M324.682 71.0411C324.682 72.491 324.05 73.6016 322.785 74.3728C321.798 74.9898 320.579 75.468 319.129 75.8073C317.679 76.1775 316.075 76.3626 314.317 76.3626C312.651 76.3626 311.139 76.1775 309.782 75.8073C308.424 75.468 307.252 74.9127 306.265 74.1415C305.309 73.3702 304.553 72.3985 303.998 71.2262C303.473 70.0539 303.211 68.6348 303.211 66.969V53.5032C303.55 53.4107 303.997 53.3181 304.553 53.2256C305.108 53.133 305.725 53.0867 306.404 53.0867C307.792 53.0867 308.779 53.3181 309.365 53.7809C309.982 54.2436 310.291 55.1228 310.291 56.4185V66.9227C310.291 68.3109 310.646 69.3135 311.355 69.9305C312.065 70.5167 313.067 70.8097 314.363 70.8097C315.165 70.8097 315.828 70.748 316.353 70.6246C316.908 70.4704 317.324 70.3161 317.602 70.1619V53.5032C317.911 53.4107 318.342 53.3181 318.898 53.2256C319.453 53.133 320.07 53.0867 320.749 53.0867C322.137 53.0867 323.14 53.3181 323.757 53.7809C324.374 54.2436 324.682 55.1228 324.682 56.4185V71.0411Z" fill="white"/>
<path d="M337.647 55.0303H345.513C345.668 55.3388 345.822 55.7244 345.976 56.1871C346.161 56.6499 346.254 57.1589 346.254 57.7142C346.254 58.7013 346.022 59.4109 345.56 59.8428C345.128 60.2747 344.557 60.4906 343.847 60.4906H337.971V75.6222C337.662 75.7148 337.23 75.7919 336.675 75.8536C336.12 75.9461 335.503 75.9924 334.824 75.9924C333.436 75.9924 332.433 75.7765 331.816 75.3446C331.199 74.8818 330.891 74.0026 330.891 72.707V53.0405C330.891 51.5289 331.137 50.2178 331.631 49.1072C332.156 47.9966 332.865 47.102 333.76 46.4233C334.654 45.7137 335.703 45.1893 336.906 44.85C338.109 44.5106 339.405 44.3409 340.793 44.3409C342.984 44.3409 344.603 44.634 345.652 45.2201C346.732 45.7754 347.272 46.7009 347.272 47.9966C347.272 48.5827 347.148 49.1072 346.902 49.5699C346.686 50.0018 346.423 50.3411 346.115 50.5879C345.529 50.4028 344.896 50.2486 344.218 50.1252C343.57 50.0018 342.829 49.9401 341.996 49.9401C340.577 49.9401 339.498 50.2023 338.757 50.7268C338.017 51.2204 337.647 52.0687 337.647 53.2718V55.0303ZM356.573 55.0303H364.439C364.594 55.3388 364.748 55.7244 364.902 56.1871C365.087 56.6499 365.18 57.1589 365.18 57.7142C365.18 58.7013 364.948 59.4109 364.486 59.8428C364.054 60.2747 363.483 60.4906 362.774 60.4906H356.897V75.6222C356.588 75.7148 356.156 75.7919 355.601 75.8536C355.046 75.9461 354.429 75.9924 353.75 75.9924C352.362 75.9924 351.359 75.7765 350.742 75.3446C350.125 74.8818 349.817 74.0026 349.817 72.707V53.0405C349.817 51.5289 350.064 50.2178 350.557 49.1072C351.082 47.9966 351.791 47.102 352.686 46.4233C353.58 45.7137 354.629 45.1893 355.832 44.85C357.036 44.5106 358.331 44.3409 359.719 44.3409C361.91 44.3409 363.529 44.634 364.578 45.2201C365.658 45.7754 366.198 46.7009 366.198 47.9966C366.198 48.5827 366.074 49.1072 365.828 49.5699C365.612 50.0018 365.349 50.3411 365.041 50.5879C364.455 50.4028 363.822 50.2486 363.144 50.1252C362.496 50.0018 361.756 49.9401 360.923 49.9401C359.504 49.9401 358.424 50.2023 357.683 50.7268C356.943 51.2204 356.573 52.0687 356.573 53.2718V55.0303Z" fill="white"/>
<path d="M376.286 67.478C376.718 68.7737 377.474 69.6991 378.553 70.2544C379.633 70.7789 380.882 71.0411 382.302 71.0411C383.597 71.0411 384.816 70.8714 385.957 70.5321C387.099 70.1619 388.024 69.7608 388.734 69.329C389.196 69.6374 389.582 70.0385 389.891 70.5321C390.199 71.0257 390.353 71.5655 390.353 72.1517C390.353 72.8612 390.137 73.4782 389.705 74.0026C389.274 74.5271 388.672 74.9744 387.901 75.3446C387.16 75.6839 386.266 75.9307 385.217 76.085C384.199 76.2701 383.073 76.3626 381.839 76.3626C380.019 76.3626 378.337 76.1158 376.795 75.6222C375.252 75.0978 373.926 74.342 372.815 73.3548C371.705 72.3368 370.826 71.0719 370.178 69.5603C369.561 68.0487 369.252 66.2749 369.252 64.2388C369.252 62.2644 369.561 60.5523 370.178 59.1024C370.826 57.6525 371.674 56.4493 372.723 55.493C373.803 54.5367 375.021 53.8426 376.378 53.4107C377.767 52.9479 379.186 52.7166 380.636 52.7166C382.209 52.7166 383.644 52.9633 384.939 53.4569C386.266 53.9197 387.392 54.5829 388.317 55.4467C389.274 56.3105 390.014 57.344 390.538 58.5471C391.063 59.7502 391.325 61.0613 391.325 62.4804C391.325 63.4676 391.063 64.208 390.538 64.7015C390.014 65.1951 389.274 65.5191 388.317 65.6733L376.286 67.478ZM380.682 57.9455C379.355 57.9455 378.245 58.362 377.35 59.1949C376.486 59.997 375.977 61.1693 375.823 62.7118L384.662 61.2773C384.6 60.4752 384.245 59.7194 383.597 59.0098C382.949 58.3003 381.978 57.9455 380.682 57.9455Z" fill="white"/>
<path d="M403.401 68.3109C403.401 69.1747 403.679 69.8071 404.234 70.2082C404.789 70.5784 405.561 70.7635 406.548 70.7635C407.01 70.7635 407.504 70.7172 408.029 70.6246C408.553 70.5012 409 70.3624 409.37 70.2082C409.648 70.5167 409.879 70.8714 410.065 71.2725C410.25 71.6735 410.342 72.1362 410.342 72.6607C410.342 73.7404 409.91 74.6351 409.047 75.3446C408.214 76.0233 406.748 76.3626 404.651 76.3626C402.059 76.3626 400.039 75.7765 398.589 74.6042C397.139 73.4011 396.414 71.4576 396.414 68.7737V47.9966C396.753 47.904 397.2 47.8115 397.756 47.719C398.311 47.5956 398.913 47.5339 399.56 47.5339C400.918 47.5339 401.889 47.7807 402.476 48.2742C403.093 48.737 403.401 49.6008 403.401 50.8656V53.8734H409.787C409.941 54.1819 410.095 54.5829 410.25 55.0765C410.404 55.5393 410.481 56.0329 410.481 56.5573C410.481 57.5445 410.25 58.254 409.787 58.6859C409.355 59.1178 408.784 59.3337 408.075 59.3337H403.401V68.3109Z" fill="white"/>
<path d="M55.2721 25.3665C56.2735 24.6963 57.4763 24.476 58.5908 24.0652C57.8484 24.7679 57.0707 25.4418 56.4359 26.2477C56.1575 26.6883 55.9153 27.1559 55.6331 27.5974C55.2926 28.1105 55.2434 28.7398 55.0225 29.3031C54.7522 30.0734 54.7644 30.915 55.0568 31.6771C53.8866 32.0796 52.6328 32.1716 51.481 32.629C51.9673 32.0145 52.2309 31.2709 52.6077 30.5914C52.7797 30.2418 52.9117 29.8739 53.0012 29.4946C52.4592 29.9082 52.2448 30.5886 51.7576 31.0497C51.2537 31.573 50.8973 32.2144 50.5762 32.8595C50.3711 33.2434 50.1827 33.67 49.8096 33.921C49.5665 34.0772 49.3085 34.2092 49.0625 34.3607C48.6477 33.9089 48.3405 33.3633 47.8616 32.9729C47.5285 32.6541 47.0728 32.5342 46.6487 32.3919C46.9995 32.0201 47.367 31.6567 47.7085 31.2765C48.1336 30.7718 48.6876 30.3981 49.1089 29.8896C49.6129 29.2696 50.3544 28.9136 50.8917 28.3271C51.1408 28.07 51.4298 27.855 51.7474 27.6904C52.1186 27.4896 52.397 27.167 52.7358 26.9198C53.004 26.7199 53.2842 26.5368 53.5599 26.3453C54.0972 25.9661 54.7199 25.7281 55.2721 25.3665Z" fill="#FDFDFD"/>
<path d="M39.8849 32.0757C40.2292 31.9967 40.5893 32.0255 40.941 32.0274C41.1109 32.0441 41.3178 32.0274 41.4394 32.1743C41.5749 32.4801 41.3522 32.7747 41.2028 33.0266C40.3796 34.288 39.6251 35.5903 38.7982 36.8498C38.3833 37.494 38.0743 38.2032 37.5917 38.8018C37.2966 39.1467 37.1769 39.7016 36.6896 39.8308C36.2869 40.0028 35.8433 39.9702 35.4182 39.9238C35.6901 39.3056 36.0595 38.7386 36.3862 38.1502C37.5416 36.121 38.6887 34.0817 39.8849 32.0757Z" fill="#FDFDFD"/>
<path d="M58.7474 32.5145C59.4406 32.4513 60.1339 32.3909 60.8299 32.3621C60.5115 32.9764 60.1365 33.5595 59.7098 34.104C59.372 34.5121 59.2745 35.0577 58.9488 35.4732C58.6376 35.8827 58.3483 36.3084 58.082 36.7485C57.7451 37.2579 57.514 37.8305 57.1409 38.3166C56.7233 38.8511 56.444 39.473 56.0792 40.0419C55.7813 40.5996 55.3479 41.0811 55.089 41.663C54.9034 42.0747 54.625 42.4308 54.3948 42.8156C54.0793 43.3333 53.7805 43.8613 53.5058 44.4014C52.9053 43.9821 52.4682 43.391 52.0933 42.7719C52.4444 42.0019 52.8802 41.2736 53.3925 40.6005C53.7587 39.8758 54.1892 39.1854 54.6788 38.5379C55.0157 38.1335 55.1428 37.6083 55.4621 37.1901C55.7595 36.8213 56.0115 36.4181 56.2129 35.9891C56.5461 35.1971 57.0825 34.5158 57.5483 33.801C57.7627 33.4403 57.836 33.0211 58.0003 32.64C58.2249 32.495 58.5033 32.5461 58.7474 32.5145Z" fill="#FDFDFD"/>
<path d="M31.3841 34.7193C31.7144 34.1291 32.3251 33.7898 32.8411 33.3799C32.3587 34.1883 31.8197 34.9614 31.2281 35.6935C31.2189 35.3644 31.2031 35.0112 31.3841 34.7193Z" fill="#FDFDFD"/>
<path d="M49.004 36.7365L49.0968 36.6835C49.6007 37.4792 49.777 38.4301 49.8021 39.3587C49.9385 40.3719 50.1148 41.3916 50.4823 42.349C50.7088 42.8305 50.8276 43.3715 51.1645 43.7944C51.5266 44.265 51.9167 44.7132 52.3329 45.1366C52.6827 45.4648 53.1431 45.6274 53.5393 45.8858C54.0368 46.2158 54.6252 46.3618 55.1356 46.6694C54.8711 46.9483 54.5658 47.2207 54.1788 47.3127C53.6219 47.5042 53.0215 47.4837 52.4415 47.5581C53.3936 48.1009 54.5593 48.0526 55.5653 47.6919C56.0293 47.5609 56.3142 47.1426 56.6103 46.794C57.4863 46.9799 58.3838 47.0106 59.2747 47.0496C59.993 47.1426 60.7178 47.1017 61.4398 47.1091C63.2096 47.1212 64.9933 47.0924 66.7372 46.7503C68.2146 46.5328 69.7023 46.1666 70.9932 45.3885C71.5422 46.2157 72.0055 47.0968 72.376 48.0182C72.7342 48.9645 72.7082 49.9907 72.7416 50.9853C72.7546 51.947 72.7237 52.9075 72.6488 53.8668C72.5727 54.9627 72.17 55.9973 71.9444 57.0653C71.7588 57.9261 71.5639 58.7831 71.396 59.6466C71.2967 60.13 71.099 60.5845 70.9533 61.0539C70.5737 62.3032 70.0874 63.5163 69.7069 64.7656C69.4897 64.5369 69.2717 64.3092 69.0647 64.0721C68.7492 63.705 68.3343 63.4401 68.0262 63.0655C67.5715 62.5077 66.9126 62.1759 66.3984 61.6777C66.7993 61.0586 66.8624 60.302 67.0044 59.5964C67.1835 58.692 67.1715 57.7671 67.1436 56.8506C67.0378 55.6366 66.7529 54.3762 65.9836 53.403C65.5196 52.9382 65.1131 52.348 64.456 52.1518C63.3748 51.7503 62.1739 51.9325 61.115 52.3173C60.4218 52.65 59.7721 53.0665 59.1169 53.4671C58.6969 53.6624 58.2874 53.8796 57.89 54.1178C57.1819 54.5825 56.4358 54.9841 55.7936 55.539C54.9927 56.2269 54.0293 56.6731 53.2136 57.3423C52.6076 57.8071 51.9143 58.138 51.2647 58.5424C50.3663 59.1001 49.3436 59.4012 48.3924 59.8511C47.0133 60.3931 45.5729 60.8513 44.0779 60.8848C42.1289 60.9154 40.1652 60.9545 38.2311 60.6524C37.1861 60.433 36.2015 60.0017 35.2215 59.5899C34.7203 59.3873 34.1932 59.1716 33.8452 58.7366C33.3579 58.1278 32.7315 57.5859 32.5023 56.8144C32.2814 55.6989 32.6517 54.5733 33.0053 53.5238C33.1514 53.2566 33.3517 53.0229 33.5934 52.8378C33.835 52.6528 34.1127 52.5204 34.4085 52.4493C35.5639 52.0979 36.7852 52.3359 37.9648 52.1528C38.4659 52.0979 38.9476 51.9399 39.4385 51.8321C39.9703 51.7214 40.3712 51.3338 40.7879 51.0141C41.4645 50.4861 41.844 49.696 42.2617 48.9691C42.7596 48.1496 42.9933 47.1963 42.9308 46.2391C42.9358 46.0005 42.8885 45.7638 42.7923 45.5456C42.6961 45.3273 42.5533 45.1328 42.374 44.9758C42.0621 44.7843 41.677 44.8029 41.3382 44.6877C40.6431 44.4404 40 44.0723 39.3346 43.7581C38.1884 43.3185 37.0971 42.7301 35.9008 42.4243C34.4326 42.0422 32.945 41.6806 31.4248 41.597C32.0744 41.2781 32.79 41.1257 33.4971 40.9872C34.1366 40.8812 34.7519 40.6656 35.3941 40.5754C36.7017 40.3774 38.0232 40.211 39.3485 40.2631C39.994 40.2602 40.636 40.3587 41.251 40.555C41.9619 40.7967 42.7192 40.911 43.392 41.2586C43.8198 41.4663 44.2291 41.7105 44.6152 41.9883C45.0996 42.3211 45.6361 42.6613 45.8773 43.2227C46.0397 43.5769 46.2228 43.9211 46.4258 44.2536C46.8379 45.0065 46.9455 45.8682 47.1683 46.6843C47.2555 46.0429 47.2119 45.3941 47.185 44.75C47.1451 43.8204 46.681 42.9736 46.0889 42.2839C45.4198 41.3293 44.3804 40.7362 43.3391 40.2705C42.9368 40.1158 42.5248 39.9875 42.1057 39.8866C43.4347 39.829 44.772 39.9638 46.0964 39.7649C46.6374 39.6775 47.2527 39.6496 47.6564 39.2267C48.2884 38.5063 48.5873 37.5805 49.004 36.7365ZM45.6036 51.3636C45.3252 51.4621 45.0384 51.609 44.8983 51.8823C44.7247 52.1695 44.759 52.519 44.7674 52.8397C44.785 53.4903 45.417 54.0053 46.0398 54.0034C46.6968 53.9337 47.3529 53.3574 47.2926 52.6538C47.288 52.2392 47.2128 51.7242 46.8017 51.5179C46.4388 51.3431 45.9989 51.2279 45.6036 51.3636ZM40.7963 54.9367C40.6274 55.2156 40.7155 55.5613 40.7526 55.8662C40.683 56.2111 40.9299 56.6312 41.3048 56.6424C41.6108 56.6619 41.9179 56.6451 42.2199 56.5922C42.6097 56.4639 43.0431 56.2204 43.1563 55.7965C43.2807 55.3122 43.1906 54.7434 42.825 54.3827C42.5909 54.1602 42.2818 54.0341 41.9591 54.0295C41.4273 54.0806 41.0431 54.4989 40.7953 54.9367H40.7963ZM46.0862 55.0111C45.6064 55.1542 45.1915 55.5688 45.1767 56.0875C45.2027 57.0997 46.4759 57.9354 47.3604 57.3172C47.9107 56.8525 48.0416 55.9425 47.5924 55.3708C47.2397 54.9255 46.5938 54.8028 46.0824 55.0111H46.0862ZM40.2302 57.1276C39.6483 57.1583 38.9736 57.5069 38.8743 58.1343C38.8353 58.5061 38.8204 58.9448 39.097 59.2358C39.2524 59.3887 39.4388 59.5063 39.6437 59.5806C39.8485 59.6548 40.0669 59.684 40.284 59.6662C40.748 59.55 41.2046 59.2274 41.341 58.745C41.5072 58.336 41.2956 57.8926 41.0329 57.5784C40.8306 57.3423 40.5568 57.1034 40.2264 57.1276H40.2302ZM43.4097 59.3445C43.4579 59.9543 43.9201 60.5529 44.5549 60.6022C45.0764 60.5492 45.5544 60.3029 46.0676 60.2034C46.0574 59.8651 46.1084 59.5184 46.0193 59.1875C45.949 58.9734 45.8362 58.7758 45.6877 58.6065C45.5393 58.4372 45.3582 58.2996 45.1553 58.2021C44.3971 57.9261 43.4895 58.5507 43.4059 59.3445H43.4097ZM46.4156 60.1811C46.6999 60.1316 46.9808 60.0639 47.2564 59.9785C46.9693 60.0215 46.6867 60.0902 46.4119 60.1839L46.4156 60.1811Z" fill="#FDFDFD"/>
<path d="M28.7937 48.0917C28.9403 47.441 29.2252 46.8406 29.4368 46.2131C29.5983 46.9233 29.5983 47.6604 29.537 48.3817C29.3319 49.4172 28.8484 50.3709 28.3974 51.3116C28.2118 50.9844 27.7477 50.6191 28.0132 50.2194C28.39 49.5576 28.6201 48.8288 28.7937 48.0917Z" fill="#FDFDFD"/>
<path d="M34.003 48.2496C33.7125 47.6445 34.1598 47.0412 34.3863 46.5002C34.6285 47.1509 34.8809 47.8016 35.2456 48.3946C35.8025 49.2033 36.7444 49.5649 37.4822 50.1654C37.2551 50.3155 36.9941 50.4064 36.723 50.43C36.4519 50.4535 36.1792 50.4089 35.9296 50.3002C35.0702 49.8744 34.4206 49.1039 34.003 48.2496Z" fill="#FDFDFD"/>
<path d="M26.2491 51.609C26.4616 51.2771 26.7019 50.964 26.9674 50.673C26.999 50.9435 26.9814 51.2502 27.1688 51.4714C27.4639 51.8535 27.9437 51.9994 28.3372 52.2504C28.7307 52.5014 29.1428 52.7746 29.6022 52.9159C30.379 53.1836 31.2727 53.1762 31.9223 53.7469C31.8295 54.1978 31.7098 54.6411 31.629 55.0938C31.5251 56.0968 31.6597 57.1137 31.5724 58.1139C31.3413 58.4578 31.0963 58.9226 30.6444 58.9783C30.2193 58.8185 29.9159 58.4541 29.6105 58.1343C29.2904 57.7969 29.0992 57.3656 28.9665 56.9259C28.8904 56.6936 28.8068 56.4277 28.5739 56.3087C28.0495 55.9973 27.3823 56.0578 26.8412 56.2939C26.504 56.4297 26.1483 56.514 25.786 56.5439C25.6595 55.7189 25.6305 54.8818 25.6997 54.05C25.7628 53.5545 25.8631 53.0619 25.8612 52.5627C25.8547 52.2021 26.0728 51.9018 26.2491 51.609ZM27.321 52.4725C27.2018 52.5315 27.1031 52.6252 27.0378 52.7413C26.9726 52.8574 26.9439 52.9905 26.9554 53.1232C26.9933 53.5696 27.0621 54.0128 27.1614 54.4497C27.2189 54.7601 27.5725 54.8522 27.8444 54.8466C28.1795 54.8363 28.5405 54.8168 28.8393 54.6532C29.0463 54.3967 29.1632 54.0332 29.0685 53.7079C28.9757 53.3194 28.6918 53.0117 28.4013 52.7533C28.1015 52.5181 27.6922 52.3062 27.321 52.4725Z" fill="#FDFDFD"/>
<path d="M70.6451 65.8727C71.4145 65.5938 72.2358 65.5938 73.0432 65.6031C74.1996 65.5637 75.3429 65.8583 76.3368 66.4518C76.5967 66.6144 76.9243 66.7408 77.0496 67.0457C77.4338 67.9344 77.328 68.9689 76.915 69.8288C77.6389 70.1076 78.4342 70.5584 78.6347 71.3746C78.7424 72.0819 78.7108 72.8525 78.3563 73.4911C78.064 74.0683 77.4338 74.3649 77.1443 74.9468C77.5229 75.3725 78.1373 75.6467 78.27 76.2481C78.2273 77.3979 77.5099 78.6472 76.3211 78.8963C74.31 79.3871 72.1745 79.1668 70.2247 78.518C69.7876 78.386 69.3625 78.0421 69.3393 77.5541C69.3069 77.0949 69.6966 76.7668 70.0567 76.5604C70.4447 76.3522 70.8632 76.1942 71.2066 75.9098C71.6205 75.5649 72.2618 75.4013 72.375 74.7943C71.7466 74.7873 71.1189 74.8367 70.4994 74.9421C70.0205 75.0193 69.5008 74.9337 69.1278 74.6047C68.454 74.0767 68.2331 73.2104 68.0438 72.4138C68.5514 71.725 69.3431 71.3513 70.0762 70.9544C70.5328 70.6895 71.0637 70.6272 71.5713 70.5213C71.4256 70.353 71.3031 70.1494 71.0999 70.0425C70.4762 69.9496 69.8219 69.8864 69.2827 69.5267C68.5811 69.1344 68.1468 68.4307 67.7979 67.7299C68.0902 67.385 68.2981 66.9351 68.7259 66.7399C69.3718 66.4564 69.9426 66.0084 70.6451 65.8727Z" fill="#FDFDFD"/>
<path d="M42.1585 68.5673C42.2829 68.4279 42.4165 68.2978 42.5427 68.1611C42.4926 68.8443 42.1437 69.4495 41.9014 70.076C41.7973 70.3757 41.6027 70.6355 41.3446 70.8196C40.8546 71.1756 40.3998 71.5865 39.8783 71.8951C39.4495 71.9741 39.0078 71.9676 38.5725 71.988C39.0277 71.8649 39.4741 71.7115 39.9089 71.5288C40.4713 71.2964 40.888 70.8317 41.2861 70.3883C41.752 69.8817 41.958 69.2115 42.1585 68.5673Z" fill="#FDFDFD"/>
<path d="M30.3009 70.5418C31.0823 69.7294 32.2266 69.4115 33.3199 69.3399C34.1356 69.3009 34.9783 69.3594 35.7421 69.6699C36.6553 70.1393 36.8669 71.384 36.4938 72.2726C36.3425 72.6017 35.937 72.5003 35.6585 72.4585C34.8632 72.28 34.0205 72.2391 33.2335 72.478C32.8048 72.6286 32.4595 72.9428 32.1273 73.2375C32.5561 73.3769 33.0108 73.3462 33.4451 73.2542C34.2506 73.0701 35.0924 73.129 35.8646 73.4234C36.4307 73.6855 36.9996 74.1326 37.1295 74.7777C37.2724 75.3038 37.0989 75.9257 36.6534 76.2556C36.2681 76.5694 35.8144 76.7879 35.3291 76.8933C34.969 76.9863 34.5653 76.9751 34.2479 77.187C33.9444 77.5217 34.1282 78.0134 34.169 78.4112C34.2639 78.1858 34.4178 77.9902 34.6145 77.8451C35.1017 77.6927 35.6214 77.6936 36.1124 77.5514C36.5764 77.4585 37.0701 77.2512 37.536 77.4259C38.1392 77.6527 38.4362 78.2625 38.6803 78.8137C38.4019 79.034 38.142 79.2785 37.8627 79.5062C37.5397 79.7656 37.3485 80.2145 36.9151 80.3158C36.3778 80.4358 35.82 80.4162 35.2734 80.4674C34.4382 80.5129 33.5101 80.5603 32.7992 80.05C32.52 79.8646 32.2842 79.621 32.108 79.3357C31.9318 79.0504 31.8193 78.7302 31.7784 78.3973C31.7199 78.2421 31.7709 77.9892 31.5742 77.9325C31.1473 77.8396 30.674 77.9576 30.2749 77.7466C30.05 77.5855 29.8502 77.3919 29.6819 77.1722C29.5631 76.8515 29.81 76.5596 29.951 76.291C29.7227 76.1144 29.4619 75.9192 29.4165 75.6161C29.2875 75.1997 29.5037 74.7851 29.7766 74.483C30.0234 74.2163 30.1905 73.8918 30.3612 73.5749C30.0745 73.1315 29.7357 72.6983 29.5937 72.1806C29.6443 71.5716 29.8927 70.996 30.3009 70.5418Z" fill="#FDFDFD"/>
<path d="M50.0713 95.6809C50.6021 95.9514 51.2926 95.9514 51.6898 96.4441C52.1148 96.92 52.3292 97.5335 52.6763 98.0624C52.9027 98.4444 53.2331 98.7762 53.3482 99.215C53.5542 100.039 53.5282 100.896 53.5106 101.738C53.4921 101.933 53.5153 102.166 53.3566 102.313C53.119 102.343 52.8508 102.328 52.6689 102.152C52.4359 101.937 52.3171 101.634 52.1714 101.358C52.0786 101.688 51.9608 102.064 51.6146 102.208C50.6067 102.698 49.545 103.197 48.3998 103.192C47.9469 103.192 47.4885 103.21 47.0412 103.131C46.8676 102.989 46.8732 102.735 46.8361 102.532C46.7748 101.542 46.7665 100.514 47.121 99.5701C47.2815 99.1165 47.6667 98.806 48.0082 98.49C48.0722 98.4221 48.1938 98.3589 48.101 98.2604C47.7641 98.1572 47.378 98.1228 47.0588 98.2975C46.8435 98.4834 46.6987 98.7446 46.5298 98.9752C46.2635 99.3377 46.2245 99.7978 46.1586 100.229C46.0138 101.113 46.0444 102.015 46.1048 102.906C45.4412 102.778 44.7442 102.664 44.1623 102.301C43.8839 101.885 43.7661 101.336 43.9294 100.852C44.2422 99.5831 45.0282 98.502 45.8393 97.5056C45.9507 97.3662 45.7966 97.2016 45.7688 97.0603C45.4745 97.1998 45.1901 97.3594 44.9178 97.5381C44.6654 97.0324 45.0431 96.537 45.2807 96.1094C46.3219 95.9105 47.4152 95.6595 48.4657 95.9328C48.9955 96.0837 49.546 96.149 50.0963 96.1262C50.0898 95.9765 50.0805 95.825 50.0713 95.6809Z" fill="#FDFDFD"/>
<path d="M86.7525 96.3056C87.7958 95.905 88.9056 95.7063 90.0229 95.72C90.7941 95.7302 91.5663 95.6772 92.3356 95.7349C92.9481 95.7813 93.4548 96.1652 93.9133 96.5361C94.3987 96.9228 94.6056 97.5289 94.9063 98.0513C95.1615 98.4816 95.2915 98.9687 95.4557 99.4381C95.7146 100.143 95.5207 100.94 95.1402 101.562C94.7773 102.096 94.1193 102.272 93.5272 102.394C93.6367 101.778 93.6098 101.146 93.5625 100.526C93.4966 99.4539 93.2136 98.3255 92.4609 97.5242C92.3393 97.3987 92.2159 97.2612 92.0479 97.2045C91.8001 97.1543 91.5987 97.3485 91.3983 97.4526C91.6665 97.8245 91.9727 98.1693 92.1407 98.6006C92.3263 99.0877 92.627 99.5357 92.717 100.058C92.8822 100.921 92.988 101.854 92.6456 102.689C92.6057 102.857 92.4164 102.886 92.2799 102.94C91.8011 103.08 91.3083 103.165 90.8238 103.276C90.9368 102.472 90.8892 101.654 90.6837 100.869C90.5222 100.317 90.4545 99.7179 90.099 99.2476C89.8095 98.8581 89.6099 98.3636 89.1654 98.1219C89.029 98.0197 88.8749 98.1386 88.7348 98.1554C88.9659 98.9864 89.5088 99.6789 89.7649 100.501C90.041 101.23 90.1834 102.003 90.1853 102.783C89.5078 102.796 88.7877 102.864 88.1742 102.517C87.4828 102.165 86.6894 102.081 86.023 101.664C85.4801 101.326 84.8657 101.036 84.4927 100.495C84.269 100.185 84.2439 99.7876 84.2625 99.4186C84.4778 98.9185 84.6662 98.4026 84.9288 97.9248C85.3752 97.2407 85.9608 96.5854 86.7525 96.3056Z" fill="#FDFDFD"/>
<path d="M42.6523 101.072C42.4726 99.7912 42.7627 98.4884 43.469 97.4053C43.5226 98.1985 43.535 98.994 43.5061 99.7886C43.4736 100.253 43.3483 100.713 43.3112 101.183C43.3001 101.592 43.3938 101.994 43.4365 102.4C43.0247 102.066 42.7464 101.595 42.6523 101.072Z" fill="#FDFDFD"/>
<path d="M72.0378 17.4298C72.6698 17.177 73.3612 16.8461 74.0508 17.0794C74.6531 17.2922 75.2925 17.4958 75.7575 17.9568C76.2057 18.3947 76.8015 18.6308 77.2498 19.0658C77.9393 19.6597 78.6548 20.2314 79.4511 20.6767C79.9151 20.9406 80.2863 21.3589 80.7838 21.5737C81.5179 21.8376 82.1415 22.3229 82.8255 22.6891C83.3257 23.0795 83.9707 23.178 84.496 23.5164C84.986 23.8036 85.5066 24.0341 85.9809 24.3427C86.3753 24.6076 86.8597 24.6792 87.2653 24.9246C88.2481 25.5613 89.2931 26.1395 90.0912 27.0161C90.3167 27.268 90.5116 27.5738 90.5339 27.9168C90.6267 28.7534 90.3186 29.5602 89.9668 30.2992C89.3933 31.3347 88.8532 32.4074 88.0384 33.2811C87.54 33.7812 87.2189 34.4282 86.6871 34.8985C86.1099 35.3763 85.7451 36.0688 85.1094 36.4787C84.6537 36.7576 84.393 37.2465 83.9828 37.5793C83.4464 38.0385 82.8626 38.4586 82.4357 39.0293C82.3067 39.1613 82.4162 39.3324 82.4533 39.4783C82.6761 40.0593 82.7605 40.6867 82.8051 41.3011C82.8245 41.5792 82.7862 41.8583 82.6926 42.1208C82.599 42.3833 82.4521 42.6236 82.2612 42.8265C81.8362 43.2652 81.4213 43.7328 80.9016 44.0618C80.2026 44.4326 79.5236 44.84 78.8673 45.2823C78.6697 45.4022 78.6984 45.6681 78.6576 45.867C78.5732 46.8272 78.3087 47.7586 78.175 48.7123C78.0024 49.4392 77.878 50.1772 77.711 50.906C77.4168 51.9359 77.2785 53.0077 76.8943 54.0125C76.5704 55.2209 75.9848 56.3363 75.5848 57.5168C75.4169 57.963 75.1032 58.4463 75.3064 58.9325C75.4456 59.2931 75.5932 59.651 75.7398 60.0098C75.867 60.3547 76.2187 60.5136 76.4674 60.7534C76.9157 61.1987 77.117 61.8178 77.5226 62.2974C77.8818 62.7315 78.0525 63.2892 78.4293 63.7112C78.7374 64.1044 79.1931 64.3294 79.6089 64.5868C80.4673 65.1957 81.3072 65.8454 81.9949 66.6504C82.6009 67.3652 83.2208 68.1033 83.5466 68.9956C83.7498 69.5003 84.0403 69.9744 84.1517 70.5126C84.2389 70.9374 84.3067 71.3659 84.367 71.7954C84.5368 72.9201 84.2862 74.0829 83.7702 75.0868C83.6097 75.4382 83.3062 75.692 83.0631 75.9792C82.7178 76.3724 82.2278 76.5899 81.7805 76.8325C81.2599 77.1207 80.678 77.2638 80.1369 77.5027C79.694 77.6941 79.2346 77.8447 78.7643 77.9526C78.7014 78.2809 78.6193 78.6053 78.5184 78.9239C79.0752 78.5596 79.7462 78.4722 80.3365 78.1803C81.4399 77.775 82.4487 77.1513 83.5707 76.7944C84.7699 76.4731 86.0137 76.3516 87.2523 76.4347C87.6235 76.4635 87.9808 76.5871 88.3344 76.7024L88.3047 76.839C87.2838 77.3865 86.3855 78.1348 85.4862 78.8626C85.0649 79.187 84.805 79.6657 84.4106 80.018C84.0626 80.3331 83.8538 80.7616 83.5633 81.126C83.1684 81.6166 82.8613 82.172 82.6557 82.7676C82.8626 83.1468 83.1967 83.434 83.4593 83.7733C83.9662 84.4065 84.3927 85.1003 84.7289 85.8387C84.9535 86.3156 85.0073 86.8473 85.1735 87.3464C85.3832 87.9739 85.3841 88.6422 85.5029 89.2882C85.6346 89.9691 85.7063 90.6602 85.7173 91.3537C86.1683 91.6195 86.6008 91.9114 87.0676 92.1549C87.4351 92.3595 87.7639 92.6269 88.0393 92.945C88.4281 93.3726 89.0601 93.5167 89.3627 94.0298C89.6411 94.4397 90.0123 94.9547 90.5794 94.9017C91.5417 94.8961 92.5524 94.8301 93.4563 95.2186C94.3964 95.7234 95.2113 96.5339 95.5843 97.549C95.9251 98.2949 96.1897 99.0735 96.3741 99.8728C96.4446 100.59 96.1996 101.3 95.9101 101.946C95.6744 102.485 95.1157 102.728 94.6266 102.981C93.7486 103.438 92.7658 103.616 91.8137 103.849C90.7362 103.971 89.6365 104.074 88.5581 103.902C87.7766 103.809 87.0277 103.561 86.2546 103.425C85.0565 103.084 83.9132 102.574 82.7058 102.26C82.2055 102.116 81.6376 101.988 81.3026 101.555C80.9536 100.892 80.9007 100.123 80.6325 99.4294C80.2409 98.5203 80.0645 97.4979 79.4771 96.6808C79.1957 96.3022 78.9432 95.9029 78.7216 95.4864C78.433 94.9091 77.9365 94.4806 77.5152 94.0056C77.0894 93.5325 76.6237 93.0971 76.1231 92.7043C75.7686 92.4254 75.4688 92.0536 75.0224 91.9207C74.461 91.7348 74.0016 91.3155 73.4178 91.2049C73.0206 91.1203 72.6188 90.9986 72.2114 91.0432C71.4995 91.1083 70.7785 91.2393 70.1446 91.587C69.6314 91.8705 69.069 92.0778 68.6142 92.4579C68.29 92.727 67.9442 92.9689 67.5804 93.1811C66.8695 93.5752 66.1837 94.0112 65.4978 94.4443C65.0756 94.7232 64.5698 94.7966 64.1225 95.0197C63.7512 95.2056 63.3485 95.3283 62.9596 95.4771C62.2302 95.781 61.446 95.9111 60.6775 96.0747C60.5504 96.1073 60.4075 96.1314 60.3165 96.2365C59.9203 96.6548 59.6567 97.1772 59.2818 97.6131C58.9978 97.9543 58.8716 98.3874 58.6674 98.775C58.1384 99.659 58.027 100.707 57.8015 101.692C57.5649 101.912 57.2103 101.939 56.9171 102.054C55.8034 102.455 54.609 102.612 53.5111 103.077C53.0685 103.263 52.5831 103.189 52.1191 103.1C51.7098 103.007 51.3636 103.299 51.0147 103.461C50.3196 103.85 49.5066 103.894 48.7326 103.989C47.76 104.021 46.7521 104.005 45.8343 103.639C44.793 103.341 43.6849 103.235 42.704 102.743C42.2344 102.451 42.0488 101.878 41.9411 101.364C41.7769 100.628 41.7481 99.8486 41.9541 99.1171C42.1007 98.6096 42.214 98.0807 42.4915 97.6233C42.7439 97.1985 43.0195 96.7868 43.3063 96.388C43.5142 96.0868 43.8631 95.9548 44.1712 95.7773C45.8621 94.7483 48.0746 94.765 49.8323 95.6286C49.3386 95.3162 48.844 94.9993 48.2816 94.8245C47.4774 94.4563 46.7096 94.0131 45.9883 93.5009C45.6078 93.2267 45.1587 93.0528 44.819 92.7238C44.2789 92.207 43.6515 91.7943 43.1142 91.2709C42.4998 90.6472 41.8632 90.0393 41.3286 89.3412C41.0502 88.9694 40.665 88.6905 40.4637 88.263C40.1583 87.5798 39.6284 87.0341 39.2971 86.3667C38.8683 85.7235 38.6735 84.9724 38.305 84.2948C38.0266 83.619 37.7482 82.9395 37.505 82.2498C36.7626 82.4078 36.0378 82.6616 35.2777 82.6477C34.4425 82.6402 33.5692 82.7304 32.772 82.4218C32.3079 82.2526 31.7595 82.0862 31.508 81.6187C31.2536 81.1457 31.028 80.6577 30.8323 80.1574C30.6375 79.6694 30.5911 79.1405 30.5047 78.6265C30.0778 78.4945 29.6092 78.4043 29.2639 78.1013C28.9243 77.7639 28.9168 77.2545 28.8491 76.812C28.8073 76.311 28.6282 75.8277 28.6421 75.3248C28.7073 74.7043 28.9584 74.1182 29.3623 73.6433C29.1015 73.2594 28.8454 72.842 28.8305 72.3633C28.7981 71.7312 28.8435 71.0331 29.2649 70.5247C29.5776 70.1324 29.8913 69.729 30.2857 69.4176C30.8611 69.0932 31.5154 68.9528 32.1316 68.726C32.4861 67.962 32.5455 67.0947 32.8202 66.3009C32.9938 65.4683 33.2423 64.6532 33.5627 63.8655C33.6954 63.5597 33.7993 63.2437 33.9042 62.9286C32.7358 63.2074 31.4746 63.2195 30.346 62.7761C29.8997 62.5447 29.4384 62.3392 29.0069 62.0827C28.0788 61.38 27.1044 60.6884 26.4919 59.6724C25.9257 58.9288 25.5861 58.0383 25.4097 57.1236C25.0933 56.1337 25.0933 55.0768 25.1304 54.0441C25.1703 53.5152 25.316 53.0021 25.4255 52.4862C25.6631 51.2778 26.7387 50.5509 27.5285 49.7078C27.1573 49.429 26.8083 49.1194 26.4083 48.8805C26.1217 48.7166 25.8822 48.4813 25.7132 48.1973C25.3225 47.489 24.9856 46.7091 25.0005 45.8781C25.0617 44.7627 25.4394 43.5887 26.335 42.8665C27.3336 42.0968 28.554 41.6432 29.7966 41.4722C30.2607 41.4071 30.7887 41.4378 31.1479 41.0892C31.3335 40.8354 31.3196 40.498 31.288 40.1996C31.1525 39.0842 31.0096 37.9734 31.03 36.8533C31.0625 36.2807 30.5177 35.9126 30.4203 35.3781C30.5808 34.5053 31.1145 33.7384 31.8124 33.2049C32.2272 32.926 32.6476 32.6156 33.1441 32.518C33.5877 32.425 34.0378 32.372 34.4805 32.2707C35.338 32.0848 36.2215 32.0904 37.0856 31.9435C38.2076 31.7901 39.3416 31.7641 40.4711 31.6963C40.7643 31.7037 40.9351 31.4174 41.0353 31.1813C41.6126 29.7349 41.724 28.1715 42.0469 26.6675C42.2 26.0168 42.1657 25.3401 42.2511 24.6783C42.3096 23.68 42.446 22.6891 42.5638 21.6964C42.6112 21.3468 42.7058 20.9286 43.0455 20.7501C43.4297 20.5363 43.8807 20.6571 44.2844 20.7501C45.0667 20.9678 45.818 21.2845 46.5201 21.6926C46.9405 21.939 47.4296 22.0421 47.8315 22.3238C48.2751 22.6287 48.7493 22.8815 49.2031 23.1743C49.5521 23.3955 49.9539 23.521 50.2889 23.7664C50.6926 24.0397 51.0369 24.4106 51.4954 24.603C51.8573 24.7582 52.2564 24.6746 52.6341 24.6513C53.2689 24.6095 53.8619 24.3623 54.48 24.233C55.6586 23.9254 56.866 23.7515 58.0567 23.4894C59.082 23.2779 60.1209 23.1394 61.1657 23.0748C61.8562 23.1065 62.5439 23.1855 63.2325 23.2459C64.5122 23.4002 65.7187 23.8724 66.9261 24.2981C67.211 23.4959 67.6982 22.7904 68.1112 22.0514C68.5029 21.4723 68.7377 20.7984 69.2017 20.2677C69.7158 19.6672 70.0936 18.9421 70.732 18.456C71.1599 18.1056 71.5033 17.6269 72.0378 17.4298ZM73.1663 22.3823C72.9482 22.8685 72.8879 23.4048 72.8016 23.9272C72.6977 24.7062 72.4898 25.4675 72.4072 26.2511C72.307 27.2131 72.2169 28.1761 72.1668 29.1419C72.1668 29.3631 72.1418 29.6113 72.2921 29.7926C72.7431 30.3912 73.4271 30.7639 73.8614 31.3784C74.4786 32.2521 75.2479 33.0859 75.4837 34.1614C75.6025 34.5927 75.2851 34.9487 75.0828 35.2936C75.5097 35.1933 75.9249 35.0484 76.3217 34.8613C76.6113 33.6529 76.5222 32.4092 76.5481 31.1804C76.5658 30.2731 76.4331 29.3752 76.3366 28.4764C76.2567 27.716 76.0136 26.9891 75.8196 26.2529C75.6544 25.7064 75.5941 25.1263 75.3435 24.6076C75.0187 23.9347 74.7041 23.257 74.3765 22.5859C74.2382 22.3377 74.0693 22.0282 73.7538 22.0022C73.4976 21.9687 73.2591 22.1528 73.1663 22.3823ZM55.2716 25.3661C54.7195 25.7259 54.0967 25.9638 53.5594 26.3468C53.281 26.5383 53.0026 26.7186 52.7353 26.9213C52.3975 27.1685 52.1181 27.4911 51.7469 27.6918C51.4294 27.8559 51.1405 28.0703 50.8912 28.3267C50.3539 28.9132 49.6124 29.2693 49.1085 29.8893C48.6871 30.3977 48.1331 30.7714 47.708 31.2761C47.3665 31.6591 46.999 32.0197 46.6482 32.3916C47.0723 32.5338 47.528 32.6537 47.8612 32.9725C48.34 33.3629 48.6472 33.9085 49.0621 34.3603C49.308 34.2088 49.566 34.0768 49.8091 33.9206C50.1804 33.6697 50.3706 33.243 50.5757 32.8591C50.8968 32.214 51.2532 31.5726 51.7571 31.0493C52.2443 30.5845 52.4587 29.9078 53.0007 29.4942C52.9113 29.8735 52.7793 30.2415 52.6072 30.591C52.2304 31.2705 51.9669 32.0142 51.4806 32.6286C52.6323 32.1713 53.8861 32.0792 55.0563 31.6767C54.7639 30.9146 54.7517 30.0731 55.022 29.3027C55.2429 28.7394 55.2921 28.1101 55.6327 27.597C55.9111 27.1555 56.1533 26.6879 56.4354 26.2473C57.0702 25.4414 57.8479 24.7675 58.5904 24.0648C57.4758 24.4775 56.2758 24.6978 55.2716 25.3661ZM45.3415 26.4816C44.9308 27.3513 44.7421 28.3094 44.7921 29.2702C45.1577 29.2191 45.5345 29.2088 45.8853 29.075C46.2241 28.9039 46.4598 28.5823 46.6436 28.2598C46.7753 28.0674 46.6436 27.8443 46.5842 27.6509C46.3392 27.0598 46.2213 26.3961 45.76 25.9201C45.6005 26.0906 45.4613 26.279 45.3452 26.4816H45.3415ZM81.7972 27.5041C81.5204 27.5432 81.2691 27.6869 81.0947 27.9056C80.6455 28.5052 80.2975 29.207 80.2594 29.9692C80.2251 30.6459 80.1416 31.3886 80.4719 32.0086C80.9165 32.5812 81.5587 33.0971 82.3151 33.1138C83.09 33.164 83.9336 32.9967 84.5164 32.451C84.8579 32.1434 85.2301 31.8654 85.5224 31.5076C86.1312 30.7723 86.4662 29.8456 86.6156 28.9114C86.6556 28.5554 86.5665 28.0748 86.1748 27.9595C85.5205 27.7049 84.8078 27.7058 84.1266 27.5738C83.3638 27.4278 82.5693 27.3265 81.7972 27.5041ZM39.8846 32.0755C38.6883 34.0814 37.5412 36.1208 36.3858 38.1528C36.0591 38.7412 35.6898 39.3082 35.4178 39.9263C35.8429 39.971 36.2865 40.0035 36.6893 39.8334C37.1765 39.7042 37.2962 39.1493 37.5913 38.8044C38.0739 38.2048 38.383 37.4956 38.7978 36.8524C39.6219 35.5929 40.3755 34.2906 41.2024 33.0292C41.3518 32.7773 41.5736 32.4826 41.439 32.1768C41.3175 32.0309 41.1105 32.0467 40.9407 32.03C40.5917 32.0253 40.2289 31.9965 39.8846 32.0755ZM37.6739 32.294C37.493 32.4278 37.4002 32.6425 37.2925 32.834C36.3453 34.7017 35.3882 36.5639 34.4211 38.4205C34.0894 38.9604 33.8436 39.5487 33.6926 40.1643C34.0267 40.1318 34.4053 40.194 34.7023 40.0119C34.861 39.7218 34.9538 39.4012 35.1181 39.1139C36.4403 36.7864 37.7618 34.4582 39.0827 32.1294C38.6113 32.095 38.1046 32.0644 37.6739 32.294ZM58.7472 32.5143C58.5022 32.5459 58.2238 32.4947 58.0048 32.6369C57.8405 33.0181 57.7672 33.4373 57.5528 33.7979C57.0888 34.5127 56.5505 35.1922 56.2173 35.9861C56.016 36.415 55.7639 36.8183 55.4665 37.187C55.1482 37.6025 55.0201 38.1305 54.6833 38.5348C54.1943 39.1825 53.7644 39.8728 53.3988 40.5975C52.8865 41.2706 52.4507 41.9989 52.0996 42.7689C52.4708 43.3879 52.9116 43.9772 53.5121 44.3983C53.7905 43.8583 54.0856 43.3303 54.4011 42.8125C54.6322 42.4277 54.9116 42.0689 55.0953 41.6599C55.3542 41.078 55.7876 40.5993 56.0855 40.0388C56.4503 39.4699 56.7296 38.8481 57.1472 38.3136C57.5185 37.8275 57.7514 37.2549 58.0883 36.7455C58.3546 36.3054 58.6439 35.8797 58.9551 35.4702C59.2808 35.0547 59.3783 34.509 59.7161 34.101C60.1404 33.5571 60.5132 32.9749 60.8297 32.3618C60.1337 32.3906 59.4405 32.451 58.7472 32.5143ZM56.2192 32.8229C56.0688 33.2876 55.8702 33.7384 55.5464 34.1065C55.1018 34.6224 54.8911 35.2852 54.4865 35.8271C54.172 36.2465 53.9009 36.6969 53.6773 37.1712C53.3385 37.8814 52.778 38.4512 52.4197 39.1474C52.0829 39.8399 51.6699 40.4915 51.268 41.1477C51.4137 41.4601 51.514 41.8133 51.7738 42.054C52.3158 41.2751 52.6527 40.3623 53.2763 39.6373C53.6355 39.2301 53.8072 38.7012 54.1311 38.269C54.5459 37.689 55.0443 37.1535 55.3283 36.4926C55.5556 35.921 56.0178 35.4869 56.2563 34.9208C56.5542 34.1084 57.1324 33.4484 57.5287 32.6853C57.0878 32.7178 56.6544 32.7829 56.2192 32.8229ZM31.3836 34.7191C31.198 35.011 31.2212 35.3642 31.2277 35.6933C31.8192 34.9612 32.3582 34.188 32.8406 33.3796C32.3247 33.7859 31.714 34.1288 31.3836 34.7191ZM75.1579 37.5746C74.7867 38.0162 74.3394 38.4168 74.1482 38.9764C73.9255 39.6075 73.4986 40.1541 73.3668 40.8168C73.1181 41.8495 72.8406 42.8906 72.294 43.8118C72.0155 44.4494 71.4587 44.8882 70.9947 45.392C69.7038 46.17 68.2161 46.5362 66.7386 46.7538C64.9948 47.0958 63.2121 47.1256 61.4413 47.1126C60.7193 47.1051 59.9945 47.1432 59.2762 47.0531C58.3853 47.014 57.4878 46.9787 56.6118 46.7974C56.3157 47.146 56.0317 47.5643 55.5668 47.6954C54.5608 48.056 53.3951 48.1044 52.4429 47.5615C53.023 47.4872 53.6197 47.5076 54.1803 47.3161C54.5673 47.2232 54.8726 46.9555 55.1371 46.6729C54.6267 46.3652 54.0383 46.2193 53.5408 45.8893C53.1436 45.6309 52.6833 45.4682 52.3344 45.1401C51.9182 44.7167 51.5281 44.2684 51.1659 43.7978C50.8291 43.3749 50.7103 42.8339 50.4838 42.3524C50.1126 41.395 49.94 40.3753 49.8036 39.3621C49.7785 38.4326 49.6022 37.4826 49.0982 36.6869L49.0054 36.7399C48.5888 37.5839 48.2899 38.506 47.6616 39.2292C47.2579 39.6521 46.6408 39.68 46.1016 39.7674C44.78 39.9663 43.4427 39.8315 42.111 39.8892C42.53 39.99 42.942 40.1183 43.3443 40.2731C44.3856 40.7378 45.425 41.3318 46.0941 42.2864C46.6862 42.9761 47.1503 43.8267 47.1902 44.7525C47.2171 45.3966 47.2607 46.0455 47.1735 46.6868C46.9489 45.8707 46.8412 45.009 46.431 44.2561C46.2276 43.9225 46.0441 43.577 45.8816 43.2215C45.6375 42.6638 45.1039 42.3199 44.6195 41.9871C44.2332 41.7106 43.824 41.4677 43.3963 41.2612C42.7235 40.9135 41.9662 40.7964 41.2553 40.5575C40.6403 40.3612 39.9983 40.2627 39.3528 40.2656C38.0275 40.2136 36.706 40.38 35.3984 40.5779C34.7561 40.6709 34.1408 40.8838 33.5014 40.9897C32.7942 41.1282 32.0806 41.2807 31.4291 41.5995C32.9492 41.6804 34.4369 42.0447 35.9051 42.4268C37.1004 42.7326 38.1918 43.321 39.3389 43.7607C40.0043 44.0739 40.6474 44.442 41.3425 44.6902C41.6813 44.8055 42.0664 44.7831 42.3782 44.9784C42.5576 45.1354 42.7004 45.3298 42.7966 45.5481C42.8928 45.7663 42.9401 46.0031 42.9351 46.2416C42.9955 47.1977 42.7606 48.1493 42.2622 48.967C41.8446 49.6957 41.465 50.4858 40.7885 51.0119C40.3718 51.3317 39.9709 51.7193 39.4391 51.8299C38.9482 51.9378 38.4665 52.0958 37.9653 52.1506C36.7858 52.3365 35.5645 52.0958 34.4091 52.4471C34.1133 52.5183 33.8356 52.6506 33.5939 52.8357C33.3523 53.0208 33.1519 53.2544 33.0058 53.5217C32.6523 54.5711 32.282 55.6949 32.5028 56.8122C32.4258 57.58 32.398 58.3924 32.7033 59.1193C32.9817 59.6966 33.3474 60.271 33.9033 60.6177C34.5659 61.0537 35.2508 61.4543 35.945 61.8317C36.4498 62.145 37.0466 62.2156 37.6006 62.4006C38.4359 62.6971 39.3166 62.7891 40.1843 62.9193C42.1332 63.1786 44.1081 62.9258 45.9828 62.3792C46.496 62.2184 47.0473 62.1933 47.5447 61.9795C48.0588 61.7555 48.5702 61.5231 49.0797 61.2879C49.991 60.8845 50.9627 60.5833 51.771 59.9791C52.3576 59.5274 53.0592 59.2495 53.6169 58.7596C54.1923 58.2502 54.8364 57.8189 55.3552 57.2472C56.2266 56.4469 57.0424 55.589 57.8665 54.7375C58.2934 54.3239 58.7648 53.9493 59.1156 53.4641C59.7708 53.0634 60.4205 52.647 61.1137 52.3142C62.1708 51.9294 63.3717 51.7472 64.4547 52.1488C65.1118 52.3449 65.521 52.9342 65.9823 53.3999C66.7516 54.3731 67.0366 55.6308 67.1423 56.8475C67.1702 57.7641 67.1823 58.689 67.0031 59.5934C66.8611 60.2989 66.798 61.0555 66.3971 61.6746C66.9113 62.1728 67.5702 62.501 68.0249 63.0624C68.333 63.4342 68.7479 63.7019 69.0634 64.0691C69.2704 64.3061 69.4885 64.5339 69.7056 64.7625C70.0861 63.5132 70.5724 62.3002 70.952 61.0509C71.0977 60.5815 71.2954 60.1269 71.3947 59.6436C71.7659 59.0329 71.8782 58.3153 72.1065 57.6469C72.5139 56.1746 72.8025 54.6724 73.1339 53.1852C73.5654 50.8483 74.1204 48.5375 74.5018 46.1933C74.7802 44.8482 74.9658 43.4855 75.2582 42.1442C75.3612 41.3318 75.6025 40.5436 75.6591 39.7274C75.7463 38.6612 76.1612 37.649 76.1899 36.5754C75.8139 36.8736 75.4682 37.2083 75.1579 37.5746ZM27.9498 42.7242C27.3419 42.9631 26.9345 43.4985 26.4649 43.9326C26.1165 44.2377 25.8925 44.6606 25.8357 45.1206C25.7698 45.6848 25.7049 46.3029 25.9424 46.8346C26.3137 46.8132 26.67 46.6961 27.0338 46.6292C26.8232 46.408 26.477 46.2193 26.4946 45.8726C26.4771 45.4464 26.5508 45.0215 26.7109 44.6262C26.871 44.231 27.1137 43.8747 27.4227 43.5813C28.0872 43.0031 28.9076 42.6517 29.7215 42.3506C29.1164 42.3914 28.52 42.5172 27.9498 42.7242ZM28.7934 48.0914C28.6189 48.8285 28.3897 49.5572 28.0129 50.2191C27.7466 50.6188 28.2115 50.9841 28.3971 51.3113C28.8482 50.3706 29.3317 49.4169 29.5368 48.3814C29.598 47.6601 29.598 46.9229 29.4366 46.2128C29.225 46.8383 28.9401 47.4425 28.7934 48.0914ZM41.7936 46.2323C41.6834 46.4656 41.6419 46.7254 41.6738 46.9815C41.7305 47.581 41.8409 48.1722 41.93 48.7671C42.2084 48.1453 42.458 47.4862 42.4627 46.7974C42.4061 46.487 42.1694 46.0306 41.7982 46.2286L41.7936 46.2323ZM34.0026 48.2494C34.4183 49.1036 35.068 49.8742 35.9292 50.2999C36.1788 50.4086 36.4515 50.4532 36.7226 50.4297C36.9937 50.4062 37.2547 50.3152 37.4818 50.1651C36.744 49.5647 35.7983 49.2031 35.2452 48.3944C34.8805 47.8023 34.6281 47.1497 34.3859 46.5C34.1613 47.0447 33.7139 47.6442 34.0026 48.2494ZM26.2487 51.6087C26.0724 51.9015 25.8543 52.2017 25.8571 52.5596C25.8571 53.0616 25.7587 53.5542 25.6956 54.0469C25.6263 54.8787 25.6553 55.7158 25.7819 56.5408C25.9359 57.3551 26.3786 58.0624 26.7266 58.8024C27.0143 59.3498 27.4524 59.7979 27.9043 60.2115C28.3285 60.5926 28.7322 60.9951 29.1628 61.3688C29.6593 61.7927 30.3089 61.9507 30.9168 62.1412C32.0648 62.4954 33.313 62.4136 34.4434 62.0427C34.0471 61.6876 33.6295 61.3586 33.2184 61.0202C32.6918 60.5845 32.2499 60.0555 31.9145 59.4595C31.6806 59.0496 31.6147 58.5756 31.5692 58.1136C31.6565 57.1134 31.5219 56.0965 31.6258 55.0935C31.7066 54.6408 31.83 54.1975 31.9191 53.7466C31.2695 53.1759 30.3785 53.1833 29.599 52.9156C29.1396 52.7743 28.735 52.5076 28.334 52.2501C27.9331 51.9926 27.4607 51.8532 27.1656 51.4711C26.98 51.2499 26.9958 50.9432 26.9642 50.6727C26.6996 50.9638 26.4603 51.2769 26.2487 51.6087ZM63.8515 57.2231C63.8379 57.5602 63.8261 57.8979 63.8162 58.2363C63.8088 58.86 63.651 59.4698 63.6139 60.0953C63.901 60.2661 64.1993 60.4173 64.5067 60.548C64.9958 60.7339 65.4264 61.0379 65.8904 61.2749C66.3257 60.0024 66.3646 58.6378 66.2876 57.3077C66.2672 56.9117 66.102 56.5482 65.9229 56.2006C65.2779 56.6235 64.6153 57.0483 63.8515 57.2231ZM54.557 59.0478C53.9831 59.3939 53.4277 59.7699 52.893 60.1743C51.9882 60.7813 50.997 61.2461 50.0393 61.7657C48.9164 62.3736 47.6115 62.4814 46.4561 63.0066C45.7108 63.3256 44.93 63.5541 44.1304 63.687C44.0411 63.9165 43.9671 64.1515 43.9086 64.3907C43.878 64.7123 44.0534 65.0302 43.9615 65.3518C43.7601 66.1094 43.5717 66.8753 43.5318 67.6627C43.3388 68.37 43.3397 69.1267 43.0177 69.8006C42.7903 70.4717 42.2622 70.9597 41.8502 71.5146C41.5615 71.9088 41.1124 72.1244 40.6975 72.3512C40.9815 72.7286 41.2544 73.1627 41.1987 73.66C41.2042 74.1777 40.6901 74.5207 40.6882 75.0366C40.6734 75.5683 40.7337 76.1 40.7161 76.6326C40.6921 77.2518 40.7382 77.8717 40.8534 78.4806C41.0558 79.4324 41.1727 80.4112 41.5523 81.3166C41.8548 81.9793 41.9894 82.7174 42.407 83.3271C42.7355 83.9843 43.1838 84.5792 43.452 85.2671C43.607 85.6677 43.9698 85.9242 44.2186 86.2617C44.51 86.6493 44.7318 87.0983 45.1039 87.4171C45.6942 87.9432 46.1851 88.579 46.8347 89.0363C47.3387 89.3951 47.7479 89.8822 48.3094 90.1518C49.3869 90.7448 50.4235 91.4745 51.6393 91.7561C52.7947 92.1382 54.0039 92.3873 55.2252 92.3808C56.5802 92.3724 57.9713 92.4542 59.2818 92.0406C59.82 91.8547 60.3666 91.6939 60.904 91.5079C61.7392 91.1306 62.529 90.6714 63.3429 90.2494C63.986 89.9277 64.4761 89.3821 65.0932 89.0196C65.573 88.7407 65.8886 88.2676 66.2885 87.8949C66.6005 87.6159 66.8753 87.2979 67.1062 86.9486C67.469 86.3807 67.9655 85.8908 68.192 85.2429C68.5354 84.2808 68.9159 83.3188 69.0384 82.2972C69.1172 81.6754 69.2973 81.0349 69.1683 80.4103C68.9242 80.124 68.5391 79.9994 68.3098 79.6964C68.0982 79.4086 67.9024 79.1095 67.7233 78.8003C67.3642 78.2119 67.3929 77.4785 67.5173 76.826C67.5878 76.4151 67.8514 76.0554 67.8801 75.6381C67.6825 75.3592 67.3939 75.1473 67.2045 74.8572C66.9605 74.5068 66.8723 74.0746 66.8537 73.6554C66.8342 73.1999 66.8537 72.7212 67.0653 72.3075C67.2769 71.8939 67.6305 71.5769 67.9479 71.2432C67.6147 70.9569 67.2621 70.6651 67.0718 70.2588C66.8113 69.6943 66.7108 69.0688 66.7813 68.4509C66.8101 68.1544 66.8964 67.8616 66.8741 67.5623C66.7554 67.2434 66.4565 67.0464 66.2152 66.8261C65.7725 66.4645 65.4357 65.9895 64.9772 65.6474C64.4338 65.1918 63.8574 64.777 63.2529 64.4065C62.6032 63.9733 61.948 63.5439 61.2112 63.2846C59.9184 62.7268 58.5913 62.1924 57.1788 62.065C56.3111 62.065 55.4452 61.9851 54.5802 62.0316C53.2401 62.092 51.8805 62.0725 50.5674 62.3801C49.9307 62.5725 49.2783 62.725 48.6667 62.9908L48.6082 62.6841C49.7033 62.395 50.8439 62.1868 51.8462 61.6328C52.2945 61.4236 52.8021 61.4422 53.2791 61.3483C53.9909 61.208 54.7176 61.261 55.4368 61.2851C56.0104 61.3558 56.5886 61.2944 57.163 61.3493C58.2952 61.4301 59.3857 61.7601 60.4576 62.1133C61.4413 62.4108 62.297 62.9992 63.2167 63.4417C63.8849 63.7623 64.3805 64.3349 65.0236 64.6947C65.547 64.9902 65.8644 65.5229 66.3229 65.8965C66.709 66.2089 66.9818 66.6281 67.2129 67.0622C67.521 66.8177 67.8347 66.5798 68.1344 66.3232C68.5057 66.0099 68.9493 65.8064 69.3864 65.6056C69.16 65.3115 68.9047 65.0409 68.6244 64.7978C68.2217 64.4576 67.9544 63.9864 67.5321 63.6675C66.941 63.2418 66.4407 62.7027 65.8301 62.3002C64.9726 61.7164 64.1661 61.0221 63.1768 60.6689C62.7694 60.5155 62.4102 60.2636 62.0149 60.0851C61.2307 59.7393 60.4084 59.4967 59.5964 59.2299C58.8818 58.9762 58.1115 58.9697 57.369 58.8581C56.764 58.7958 56.1375 58.6415 55.538 58.8051C55.2058 58.8563 54.855 58.8758 54.557 59.0478ZM35.0986 62.2686C34.8889 62.6813 34.7002 63.1042 34.5325 63.5374C34.3627 64.0161 34.204 64.4985 34.0183 64.9717C33.52 66.1206 33.2462 67.3494 32.9975 68.5708C33.584 68.594 34.1743 68.5485 34.7608 68.6219C35.4281 68.7056 36.0424 69.0049 36.6095 69.3526C36.9001 69.5193 37.1351 69.7683 37.2851 70.0683C37.518 70.5331 37.48 71.0713 37.6619 71.549C37.8531 71.8549 38.2401 71.9794 38.5844 71.9906C39.0196 71.9683 39.4614 71.9748 39.8901 71.8976C40.4117 71.589 40.8664 71.1782 41.3564 70.8221C41.6145 70.6381 41.8091 70.3782 41.9133 70.0785C42.1555 69.452 42.5044 68.8469 42.5546 68.1637C42.7105 67.8848 42.678 67.5483 42.7068 67.2397C42.7624 67.1152 42.8181 66.9915 42.8757 66.8679C43.1132 65.8454 43.3527 64.8146 43.3118 63.7605C42.4608 63.7066 41.6079 63.7939 40.756 63.7289C40.1463 63.6824 39.5393 63.595 38.9296 63.543C38.7755 63.5067 38.6215 63.4723 38.4656 63.4379L38.4888 63.3961C37.2758 63.2753 36.2401 62.6014 35.0986 62.2686ZM70.643 65.8705C69.9404 66.0062 69.3697 66.4543 68.7293 66.7415C68.2968 66.9367 68.089 67.3866 67.8013 67.7314C67.5952 68.027 67.4087 68.358 67.4245 68.7316C67.3809 69.2745 67.6982 69.742 67.9711 70.1808C68.1316 70.4234 68.3052 70.6967 68.5966 70.7933C69.1191 70.7273 69.4875 70.3062 69.9543 70.1055C70.32 69.9679 70.7209 70.0125 71.1023 70.0441C71.3056 70.1482 71.4281 70.3546 71.5738 70.5228C71.0662 70.6288 70.5353 70.6911 70.0787 70.956C69.3465 71.3529 68.5539 71.7266 68.0463 72.4154C67.5099 72.8996 67.4078 73.7604 67.7846 74.3674C68.063 74.8182 68.3971 75.2885 68.9186 75.4661C69.4354 75.6508 69.9893 75.7069 70.5325 75.6297C71.223 75.5191 71.6685 74.8582 72.3775 74.7931C72.2643 75.3973 71.623 75.5609 71.2091 75.9085C70.8657 76.193 70.4471 76.351 70.0592 76.5592C69.5493 76.4896 69.0475 76.3694 68.5613 76.2004C68.4119 76.5397 68.2709 76.892 68.2597 77.2684C68.2319 77.7639 68.2078 78.3216 68.5316 78.7343C68.8555 79.147 69.2871 79.4779 69.7131 79.7884C70.139 80.0989 70.6708 80.1416 71.1534 80.3024C72.1548 80.6166 73.2007 80.8239 74.254 80.7672C75.0577 80.7672 75.7918 80.4084 76.5249 80.1268C77.1096 79.9176 77.453 79.3673 77.8242 78.9053C78.4163 78.1766 78.5546 77.1327 78.2762 76.2488C78.1435 75.6501 77.5337 75.3759 77.1505 74.9474C77.44 74.3655 78.0702 74.069 78.3625 73.4918C78.717 72.8532 78.7486 72.0826 78.6409 71.3752C78.4404 70.5591 77.6451 70.1129 76.9212 69.8294C77.3333 68.9696 77.44 67.935 77.0558 67.0464C76.9305 66.7415 76.6029 66.6151 76.343 66.4524C75.3495 65.8577 74.2062 65.5618 73.0494 65.6C72.2383 65.5945 71.4142 65.5926 70.6448 65.8724L70.643 65.8705ZM30.3006 70.5414C29.8929 70.9954 29.6448 71.5707 29.5943 72.1793C29.7363 72.6933 30.0751 73.1264 30.3618 73.5736C30.1911 73.8905 30.024 74.2149 29.7772 74.4817C29.5043 74.7838 29.2881 75.1984 29.4171 75.6148C29.4625 75.9225 29.7233 76.113 29.9516 76.2896C29.8106 76.5583 29.5637 76.8474 29.6825 77.1708C29.8508 77.3906 30.0506 77.5841 30.2755 77.7453C30.6746 77.9563 31.1479 77.8382 31.5748 77.9312C31.7715 77.9879 31.7205 78.2407 31.779 78.396L31.3279 78.6748C31.2852 79.5821 31.6008 80.4614 32.1075 81.2022C32.3321 81.5099 32.7256 81.6168 33.0745 81.7311C34.4304 82.1178 35.8791 81.957 37.2155 81.5638C37.7185 81.4151 38.1296 81.0489 38.4284 80.6278C38.7913 80.0924 38.6447 79.4194 38.6809 78.8115C38.4368 78.2593 38.1398 77.6505 37.5366 77.4237C37.0726 77.2489 36.5761 77.4571 36.113 77.5492C35.622 77.6914 35.1023 77.6905 34.6151 77.8429C34.4184 77.9879 34.2644 78.1835 34.1696 78.409C34.1288 78.0111 33.945 77.5194 34.2485 77.1848C34.5659 76.9729 34.9696 76.9822 35.3297 76.8911C35.815 76.7856 36.2687 76.5672 36.654 76.2534C37.0995 75.9234 37.273 75.3016 37.1301 74.7754C37.0002 74.1303 36.4313 73.6832 35.8652 73.4211C35.0932 73.1261 34.2514 73.0666 33.4457 73.2501C33.0114 73.343 32.5567 73.3728 32.1279 73.2333C32.4601 72.934 32.8054 72.6245 33.2341 72.4739C34.0211 72.235 34.8638 72.2759 35.6591 72.4544C35.9376 72.499 36.344 72.6003 36.4944 72.2685C36.8656 71.3836 36.6559 70.1389 35.7427 69.6658C34.9789 69.3553 34.1362 69.294 33.3205 69.3358C32.2263 69.4139 31.082 69.7318 30.3006 70.5414ZM37.4206 72.5325C37.2628 72.7797 37.1784 73.1088 37.3213 73.383C37.518 73.7808 37.8169 74.1406 37.8781 74.5914C38.0192 75.2337 37.8048 75.8797 37.531 76.4505C38.0609 76.7358 38.7291 76.958 38.9621 77.5733C39.2266 78.2389 39.5755 78.937 39.4502 79.6741C39.3119 80.4716 38.9491 81.284 38.2438 81.7348C38.5853 82.5249 38.7403 83.3792 39.0456 84.1823C39.3546 84.7865 39.6563 85.4009 40.046 85.9596C40.3337 86.3788 40.4572 86.8891 40.7467 87.3046C41.4641 88.2239 42.1054 89.2139 42.9675 90.0105C43.375 90.3767 43.71 90.8201 44.1369 91.1622C44.8487 91.7199 45.541 92.2981 46.2631 92.8409C46.6946 93.1495 47.2171 93.2917 47.6653 93.5734C48.495 94.0763 49.3674 94.5317 50.3223 94.7371C51.7497 95.2372 53.2485 95.4854 54.7501 95.6202C55.5872 95.6407 56.4246 95.6407 57.2623 95.6202C58.4597 95.5283 59.6428 95.3006 60.7889 94.9416C61.3912 94.7483 62.026 94.6349 62.5912 94.3384C63.316 93.9759 64.0213 93.5762 64.7628 93.2471C65.3791 92.9682 65.806 92.4105 66.4073 92.114C66.9911 91.8352 67.444 91.3564 67.933 90.9419C68.3692 90.5422 68.8518 90.1908 69.2323 89.7335C69.7836 89.0763 70.3191 88.4052 70.8703 87.7471C71.2917 87.2442 71.52 86.6149 71.9023 86.086C72.5 85.2494 72.8072 84.2502 73.2202 83.316C73.4521 82.7783 73.6383 82.222 73.777 81.653C72.9352 81.4671 72.0768 81.3742 71.2443 81.1427C71.017 81.9626 70.8843 82.8363 70.3924 83.5521C70.0295 84.1042 69.7994 84.7307 69.4254 85.2764C69.0486 85.8787 68.5279 86.3741 68.153 86.9783C67.831 87.5128 67.2686 87.8344 66.9345 88.3578C66.7467 88.6335 66.4981 88.8622 66.2078 89.0261C65.7549 89.305 65.47 89.78 65.019 90.0616C64.257 90.5747 63.4682 91.0581 62.6868 91.5489C62.3166 91.7667 61.9172 91.9304 61.5007 92.035C60.9086 92.207 60.3704 92.5174 59.7885 92.7145C58.9961 92.933 58.1804 93.0556 57.3588 93.0798C54.9106 93.2583 52.3371 93.1021 50.1089 91.9802C49.592 91.7701 49.0593 91.5888 48.5952 91.2719C48.0161 90.9372 47.5308 90.4687 46.9517 90.136C46.3252 89.7892 45.9308 89.16 45.3424 88.7612C44.754 88.3624 44.4431 87.6885 43.9067 87.2312C43.529 86.8975 43.362 86.4113 43.0817 86.0079C42.5379 85.3108 42.0451 84.5616 41.7351 83.7287C41.4641 83.158 41.1541 82.604 40.9574 82.0007C40.4692 80.8936 40.3077 79.6834 40.1361 78.4964C40.0293 77.2294 39.8781 75.9513 40.0433 74.6853C40.0906 74.2837 40.3746 73.9621 40.4507 73.5698C40.4656 73.4138 40.434 73.2569 40.3598 73.1189C40.2856 72.9809 40.1722 72.868 40.034 72.7946C39.5755 72.5157 39.0205 72.6208 38.5129 72.6003C38.1482 72.5929 37.7853 72.4851 37.4206 72.5353V72.5325ZM69.5534 80.7226C69.4922 81.72 69.4216 82.7164 69.2407 83.6971C69.6425 83.1394 69.8643 82.4813 70.2383 81.9068C70.4062 81.6271 70.5457 81.3312 70.655 81.0238C70.295 80.8995 69.9269 80.7998 69.5534 80.7254V80.7226ZM50.0708 95.6806C50.0801 95.8275 50.0894 95.9762 50.0987 96.1249C49.5484 96.1478 48.9979 96.0825 48.4681 95.9316C47.4157 95.6583 46.3243 95.9093 45.283 96.1082C44.9063 96.1879 44.5529 96.3533 44.2501 96.5916C43.9624 96.8267 43.6163 97.0452 43.4705 97.403C42.7632 98.4864 42.4724 99.79 42.652 101.072C42.7479 101.592 43.0267 102.061 43.4381 102.394C43.3954 101.988 43.3016 101.586 43.3128 101.177C43.3499 100.712 43.4752 100.254 43.5077 99.7827C43.9405 99.0095 44.4119 98.2588 44.9202 97.5332C45.1925 97.3545 45.4769 97.1949 45.7712 97.0554C45.799 97.1967 45.9568 97.3612 45.8417 97.5006C45.0306 98.498 44.2445 99.5791 43.9318 100.847C43.7685 101.331 43.8854 101.88 44.1647 102.296C44.7466 102.66 45.4436 102.773 46.1071 102.901C46.0468 102.01 46.0143 101.108 46.161 100.224C46.225 99.7929 46.264 99.3328 46.5322 98.9702C46.7011 98.7397 46.8459 98.4832 47.0612 98.2926C47.3804 98.1179 47.7665 98.1523 48.1034 98.2554C48.1962 98.354 48.0737 98.4172 48.0106 98.485C47.6691 98.8011 47.2839 99.1115 47.1234 99.5651C46.7688 100.509 46.7772 101.537 46.8384 102.528C46.8756 102.73 46.87 102.984 47.0435 103.126C47.4909 103.205 47.9493 103.185 48.4022 103.187C49.5474 103.192 50.6091 102.693 51.617 102.203C51.9631 102.059 52.081 101.684 52.1738 101.354C52.3195 101.632 52.4383 101.932 52.6712 102.147C52.8569 102.323 53.1214 102.333 53.3589 102.308C53.5176 102.161 53.4944 101.928 53.513 101.733C53.5306 100.891 53.5566 100.035 53.3506 99.2101C53.2346 98.7713 52.9051 98.4395 52.6787 98.0574C52.3316 97.5285 52.1218 96.915 51.6922 96.4391C51.2922 95.9511 50.6017 95.9511 50.0708 95.6806ZM86.7521 96.3053C85.9604 96.5841 85.3748 97.2404 84.9247 97.9245C84.6621 98.4023 84.4737 98.9182 84.2584 99.4183C84.1656 99.9035 84.0487 100.395 84.0802 100.894C84.1016 101.232 84.1229 101.569 84.1294 101.908C84.779 102.24 85.4918 102.373 86.1711 102.6C86.7651 102.776 87.3878 102.842 87.978 103.038C88.5434 103.236 89.1456 103.306 89.7413 103.243C89.9928 103.236 90.0587 102.955 90.1738 102.779C90.1719 101.999 90.0295 101.226 89.7534 100.497C89.4972 99.6748 88.9543 98.9823 88.7233 98.1513C88.8634 98.1346 89.0174 98.0156 89.1539 98.1179C89.5984 98.3595 89.7979 98.854 90.0875 99.2435C90.4429 99.7139 90.5107 100.313 90.6722 100.865C90.8777 101.65 90.9253 102.468 90.8123 103.272C91.2967 103.161 91.7895 103.076 92.2684 102.936C92.4048 102.882 92.5942 102.853 92.6341 102.685C92.9765 101.848 92.8707 100.919 92.7055 100.054C92.6127 99.5317 92.3185 99.0836 92.1292 98.5966C91.9649 98.1653 91.6587 97.8158 91.3868 97.4486C91.5909 97.3445 91.7923 97.1502 92.0364 97.2004C92.2044 97.2571 92.3278 97.3947 92.4494 97.5202C93.202 98.3214 93.4851 99.4499 93.551 100.522C93.5983 101.142 93.6252 101.774 93.5157 102.39C94.1115 102.268 94.7658 102.092 95.1287 101.558C95.5092 100.936 95.7031 100.139 95.4442 99.4341C95.2799 98.9693 95.15 98.4776 94.8948 98.0472C94.5941 97.5248 94.3871 96.9188 93.9018 96.5321C93.4378 96.1603 92.9329 95.7773 92.3241 95.7308C91.5547 95.6732 90.7826 95.7308 90.0114 95.716C88.8976 95.7048 87.7917 95.9048 86.7521 96.3053Z" fill="#12131A"/>
<path d="M45.6036 51.3636C45.9998 51.2279 46.4388 51.3432 46.8017 51.5179C47.2128 51.7262 47.288 52.2393 47.2926 52.6538C47.3529 53.3575 46.6968 53.9338 46.0397 54.0035C45.4152 54.0035 44.785 53.4876 44.7674 52.8397C44.759 52.5191 44.7247 52.1696 44.8982 51.8823C45.0374 51.609 45.3251 51.4622 45.6036 51.3636Z" fill="#010023"/>
<path d="M27.3209 52.4725C27.6922 52.3061 28.1042 52.5181 28.4012 52.7514C28.6917 53.0098 28.9729 53.3175 29.0685 53.706C29.1613 54.0313 29.0462 54.3948 28.8392 54.6513C28.5404 54.8149 28.1794 54.8373 27.8444 54.8447C27.5724 54.8503 27.2189 54.7582 27.1613 54.4478C27.0601 54.0105 26.9894 53.5666 26.9497 53.1195C26.9395 52.9868 26.9694 52.854 27.0356 52.7386C27.1019 52.6232 27.2013 52.5305 27.3209 52.4725Z" fill="#010023"/>
<path d="M40.7955 54.9367C41.0433 54.4989 41.4303 54.0806 41.9583 54.0304C42.281 54.035 42.5901 54.1611 42.8242 54.3836C43.1899 54.7443 43.2799 55.3132 43.1555 55.7974C43.0423 56.225 42.6089 56.4648 42.2191 56.5931C41.8665 56.581 41.3839 56.6768 41.1741 56.3143C40.9718 55.9266 41.0052 55.473 40.9718 55.0501C40.8976 55.3234 40.8205 55.5948 40.7519 55.8699C40.7147 55.5613 40.6266 55.2183 40.7955 54.9367Z" fill="#010023"/>
<path d="M46.0826 55.0111C46.5939 54.8029 47.2399 54.9293 47.5888 55.3708C48.038 55.9425 47.9071 56.8581 47.3568 57.3173C46.4733 57.9354 45.1991 57.0998 45.1731 56.0875C45.1879 55.5651 45.6037 55.1542 46.0826 55.0111Z" fill="#010023"/>
<path d="M26.8375 56.2938C27.3785 56.0577 28.0439 55.9973 28.5701 56.3087C28.8031 56.4277 28.8866 56.6935 28.9627 56.9259C28.9376 57.2624 28.9116 57.6621 28.6147 57.8814C28.1748 58.2031 27.5456 58.3834 27.037 58.1027C26.7122 57.9065 26.431 57.5357 26.495 57.1378C26.5535 56.8367 26.7075 56.5662 26.8375 56.2938Z" fill="#010023"/>
<path d="M40.2267 57.1277C40.5571 57.1035 40.8309 57.3396 41.0332 57.5748C41.2958 57.889 41.5074 58.3324 41.3413 58.7414C41.2049 59.2238 40.752 59.5463 40.2843 59.6625C40.0668 59.6814 39.8479 59.6531 39.6424 59.5794C39.4369 59.5058 39.2497 59.3886 39.0936 59.2359C38.8151 58.9449 38.8319 58.5062 38.8708 58.1344C38.9701 57.5069 39.6448 57.1565 40.2267 57.1277Z" fill="#010023"/>
<path d="M43.406 59.3446C43.4895 58.5545 44.3953 57.9262 45.1517 58.2022C45.3545 58.2997 45.5356 58.4373 45.6841 58.6066C45.8325 58.7759 45.9453 58.9735 46.0157 59.1875C46.1085 59.5185 46.0537 59.8652 46.0639 60.2035C45.5507 60.303 45.0728 60.5493 44.5512 60.6023C43.9164 60.553 43.4543 59.9544 43.406 59.3446Z" fill="#010023"/>
<path d="M29.009 58.5507C29.4406 58.3379 29.9241 58.6111 30.1227 59.0155C30.3355 59.4526 30.3688 59.9558 30.2155 60.4172C30.1844 60.528 30.1253 60.6289 30.0441 60.7103C29.9628 60.7917 29.8621 60.8508 29.7515 60.882C29.2225 61.0075 28.6731 60.7537 28.3093 60.3754C28.0476 60.1077 28.0949 59.6978 28.133 59.3585C28.1951 58.9095 28.635 58.6827 29.009 58.5507Z" fill="#010023"/>
<path d="M50.2281 66.3505C51.2833 66.3728 52.3367 66.3282 53.3909 66.3254C53.4141 67.2242 53.3909 68.124 53.4002 69.021C54.0373 69.0533 54.6758 69.0455 55.312 68.9978C55.4308 68.1082 55.3426 67.2084 55.4558 66.3189C56.2465 66.2817 57.0335 66.3105 57.8289 66.3096C58.1825 66.3254 58.5908 66.3319 58.8609 66.5968C58.9203 67.5087 58.8534 68.4252 58.8692 69.3389C59.6738 69.5248 60.601 69.5406 61.2274 70.1541C61.6432 70.5696 62.1276 70.934 62.4413 71.4387C62.9304 72.4742 63.2394 73.6445 63.0157 74.7906C62.8413 75.4999 62.5267 76.2165 61.8965 76.6339C62.6909 77.042 63.154 77.8423 63.541 78.6175C63.7767 79.0628 63.8371 79.5721 63.8296 80.0704C63.8139 80.7499 63.9067 81.4591 63.644 82.106C63.4473 82.5848 63.3879 83.1285 63.0594 83.545C62.7039 84.0144 62.3772 84.5386 61.8529 84.8379C61.4367 85.064 61.0075 85.2651 60.5675 85.4403C60.0339 85.6597 59.4539 85.6978 58.8841 85.7684C58.8571 86.802 58.9008 87.8375 58.859 88.8721C57.6637 88.8665 56.4683 88.8721 55.273 88.8535C55.2526 87.8255 55.2888 86.7974 55.2442 85.7703C54.6308 85.7703 54.0183 85.7703 53.4058 85.7703C53.4058 86.7928 53.4151 87.8152 53.4058 88.8377C52.2596 88.9102 51.1116 88.8535 49.9646 88.8703C49.9878 87.8283 49.8764 86.789 49.9089 85.7461C48.919 85.7659 47.929 85.7659 46.9391 85.7461C46.9094 84.652 46.9178 83.5571 46.9317 82.463C47.8894 82.4472 48.8463 82.463 49.804 82.463C49.796 79.09 49.796 75.7168 49.804 72.3432C48.8954 72.292 47.986 72.3246 47.0774 72.3162C46.9428 71.8803 46.7823 71.4322 46.85 70.9693C46.9558 70.2675 46.9308 69.5574 46.9493 68.8509C48.0407 68.8723 49.134 68.8695 50.2235 68.7998C50.2708 67.9846 50.2281 67.1675 50.2281 66.3505ZM53.4447 72.3432C53.4104 73.4326 53.4383 74.522 53.4299 75.6123C53.4392 77.8962 53.3844 80.1801 53.4355 82.4639C54.4034 82.4639 55.3705 82.4741 56.3384 82.4732C57.1829 82.4732 58.0395 82.5662 58.8766 82.4193C59.4251 82.2092 59.7963 81.6692 59.9597 81.118C60.1063 80.4496 60.0246 79.6911 59.5885 79.1418C59.2376 78.7625 58.6938 78.6333 58.1964 78.6408C57.0651 78.6408 55.9338 78.6538 54.8034 78.6324C54.7979 77.6099 54.8034 76.5809 54.7969 75.5547C55.8057 75.5621 56.8145 75.5547 57.8233 75.5659C58.324 75.586 58.8175 75.4413 59.2284 75.1541C59.414 75.0249 59.4622 74.7897 59.5012 74.5815C59.6135 73.9541 59.5012 73.256 59.0799 72.7633C58.6483 72.359 58.0108 72.3283 57.4511 72.3199C56.1166 72.3404 54.7802 72.3079 53.4447 72.3432Z" fill="#12131A"/>
<path d="M73.1668 22.3827C73.2596 22.1531 73.499 21.969 73.757 22.0025C74.0725 22.0294 74.2414 22.338 74.3797 22.5862C74.7073 23.2573 75.0219 23.935 75.3467 24.608C75.5973 25.1266 75.6576 25.7067 75.8228 26.2532C76.0168 26.9885 76.2599 27.7163 76.3398 28.4767C76.4326 29.3755 76.569 30.2735 76.5514 31.1807C76.5254 32.4095 76.6145 33.656 76.3249 34.8616C75.9273 35.0492 75.5111 35.1944 75.0832 35.2948C75.2855 34.9499 75.6029 34.5939 75.4841 34.1626C75.2484 33.0872 74.479 32.2534 73.8619 31.3796C73.4275 30.7652 72.7436 30.3924 72.2925 29.7938C72.1422 29.6079 72.1663 29.3616 72.1672 29.1431C72.2174 28.1774 72.3074 27.2144 72.4076 26.2523C72.4902 25.4706 72.6981 24.7093 72.802 23.9285C72.8883 23.4061 72.9477 22.8688 73.1668 22.3827Z" fill="#FB9B20"/>
<path d="M45.3457 26.4819C45.4627 26.2778 45.6032 26.0881 45.7642 25.9167C46.2283 26.3927 46.3433 27.0564 46.5883 27.6475C46.644 27.8409 46.7795 28.064 46.6477 28.2564C46.4621 28.5789 46.2283 28.9005 45.8895 29.0716C45.5415 29.2054 45.1619 29.2157 44.7963 29.2668C44.7469 28.3073 44.9356 27.3505 45.3457 26.4819Z" fill="#FB9B20"/>
<path d="M81.7976 27.5044C82.5669 27.3268 83.3613 27.4281 84.127 27.5741C84.8082 27.7061 85.5191 27.7051 86.1752 27.9598C86.5668 28.077 86.6559 28.5557 86.616 28.9117C86.4666 29.8459 86.1316 30.7707 85.5228 31.5079C85.2304 31.8657 84.8583 32.1437 84.5168 32.4513C83.9339 32.997 83.0903 33.1643 82.3154 33.1141C81.5591 33.0974 80.9168 32.5815 80.4723 32.0089C80.1419 31.3889 80.2254 30.6462 80.2598 29.9695C80.2978 29.2082 80.6459 28.5055 81.095 27.9059C81.2695 27.6872 81.5208 27.5435 81.7976 27.5044Z" fill="#FB9B20"/>
<path d="M75.1585 37.5749C75.4688 37.2086 75.8144 36.8739 76.1904 36.5757C76.1617 37.6493 75.7468 38.6616 75.6596 39.7277C75.603 40.5466 75.3617 41.3349 75.2587 42.1445C74.9626 43.4858 74.7817 44.8485 74.5023 46.1936C74.1209 48.5388 73.5659 50.8487 73.1344 53.1855C72.8031 54.6727 72.5144 56.1767 72.107 57.6473C71.8787 58.3156 71.7683 59.0332 71.3952 59.6439C71.5632 58.7804 71.7618 57.9233 71.9437 57.0626C72.1692 55.9945 72.572 54.96 72.6481 53.8641C72.7242 52.9048 72.7551 51.9443 72.7409 50.9825C72.7075 49.9879 72.7335 48.9617 72.3752 48.0154C72.0047 47.0941 71.5414 46.213 70.9924 45.3858C71.4565 44.8857 72.0086 44.447 72.2917 43.8056C72.8383 42.8844 73.1158 41.8433 73.3645 40.8106C73.5 40.1479 73.9214 39.6022 74.1459 38.9702C74.3399 38.4171 74.79 38.0165 75.1585 37.5749Z" fill="#FB9B20"/>
<path d="M55.5394 58.8073C56.1389 58.6437 56.7654 58.798 57.3704 58.8603C56.8201 58.7571 56.331 59.0574 55.9988 59.4701C55.4893 60.0975 54.7199 60.4824 54.3339 61.212C54.0777 61.2037 53.8216 61.199 53.5654 61.1916C53.6954 60.9072 53.8132 60.6097 54.0239 60.3736C54.5065 59.8317 54.8981 59.1838 55.5394 58.8073Z" fill="#FB9B20"/>
<path d="M37.6741 32.2942C38.1047 32.0646 38.6114 32.0953 39.0829 32.1297C37.762 34.4585 36.4398 36.7867 35.1164 39.1142C34.9521 39.4014 34.8593 39.7221 34.7006 40.0121C34.4037 40.198 34.025 40.132 33.6909 40.1646C33.8419 39.549 34.0877 38.9606 34.4194 38.4208C35.3889 36.5617 36.3461 34.6996 37.2908 32.8343C37.4003 32.6428 37.4931 32.4309 37.6741 32.2942Z" fill="#BDBDBE"/>
<path d="M56.2195 32.8231C56.6547 32.7832 57.0881 32.7181 57.5243 32.6837C57.128 33.4469 56.5499 34.1068 56.2519 34.9192C56.0144 35.4853 55.5522 35.9194 55.3239 36.4911C55.0399 37.1557 54.5415 37.6874 54.1267 38.2674C53.8028 38.6996 53.6311 39.2286 53.272 39.6357C52.6483 40.3607 52.3114 41.2735 51.7695 42.0525C51.5096 41.8117 51.4094 41.4585 51.2637 41.1462C51.6655 40.4899 52.0785 39.8383 52.4154 39.1458C52.7736 38.4496 53.3342 37.8798 53.6729 37.1696C53.8978 36.6958 54.1702 36.2461 54.4859 35.8274C54.8905 35.2855 55.1012 34.619 55.5457 34.1068C55.8705 33.7387 56.0691 33.2851 56.2195 32.8231Z" fill="#BDBDBE"/>
<path d="M27.9501 42.7246C28.5195 42.5184 29.1149 42.3933 29.719 42.3528C28.9042 42.6577 28.0847 43.0035 27.4202 43.5835C27.1112 43.8769 26.8685 44.2332 26.7084 44.6285C26.5483 45.0237 26.4746 45.4486 26.4921 45.8748C26.4782 46.2215 26.8207 46.4102 27.0313 46.6314C26.6676 46.6983 26.3103 46.8173 25.94 46.8368C25.7014 46.3033 25.7664 45.6852 25.836 45.1209C25.8936 44.6587 26.1201 44.2342 26.4717 43.9293C26.9348 43.4989 27.3422 42.9635 27.9501 42.7246Z" fill="#BDBDBE"/>
<path d="M41.7984 46.2289C42.1752 46.0309 42.4109 46.4873 42.4675 46.794C42.4675 47.4828 42.2123 48.1418 41.9348 48.7637C41.842 48.1688 41.7353 47.5776 41.6787 46.9781C41.6467 46.722 41.6883 46.4621 41.7984 46.2289Z" fill="#BDBDBE"/>
<path d="M57.8911 54.1215C58.2884 53.8833 58.698 53.6661 59.118 53.4708C58.7672 53.956 58.2957 54.3306 57.8688 54.7443C57.0447 55.5929 56.229 56.4509 55.3575 57.254C54.8388 57.8257 54.1947 58.257 53.6193 58.7664C53.0625 59.2562 52.3599 59.5342 51.7734 59.9859C50.966 60.5901 49.9943 60.8913 49.082 61.2947C48.5725 61.5299 48.0612 61.7595 47.5471 61.9863C47.0496 62.2029 46.4984 62.2252 45.9851 62.386C44.1105 62.9325 42.1319 63.1854 40.1867 62.926C39.3189 62.7959 38.4345 62.7039 37.603 62.4073C37.0461 62.2214 36.4522 62.1517 35.9473 61.8385C35.2494 61.4592 34.5645 61.0605 33.9056 60.6245C33.3488 60.2778 32.9869 59.7033 32.7057 59.1261C32.4003 58.4011 32.4272 57.5868 32.5052 56.819C32.7363 57.5905 33.3609 58.1324 33.8481 58.7413C34.1961 59.1763 34.7232 59.3919 35.2253 59.5899C36.2053 60.0036 37.19 60.433 38.235 60.6524C40.1681 60.9545 42.1328 60.9154 44.0817 60.8848C45.5768 60.8513 47.0171 60.3931 48.3962 59.8511C49.3475 59.4012 50.3702 59.1029 51.2685 58.5424C51.9182 58.138 52.6142 57.8108 53.2174 57.3423C54.0304 56.6777 54.9937 56.2269 55.7956 55.5474C56.4369 54.9878 57.183 54.5825 57.8911 54.1215Z" fill="#BDBDBE"/>
<path d="M40.7517 55.8672C40.8204 55.5884 40.8974 55.3206 40.9717 55.0474C41.0051 55.4703 40.9717 55.9239 41.174 56.3115C41.3828 56.6768 41.8663 56.5811 42.219 56.5904C41.917 56.6433 41.6098 56.6601 41.3039 56.6406C40.929 56.6322 40.6849 56.2121 40.7517 55.8672Z" fill="#BDBDBE"/>
<path d="M25.7822 56.5439C26.1445 56.514 26.5002 56.4297 26.8374 56.2938C26.7075 56.5662 26.5534 56.8367 26.4987 57.1378C26.4346 57.5357 26.7158 57.9066 27.0407 58.1027C27.5455 58.3816 28.1747 58.2031 28.6184 57.8815C28.9153 57.6621 28.9413 57.2624 28.9664 56.9259C29.0991 57.3656 29.2903 57.7969 29.6104 58.1343C29.9158 58.4541 30.2192 58.8184 30.6443 58.9783C31.0972 58.9225 31.3422 58.4578 31.5723 58.1138C31.6178 58.5786 31.6837 59.0499 31.9176 59.4598C32.2531 60.0576 32.6957 60.5882 33.2233 61.0251C33.6345 61.3616 34.0521 61.6907 34.4484 62.0476C33.3161 62.4194 32.0679 62.5003 30.9218 62.1462C30.3139 61.9556 29.6643 61.7976 29.1678 61.3737C28.7371 61.0019 28.3325 60.5976 27.9093 60.2165C27.4574 59.8028 27.0193 59.3548 26.7316 58.8073C26.379 58.0655 25.9363 57.3581 25.7822 56.5439ZM29.0091 58.5507C28.6378 58.6846 28.1952 58.9114 28.1367 59.3511C28.0986 59.6903 28.0513 60.1003 28.313 60.368C28.6768 60.7463 29.2262 61 29.7552 60.8746C29.8658 60.8434 29.9666 60.7842 30.0478 60.7029C30.1291 60.6215 30.1881 60.5206 30.2192 60.4098C30.3725 59.9484 30.3392 59.4452 30.1264 59.0081C29.9241 58.6093 29.4406 58.336 29.0091 58.5507Z" fill="#BDBDBE"/>
<path d="M37.9425 64.9265L38.5346 65.0966C38.1417 66.2635 37.7087 67.4164 37.2354 68.5554C37.2883 67.3163 37.5722 66.1042 37.9425 64.9265Z" fill="#BDBDBE"/>
<path d="M42.3842 66.8738C42.4919 66.9137 42.5995 66.9537 42.7081 66.9955C42.7081 67.056 42.6988 67.1768 42.6951 67.2372C42.6663 67.5458 42.6951 67.8814 42.5429 68.1612C42.4167 68.2978 42.2831 68.428 42.1587 68.5674C42.2339 68.0032 42.3053 67.438 42.3842 66.8738Z" fill="#BDBDBE"/>
<path d="M67.4223 68.7338C67.4065 68.362 67.593 68.0292 67.799 67.7336C68.1471 68.4345 68.5814 69.1382 69.2839 69.5304C69.8231 69.8902 70.4774 69.9534 71.1011 70.0463C70.7196 70.0147 70.3187 69.9701 69.9531 70.1077C69.489 70.3085 69.1178 70.7295 68.5953 70.7955C68.3039 70.7026 68.1313 70.4237 67.9698 70.183C67.696 69.7442 67.3786 69.2767 67.4223 68.7338Z" fill="#BDBDBE"/>
<path d="M67.7841 74.3732C67.4073 73.7625 67.5057 72.9017 68.0458 72.4211C68.2314 73.214 68.456 74.0841 69.1297 74.6121C69.501 74.9411 70.0225 75.0266 70.5014 74.9495C71.1209 74.8441 71.7486 74.7946 72.377 74.8017C71.668 74.8677 71.2225 75.5286 70.532 75.6383C69.9877 75.7137 69.4331 75.6554 68.9163 75.4682C68.3947 75.2943 68.0569 74.824 67.7841 74.3732Z" fill="#BDBDBE"/>
<path d="M68.2575 77.2707C68.2687 76.8989 68.4097 76.5419 68.5591 76.2026C69.0453 76.3716 69.5471 76.4918 70.057 76.5614C69.6969 76.7678 69.3072 77.0959 69.3396 77.5551C69.3628 78.0431 69.7879 78.387 70.225 78.519C72.1739 79.1697 74.3084 79.3881 76.3214 78.8974C77.5102 78.6482 78.2276 77.3989 78.2703 76.2491C78.5487 77.1331 78.4104 78.177 77.8183 78.9057C77.4471 79.3705 77.1074 79.918 76.519 80.1271C75.7859 80.406 75.0518 80.7685 74.2481 80.7676C73.1948 80.8261 72.1488 80.6188 71.1475 80.3028C70.6649 80.142 70.1266 80.1011 69.7071 79.7888C69.2877 79.4764 68.8561 79.1493 68.5257 78.7347C68.1954 78.3201 68.2297 77.7661 68.2575 77.2707Z" fill="#BDBDBE"/>
<path d="M31.3283 78.6733L31.7793 78.3944C31.8203 78.7274 31.9328 79.0475 32.109 79.3328C32.2852 79.6181 32.521 79.8618 32.8002 80.0471C33.5157 80.5556 34.441 80.5119 35.2744 80.4645C35.821 80.4134 36.3788 80.4329 36.9161 80.313C37.3495 80.2116 37.5407 79.7627 37.8637 79.5033C38.1421 79.2803 38.401 79.0311 38.6813 78.8108C38.6451 79.4169 38.7917 80.0917 38.4288 80.6271C38.1291 81.0454 37.7152 81.4173 37.2149 81.5641C35.8786 81.9573 34.4308 82.1218 33.074 81.7314C32.726 81.6171 32.3362 81.5102 32.1079 81.2007C31.6012 80.4598 31.2856 79.5805 31.3283 78.6733Z" fill="#BDBDBE"/>
<path d="M44.2504 96.5919C44.5532 96.3536 44.9066 96.1882 45.2833 96.1085C45.0458 96.5361 44.668 97.0315 44.9205 97.5372C44.4122 98.2628 43.9408 99.0136 43.508 99.7867C43.5362 98.9927 43.5232 98.1978 43.469 97.4052C43.6166 97.0455 43.9627 96.8271 44.2504 96.5919Z" fill="#BDBDBE"/>
<path d="M84.0808 100.895C84.0493 100.396 84.1625 99.9038 84.259 99.4186C84.2405 99.7904 84.2655 100.185 84.4892 100.495C84.8604 101.036 85.4766 101.326 86.0195 101.664C86.6812 102.081 87.4794 102.165 88.1708 102.517C88.7842 102.864 89.5044 102.796 90.1818 102.783C90.0668 102.955 89.9962 103.236 89.7494 103.247C89.1537 103.31 88.5514 103.24 87.9861 103.042C87.3958 102.846 86.7731 102.78 86.1792 102.604C85.4952 102.376 84.7787 102.244 84.1374 101.913C84.1235 101.57 84.1022 101.232 84.0808 100.895Z" fill="#BDBDBE"/>
<path d="M63.8521 57.2234C64.6159 57.0487 65.2776 56.6239 65.9235 56.2009C66.0998 56.5486 66.2678 56.912 66.2882 57.308C66.3652 58.6382 66.3263 60.0036 65.891 61.2752C65.427 61.0382 64.9964 60.7343 64.5073 60.5483C64.1999 60.4177 63.9016 60.2664 63.6145 60.0957C63.6516 59.4738 63.8094 58.864 63.8168 58.2366C63.8261 57.8983 63.8379 57.5605 63.8521 57.2234Z" fill="#EF5969"/>
<path d="M37.9426 64.9263C38.0092 64.4002 38.1843 63.8938 38.4568 63.4391C38.6099 63.4735 38.764 63.5079 38.9208 63.5441C38.8066 64.0656 38.6776 64.5833 38.5375 65.0992L37.9426 64.9263Z" fill="#EF5969"/>
<path d="M34.5328 63.5396C35.7273 63.8547 36.7527 64.5936 37.9425 64.9264C37.5713 66.1041 37.2929 67.3162 37.239 68.5516C37.7093 67.4132 38.1424 66.2603 38.5383 65.0928C40.0677 65.4386 41.4691 66.1748 42.8677 66.8589C42.8101 66.9816 42.7545 67.1052 42.6988 67.2307C42.6988 67.1703 42.709 67.0448 42.7118 66.989C42.6032 66.9472 42.4955 66.9072 42.3879 66.8673C42.309 67.4315 42.2375 67.9967 42.1624 68.5609C41.9619 69.205 41.7559 69.8752 41.2946 70.3865C40.8965 70.8299 40.4798 71.2946 39.9174 71.527C39.4826 71.7097 39.0362 71.8631 38.581 71.9862C38.2367 71.9751 37.8497 71.8505 37.6585 71.5447C37.4729 71.0669 37.5147 70.5222 37.2817 70.0639C37.1318 69.7639 36.8968 69.5149 36.6061 69.3482C36.0391 69.0005 35.4247 68.6975 34.7574 68.6176C34.1737 68.5442 33.5835 68.5897 32.9941 68.5665C33.2475 67.3451 33.5213 66.1162 34.015 64.9673C34.2043 64.4998 34.363 64.0183 34.5328 63.5396Z" fill="#EF5969"/>
<path d="M54.5575 59.0481C54.8554 58.8762 55.2071 58.8566 55.5394 58.8074C54.8981 59.1838 54.5064 59.8299 54.0238 60.3736C53.8132 60.6097 53.6953 60.9072 53.5654 61.1916C53.8215 61.1991 54.0777 61.2037 54.3338 61.2121C54.7007 61.2276 55.067 61.2514 55.4326 61.2836C54.7134 61.2595 53.9867 61.2065 53.2749 61.3469C52.7979 61.4398 52.2902 61.4221 51.842 61.6313C50.8397 62.189 49.6991 62.3935 48.604 62.6826L48.6625 62.9893C47.7187 63.442 46.9029 64.128 46.1716 64.8716C45.3958 65.883 44.7795 67.1546 43.5322 67.6602C43.5721 66.8729 43.7605 66.107 43.9619 65.3494C44.0547 65.0278 43.8784 64.7099 43.909 64.3883C43.9675 64.1491 44.0416 63.9141 44.1308 63.6846C44.9304 63.5517 45.7112 63.3232 46.4565 63.0042C47.6119 62.479 48.9168 62.3712 50.0397 61.7633C50.9975 61.2446 51.9886 60.7808 52.8935 60.1719C53.4282 59.7684 53.9836 59.3933 54.5575 59.0481Z" fill="#FD780B"/>
<path d="M69.5537 80.7257C69.9274 80.8022 70.2954 80.9041 70.6553 81.0306C70.546 81.3381 70.4065 81.6339 70.2386 81.9137C69.8674 82.4881 69.6428 83.1462 69.241 83.7039C69.4219 82.7186 69.4925 81.7231 69.5537 80.7257Z" fill="#FD780B"/>
<path d="M55.9977 59.4701C56.33 59.0574 56.8191 58.7571 57.3694 58.8603C58.1118 58.9681 58.8784 58.9746 59.5967 59.2321C60.4088 59.4989 61.231 59.7415 62.0152 60.0873C62.4106 60.2657 62.7697 60.5176 63.1771 60.671C64.1664 61.0242 64.9729 61.7186 65.8304 62.3023C66.4411 62.7048 66.9441 63.244 67.5325 63.6697C67.9547 63.9885 68.222 64.4598 68.6248 64.8C68.9051 65.0431 69.1603 65.3137 69.3867 65.6078C68.9496 65.8085 68.5051 66.0121 68.1348 66.3254C67.835 66.5819 67.5213 66.8199 67.2132 67.0643C66.9822 66.6303 66.7093 66.211 66.3232 65.8987C65.8592 65.5269 65.5455 64.9924 65.024 64.6968C64.3808 64.3371 63.8852 63.7673 63.217 63.4438C62.2973 63.0014 61.4417 62.413 60.4579 62.1155C59.386 61.7623 58.2956 61.4323 57.1634 61.3514C56.5889 61.2966 56.0107 61.3579 55.4372 61.2873C55.0715 61.2551 54.7053 61.2312 54.3384 61.2157C54.7198 60.4823 55.4892 60.0975 55.9977 59.4701Z" fill="#FED519"/>
<path d="M50.5631 62.3786C51.8763 62.0709 53.2359 62.0904 54.576 62.03C55.4437 61.9835 56.3096 62.0625 57.1746 62.0635C58.587 62.1908 59.9142 62.73 61.2069 63.283C61.9494 63.5424 62.599 63.9718 63.2487 64.405C63.8531 64.7782 64.4292 65.1958 64.972 65.6543C65.4305 65.9982 65.7674 66.4713 66.2101 66.8329C66.4514 67.0532 66.7502 67.2503 66.869 67.5691C66.8922 67.8684 66.8059 68.1612 66.7762 68.4577C66.7079 69.0753 66.8103 69.6997 67.0722 70.2629C67.2625 70.6691 67.6151 70.961 67.9483 71.2473C67.6309 71.581 67.282 71.8979 67.0657 72.3116C66.8495 72.7252 66.8346 73.2039 66.8541 73.6594C66.8727 74.0786 66.9609 74.5108 67.2049 74.8613C67.3905 75.1513 67.6829 75.3586 67.8806 75.6421C67.8518 76.0594 67.5882 76.4192 67.5177 76.83C67.3933 77.4807 67.3646 78.216 67.7237 78.8044C67.9028 79.1135 68.0986 79.4126 68.3102 79.7004C68.5395 80.0035 68.9246 80.128 69.1687 80.4143C69.2977 81.039 69.1176 81.6794 69.0388 82.3013C68.9163 83.3237 68.5358 84.2849 68.1924 85.2469C67.9659 85.8976 67.4694 86.3847 67.1066 86.9526C66.8757 87.3019 66.6009 87.6199 66.2889 87.8989C65.889 88.2707 65.5734 88.7429 65.0936 89.0236C64.4765 89.3862 63.9865 89.9318 63.3433 90.2534C62.5294 90.6708 61.7378 91.1346 60.9044 91.512C60.3671 91.6979 59.8204 91.8596 59.2822 92.0446C57.9718 92.4583 56.5806 92.3765 55.2256 92.3848C54.0043 92.3913 52.7951 92.1422 51.6397 91.7602C50.4239 91.4813 49.3873 90.7488 48.3098 90.1558C47.753 89.8816 47.3391 89.3945 46.8351 89.0404C46.1855 88.583 45.6946 87.9472 45.1043 87.4211C44.7331 87.0995 44.5104 86.6533 44.219 86.2657C43.9702 85.9283 43.6074 85.6717 43.4524 85.2711C43.1842 84.5833 42.7359 83.9884 42.4074 83.3312C41.9898 82.7214 41.8552 81.9834 41.5527 81.3206C41.1731 80.4152 41.0562 79.4364 40.8538 78.4846C40.7386 77.8758 40.6925 77.2559 40.7165 76.6367C40.7341 76.1041 40.6738 75.5724 40.6887 75.0407C40.6887 74.5248 41.2047 74.1818 41.1991 73.664C41.2576 73.1667 40.9819 72.7345 40.6979 72.3553C41.1128 72.1238 41.562 71.9082 41.8506 71.5187C42.2626 70.961 42.7907 70.4757 43.0181 69.8046C43.3401 69.1335 43.3392 68.3769 43.5322 67.6667C44.7786 67.1564 45.3957 65.8848 46.1716 64.8781C46.9029 64.128 47.7186 63.442 48.6662 62.9893C49.2741 62.7234 49.9265 62.571 50.5631 62.3786ZM50.2281 66.3505C50.2281 67.1675 50.2708 67.9846 50.2281 68.8017C49.1386 68.8714 48.0453 68.8742 46.9539 68.8528C46.9354 69.5592 46.9604 70.2694 46.8546 70.9712C46.7869 71.436 46.9474 71.8821 47.082 72.3181C47.9906 72.3264 48.9001 72.2939 49.8086 72.345C49.7975 75.7186 49.7975 79.0919 49.8086 82.4649C48.8509 82.4649 47.894 82.4528 46.9363 82.4649C46.9224 83.5589 46.914 84.6539 46.9437 85.748C47.9336 85.7678 48.9236 85.7678 49.9135 85.748C49.881 86.7909 49.9924 87.8301 49.9692 88.8721C51.1162 88.8554 52.2642 88.9121 53.4104 88.8396C53.4178 87.8171 53.4104 86.7946 53.4104 85.7721C54.0229 85.7721 54.6354 85.7721 55.2488 85.7721C55.2934 86.7946 55.2572 87.8273 55.2776 88.8554C56.4729 88.8786 57.6683 88.8684 58.8636 88.874C58.9054 87.8394 58.8636 86.8039 58.8887 85.7703C59.4557 85.6996 60.0385 85.6615 60.5722 85.4421C61.0121 85.267 61.4413 85.0658 61.8575 84.8398C62.3819 84.5405 62.7085 84.0162 63.064 83.5468C63.3925 83.1304 63.4519 82.5866 63.6486 82.1079C63.9131 81.4572 63.8203 80.7517 63.8343 80.0722C63.8417 79.574 63.7814 79.0646 63.5456 78.6194C63.1586 77.8488 62.6955 77.0438 61.9011 76.6358C62.5313 76.2184 62.8459 75.5017 63.0204 74.7925C63.244 73.6464 62.935 72.4761 62.4459 71.4406C62.1322 70.9359 61.6478 70.5715 61.232 70.156C60.6056 69.5425 59.6784 69.5295 58.8738 69.3408C58.858 68.4271 58.9249 67.5105 58.8655 66.5987C58.5954 66.3338 58.1871 66.3272 57.8335 66.3114C57.0418 66.3114 56.2511 66.2836 55.4604 66.3207C55.3472 67.2103 55.4354 68.1101 55.3166 68.9996C54.6804 69.0473 54.0419 69.0551 53.4048 69.0229C53.3946 68.1231 53.4187 67.2233 53.3955 66.3272C52.3366 66.3282 51.2833 66.3728 50.2281 66.3505Z" fill="#FED519"/>
<path d="M53.4446 72.3432C54.78 72.306 56.1164 72.3432 57.4519 72.3228C58.0087 72.3311 58.6491 72.3618 59.0806 72.7661C59.5038 73.2588 59.6143 73.9569 59.502 74.5843C59.463 74.7925 59.4147 75.0277 59.2291 75.1569C58.8182 75.4442 58.3247 75.5888 57.8241 75.5687C56.8153 75.5622 55.8065 75.5687 54.7977 75.5575C54.8023 76.58 54.7977 77.6099 54.8042 78.6352C55.9345 78.6566 57.0658 78.6445 58.1971 78.6436C58.6964 78.6361 59.2403 78.7653 59.5892 79.1446C60.0226 79.6939 60.1043 80.4524 59.9604 81.1208C59.7971 81.6692 59.4259 82.2093 58.8774 82.4221C58.0421 82.5718 57.1837 82.4742 56.3392 82.476C55.3712 82.476 54.4042 82.4695 53.4362 82.4667C53.3852 80.1829 53.4362 77.899 53.4307 75.6152C53.4381 74.522 53.4102 73.4326 53.4446 72.3432Z" fill="#FED519"/>
<path d="M37.4207 72.5355C37.7855 72.4853 38.1483 72.5932 38.514 72.595C39.0216 72.6155 39.5766 72.5104 40.0351 72.7893C40.1733 72.8627 40.2867 72.9756 40.3609 73.1136C40.4351 73.2516 40.4667 73.4085 40.4518 73.5645C40.3757 73.9577 40.0917 74.2793 40.0443 74.68C39.8782 75.9488 40.0295 77.2269 40.1371 78.491C40.3088 79.6781 40.4703 80.8883 40.9585 81.9954C41.1552 82.5986 41.4652 83.1526 41.7362 83.7234C42.0461 84.56 42.5389 85.3036 43.0828 86.0026C43.3612 86.406 43.5301 86.8921 43.9078 87.2259C44.4442 87.6832 44.7523 88.3552 45.3435 88.7559C45.9347 89.1565 46.3263 89.7839 46.9528 90.1306C47.5319 90.4634 48.0172 90.9319 48.5963 91.2665C49.0604 91.5835 49.5931 91.7648 50.11 91.9748C52.3373 93.0968 54.9117 93.2529 57.3599 93.0745C58.1815 93.0503 58.9971 92.9277 59.7896 92.7092C60.3714 92.5121 60.9097 92.2016 61.5018 92.0297C61.9177 91.9268 62.3167 91.7649 62.6869 91.5491C63.4684 91.0602 64.2526 90.5768 65.0238 90.073C65.4748 89.7941 65.7597 89.3154 66.2126 89.0375C66.5029 88.8736 66.7515 88.6449 66.9393 88.3692C67.2734 87.8458 67.8358 87.5242 68.1578 86.9898C68.529 86.3856 69.0534 85.8901 69.4302 85.2878C69.8014 84.7421 70.0343 84.1156 70.3972 83.5635C70.889 82.8478 71.0218 81.974 71.2491 81.1541C72.0844 81.3819 72.94 81.4823 73.7818 81.6645C73.6431 82.2335 73.4569 82.7897 73.225 83.3274C72.812 84.2616 72.5048 85.258 71.9071 86.0974C71.5229 86.6263 71.2965 87.2556 70.8751 87.7585C70.3239 88.4166 69.7884 89.0877 69.2371 89.7449C68.8548 90.2013 68.3722 90.5527 67.9378 90.9533C67.4488 91.3679 66.9959 91.8419 66.4121 92.1254C65.8108 92.4257 65.3839 92.9834 64.7676 93.2585C64.0252 93.5876 63.3208 93.9873 62.596 94.3498C62.0308 94.6463 61.396 94.7597 60.7937 94.9531C59.6476 95.312 58.4645 95.5397 57.2671 95.6316C56.43 95.6533 55.5926 95.6533 54.7549 95.6316C53.2533 95.4968 51.7545 95.2486 50.3271 94.7486C49.3722 94.5431 48.4998 94.0877 47.6701 93.5848C47.2219 93.3059 46.6994 93.1609 46.2679 92.8523C45.5458 92.3095 44.8535 91.7304 44.1417 91.1736C43.712 90.8315 43.3798 90.3881 42.9723 90.0219C42.1102 89.2253 41.4689 88.2353 40.7515 87.316C40.462 86.8968 40.3385 86.3865 40.0508 85.971C39.6611 85.4133 39.3594 84.7979 39.0504 84.1937C38.7451 83.3906 38.5864 82.5364 38.2486 81.7463C38.9511 81.2954 39.314 80.483 39.455 79.6855C39.5803 78.9484 39.2314 78.2503 38.9669 77.5847C38.7339 76.9694 38.0657 76.7482 37.5358 76.4619C37.8096 75.8865 38.024 75.2405 37.8829 74.6028C37.8179 74.1492 37.5191 73.7895 37.3261 73.3944C37.1785 73.1118 37.263 72.7828 37.4207 72.5355Z" fill="#FED519"/>
<path d="M35.0988 62.2689C36.2403 62.5998 37.276 63.2737 38.4797 63.3927L38.4565 63.4346C38.184 63.8892 38.0089 64.3957 37.9424 64.9218C36.7526 64.589 35.7271 63.8501 34.5327 63.5349C34.701 63.1055 34.8897 62.6835 35.0988 62.2689Z" fill="#D64447"/>
<path d="M38.9216 63.5415C39.5313 63.5936 40.1383 63.6809 40.748 63.7274C41.6 63.7925 42.4529 63.7051 43.3039 63.759C43.3447 64.8131 43.1053 65.8467 42.8677 66.8664C41.4691 66.1786 40.0678 65.4424 38.5383 65.1003C38.6748 64.5807 38.8038 64.063 38.9216 63.5415Z" fill="#D64447"/>
</g>
<defs>
<filter id="filter0_d_436_493" x="0" y="-8" width="435.481" height="137" filterUnits="userSpaceOnUse" color-interpolation-filters="sRGB">
<feFlood flood-opacity="0" result="BackgroundImageFix"/>
<feColorMatrix in="SourceAlpha" type="matrix" values="0 0 0 0 0 0 0 0 0 0 0 0 0 0 0 0 0 0 127 0" result="hardAlpha"/>
<feOffset/>
<feGaussianBlur stdDeviation="12.5"/>
<feComposite in2="hardAlpha" operator="out"/>
<feColorMatrix type="matrix" values="0 0 0 0 1 0 0 0 0 1 0 0 0 0 1 0 0 0 0.35 0"/>
<feBlend mode="normal" in2="BackgroundImageFix" result="effect1_dropShadow_436_493"/>
<feBlend mode="normal" in="SourceGraphic" in2="effect1_dropShadow_436_493" result="shape"/>
</filter>
</defs>
</svg>
